G75*
G70*
%OFA0B0*%
%FSLAX24Y24*%
%IPPOS*%
%LPD*%
%AMOC8*
5,1,8,0,0,1.08239X$1,22.5*
%
%ADD10C,0.0000*%
D10*
X000232Y000232D02*
X000232Y011228D01*
X007752Y011228D01*
X007752Y000232D01*
X000232Y000232D01*
X000582Y001232D02*
X000584Y001282D01*
X000590Y001332D01*
X000600Y001382D01*
X000613Y001430D01*
X000630Y001478D01*
X000651Y001524D01*
X000675Y001568D01*
X000703Y001610D01*
X000734Y001650D01*
X000768Y001687D01*
X000805Y001722D01*
X000844Y001753D01*
X000885Y001782D01*
X000929Y001807D01*
X000975Y001829D01*
X001022Y001847D01*
X001070Y001861D01*
X001119Y001872D01*
X001169Y001879D01*
X001219Y001882D01*
X001270Y001881D01*
X001320Y001876D01*
X001370Y001867D01*
X001418Y001855D01*
X001466Y001838D01*
X001512Y001818D01*
X001557Y001795D01*
X001600Y001768D01*
X001640Y001738D01*
X001678Y001705D01*
X001713Y001669D01*
X001746Y001630D01*
X001775Y001589D01*
X001801Y001546D01*
X001824Y001501D01*
X001843Y001454D01*
X001858Y001406D01*
X001870Y001357D01*
X001878Y001307D01*
X001882Y001257D01*
X001882Y001207D01*
X001878Y001157D01*
X001870Y001107D01*
X001858Y001058D01*
X001843Y001010D01*
X001824Y000963D01*
X001801Y000918D01*
X001775Y000875D01*
X001746Y000834D01*
X001713Y000795D01*
X001678Y000759D01*
X001640Y000726D01*
X001600Y000696D01*
X001557Y000669D01*
X001512Y000646D01*
X001466Y000626D01*
X001418Y000609D01*
X001370Y000597D01*
X001320Y000588D01*
X001270Y000583D01*
X001219Y000582D01*
X001169Y000585D01*
X001119Y000592D01*
X001070Y000603D01*
X001022Y000617D01*
X000975Y000635D01*
X000929Y000657D01*
X000885Y000682D01*
X000844Y000711D01*
X000805Y000742D01*
X000768Y000777D01*
X000734Y000814D01*
X000703Y000854D01*
X000675Y000896D01*
X000651Y000940D01*
X000630Y000986D01*
X000613Y001034D01*
X000600Y001082D01*
X000590Y001132D01*
X000584Y001182D01*
X000582Y001232D01*
X006082Y001232D02*
X006084Y001282D01*
X006090Y001332D01*
X006100Y001382D01*
X006113Y001430D01*
X006130Y001478D01*
X006151Y001524D01*
X006175Y001568D01*
X006203Y001610D01*
X006234Y001650D01*
X006268Y001687D01*
X006305Y001722D01*
X006344Y001753D01*
X006385Y001782D01*
X006429Y001807D01*
X006475Y001829D01*
X006522Y001847D01*
X006570Y001861D01*
X006619Y001872D01*
X006669Y001879D01*
X006719Y001882D01*
X006770Y001881D01*
X006820Y001876D01*
X006870Y001867D01*
X006918Y001855D01*
X006966Y001838D01*
X007012Y001818D01*
X007057Y001795D01*
X007100Y001768D01*
X007140Y001738D01*
X007178Y001705D01*
X007213Y001669D01*
X007246Y001630D01*
X007275Y001589D01*
X007301Y001546D01*
X007324Y001501D01*
X007343Y001454D01*
X007358Y001406D01*
X007370Y001357D01*
X007378Y001307D01*
X007382Y001257D01*
X007382Y001207D01*
X007378Y001157D01*
X007370Y001107D01*
X007358Y001058D01*
X007343Y001010D01*
X007324Y000963D01*
X007301Y000918D01*
X007275Y000875D01*
X007246Y000834D01*
X007213Y000795D01*
X007178Y000759D01*
X007140Y000726D01*
X007100Y000696D01*
X007057Y000669D01*
X007012Y000646D01*
X006966Y000626D01*
X006918Y000609D01*
X006870Y000597D01*
X006820Y000588D01*
X006770Y000583D01*
X006719Y000582D01*
X006669Y000585D01*
X006619Y000592D01*
X006570Y000603D01*
X006522Y000617D01*
X006475Y000635D01*
X006429Y000657D01*
X006385Y000682D01*
X006344Y000711D01*
X006305Y000742D01*
X006268Y000777D01*
X006234Y000814D01*
X006203Y000854D01*
X006175Y000896D01*
X006151Y000940D01*
X006130Y000986D01*
X006113Y001034D01*
X006100Y001082D01*
X006090Y001132D01*
X006084Y001182D01*
X006082Y001232D01*
X006082Y010232D02*
X006084Y010282D01*
X006090Y010332D01*
X006100Y010382D01*
X006113Y010430D01*
X006130Y010478D01*
X006151Y010524D01*
X006175Y010568D01*
X006203Y010610D01*
X006234Y010650D01*
X006268Y010687D01*
X006305Y010722D01*
X006344Y010753D01*
X006385Y010782D01*
X006429Y010807D01*
X006475Y010829D01*
X006522Y010847D01*
X006570Y010861D01*
X006619Y010872D01*
X006669Y010879D01*
X006719Y010882D01*
X006770Y010881D01*
X006820Y010876D01*
X006870Y010867D01*
X006918Y010855D01*
X006966Y010838D01*
X007012Y010818D01*
X007057Y010795D01*
X007100Y010768D01*
X007140Y010738D01*
X007178Y010705D01*
X007213Y010669D01*
X007246Y010630D01*
X007275Y010589D01*
X007301Y010546D01*
X007324Y010501D01*
X007343Y010454D01*
X007358Y010406D01*
X007370Y010357D01*
X007378Y010307D01*
X007382Y010257D01*
X007382Y010207D01*
X007378Y010157D01*
X007370Y010107D01*
X007358Y010058D01*
X007343Y010010D01*
X007324Y009963D01*
X007301Y009918D01*
X007275Y009875D01*
X007246Y009834D01*
X007213Y009795D01*
X007178Y009759D01*
X007140Y009726D01*
X007100Y009696D01*
X007057Y009669D01*
X007012Y009646D01*
X006966Y009626D01*
X006918Y009609D01*
X006870Y009597D01*
X006820Y009588D01*
X006770Y009583D01*
X006719Y009582D01*
X006669Y009585D01*
X006619Y009592D01*
X006570Y009603D01*
X006522Y009617D01*
X006475Y009635D01*
X006429Y009657D01*
X006385Y009682D01*
X006344Y009711D01*
X006305Y009742D01*
X006268Y009777D01*
X006234Y009814D01*
X006203Y009854D01*
X006175Y009896D01*
X006151Y009940D01*
X006130Y009986D01*
X006113Y010034D01*
X006100Y010082D01*
X006090Y010132D01*
X006084Y010182D01*
X006082Y010232D01*
X000582Y010232D02*
X000584Y010282D01*
X000590Y010332D01*
X000600Y010382D01*
X000613Y010430D01*
X000630Y010478D01*
X000651Y010524D01*
X000675Y010568D01*
X000703Y010610D01*
X000734Y010650D01*
X000768Y010687D01*
X000805Y010722D01*
X000844Y010753D01*
X000885Y010782D01*
X000929Y010807D01*
X000975Y010829D01*
X001022Y010847D01*
X001070Y010861D01*
X001119Y010872D01*
X001169Y010879D01*
X001219Y010882D01*
X001270Y010881D01*
X001320Y010876D01*
X001370Y010867D01*
X001418Y010855D01*
X001466Y010838D01*
X001512Y010818D01*
X001557Y010795D01*
X001600Y010768D01*
X001640Y010738D01*
X001678Y010705D01*
X001713Y010669D01*
X001746Y010630D01*
X001775Y010589D01*
X001801Y010546D01*
X001824Y010501D01*
X001843Y010454D01*
X001858Y010406D01*
X001870Y010357D01*
X001878Y010307D01*
X001882Y010257D01*
X001882Y010207D01*
X001878Y010157D01*
X001870Y010107D01*
X001858Y010058D01*
X001843Y010010D01*
X001824Y009963D01*
X001801Y009918D01*
X001775Y009875D01*
X001746Y009834D01*
X001713Y009795D01*
X001678Y009759D01*
X001640Y009726D01*
X001600Y009696D01*
X001557Y009669D01*
X001512Y009646D01*
X001466Y009626D01*
X001418Y009609D01*
X001370Y009597D01*
X001320Y009588D01*
X001270Y009583D01*
X001219Y009582D01*
X001169Y009585D01*
X001119Y009592D01*
X001070Y009603D01*
X001022Y009617D01*
X000975Y009635D01*
X000929Y009657D01*
X000885Y009682D01*
X000844Y009711D01*
X000805Y009742D01*
X000768Y009777D01*
X000734Y009814D01*
X000703Y009854D01*
X000675Y009896D01*
X000651Y009940D01*
X000630Y009986D01*
X000613Y010034D01*
X000600Y010082D01*
X000590Y010132D01*
X000584Y010182D01*
X000582Y010232D01*
M02*
