%
M48
M72
T01C0.0320
T02C0.0354
T03C0.0394
T04C0.0400
T05C0.0512
T06C0.1300
%
T01
X12562Y6812
X12562Y7812
X12562Y8812
X12562Y9812
X15562Y9812
X15562Y8812
X15562Y7812
X15562Y6812
T02
X14562Y4812
X11562Y4812
T03
X10243Y2312
X9456Y2312
X8669Y2312
X7881Y2312
T04
X8062Y13812
X9062Y13812
X10062Y13812
T05
X10936Y7812
X3062Y7812
T06
X5062Y2812
X13062Y2812
X13062Y12812
X5062Y12812
M30
