G75*
G70*
%OFA0B0*%
%FSLAX24Y24*%
%IPPOS*%
%LPD*%
%AMOC8*
5,1,8,0,0,1.08239X$1,22.5*
%
%ADD10C,0.0000*%
%ADD11C,0.0060*%
%ADD12C,0.0040*%
%ADD13C,0.0080*%
%ADD14C,0.0050*%
D10*
X000151Y001179D02*
X000151Y010175D01*
X007521Y010175D01*
X007521Y001179D01*
X000151Y001179D01*
D11*
X000338Y002623D02*
X000281Y002680D01*
X000281Y002793D01*
X000338Y002850D01*
X000621Y002850D01*
X000508Y002991D02*
X000281Y002991D01*
X000395Y002991D02*
X000508Y003105D01*
X000508Y003162D01*
X000508Y003298D02*
X000508Y003468D01*
X000451Y003525D01*
X000338Y003525D01*
X000281Y003468D01*
X000281Y003298D01*
X000621Y003298D01*
X000338Y003667D02*
X000395Y003723D01*
X000395Y003893D01*
X000451Y003893D02*
X000281Y003893D01*
X000281Y003723D01*
X000338Y003667D01*
X000508Y003723D02*
X000508Y003837D01*
X000451Y003893D01*
X000508Y004035D02*
X000281Y004035D01*
X000281Y004262D02*
X000451Y004262D01*
X000508Y004205D01*
X000508Y004035D01*
X000621Y004403D02*
X000621Y004630D01*
X000508Y004772D02*
X000281Y004772D01*
X000395Y004772D02*
X000508Y004885D01*
X000508Y004942D01*
X000508Y005135D02*
X000508Y005249D01*
X000451Y005305D01*
X000281Y005305D01*
X000281Y005135D01*
X000338Y005078D01*
X000395Y005135D01*
X000395Y005305D01*
X000451Y005447D02*
X000451Y005560D01*
X000565Y005503D02*
X000621Y005560D01*
X000565Y005503D02*
X000281Y005503D01*
X000281Y005749D02*
X000565Y005749D01*
X000621Y005806D01*
X000508Y005938D02*
X000508Y005994D01*
X000281Y005994D01*
X000281Y005938D02*
X000281Y006051D01*
X000338Y006183D02*
X000281Y006240D01*
X000281Y006410D01*
X000338Y006183D02*
X000451Y006183D01*
X000508Y006240D01*
X000508Y006410D01*
X000621Y005994D02*
X000678Y005994D01*
X000451Y005806D02*
X000451Y005692D01*
X000281Y004517D02*
X000621Y004517D01*
X002051Y005679D02*
X002901Y005679D01*
X002903Y005649D01*
X002908Y005619D01*
X002917Y005590D01*
X002930Y005563D01*
X002945Y005537D01*
X002964Y005513D01*
X002985Y005492D01*
X003009Y005473D01*
X003035Y005458D01*
X003062Y005445D01*
X003091Y005436D01*
X003121Y005431D01*
X003151Y005429D01*
X003181Y005431D01*
X003211Y005436D01*
X003240Y005445D01*
X003267Y005458D01*
X003293Y005473D01*
X003317Y005492D01*
X003338Y005513D01*
X003357Y005537D01*
X003372Y005563D01*
X003385Y005590D01*
X003394Y005619D01*
X003399Y005649D01*
X003401Y005679D01*
X004251Y005679D01*
X004251Y001679D01*
X002051Y001679D01*
X002051Y005679D01*
X000565Y007288D02*
X000621Y007345D01*
X000621Y007458D01*
X000565Y007515D01*
X000338Y007288D01*
X000281Y007345D01*
X000281Y007458D01*
X000338Y007515D01*
X000565Y007515D01*
X000338Y007656D02*
X000338Y007713D01*
X000281Y007713D01*
X000281Y007656D01*
X000338Y007656D01*
X000281Y007841D02*
X000281Y008067D01*
X000281Y007954D02*
X000621Y007954D01*
X000508Y007841D01*
X000565Y007288D02*
X000338Y007288D01*
X000508Y007147D02*
X000281Y007033D01*
X000508Y006920D01*
X000621Y002623D02*
X000338Y002623D01*
D12*
X004556Y007699D02*
X004656Y007699D01*
X004689Y007733D01*
X004689Y007799D01*
X004656Y007833D01*
X004556Y007833D01*
X004777Y007833D02*
X004877Y007833D01*
X004910Y007799D01*
X004910Y007733D01*
X004877Y007699D01*
X004777Y007699D01*
X004998Y007766D02*
X004998Y007899D01*
X004998Y007766D02*
X005064Y007699D01*
X005131Y007766D01*
X005131Y007899D01*
X006056Y007866D02*
X006056Y007733D01*
X006089Y007699D01*
X006189Y007699D01*
X006189Y007899D01*
X006089Y007899D01*
X006056Y007866D01*
X006277Y007899D02*
X006277Y007699D01*
X006410Y007899D01*
X006410Y007699D01*
X006498Y007733D02*
X006498Y007799D01*
X006564Y007799D01*
X006498Y007733D02*
X006531Y007699D01*
X006598Y007699D01*
X006631Y007733D01*
X006631Y007866D01*
X006598Y007899D01*
X006531Y007899D01*
X006498Y007866D01*
D13*
X004251Y007179D02*
X004151Y007179D01*
X004151Y007479D01*
X002151Y007479D01*
X002151Y007179D01*
X002051Y007179D01*
X002151Y007179D02*
X002151Y006879D01*
X004151Y006879D01*
X004151Y007179D01*
D14*
X003926Y007139D02*
X003746Y007139D01*
X003791Y007004D02*
X003791Y007274D01*
X003926Y007139D01*
X003632Y007049D02*
X003587Y007049D01*
X003587Y007004D01*
X003632Y007004D01*
X003632Y007049D01*
X003484Y007049D02*
X003484Y007004D01*
X003484Y007049D02*
X003304Y007229D01*
X003304Y007274D01*
X003484Y007274D01*
X003190Y007274D02*
X003190Y007004D01*
X003190Y007094D02*
X003009Y007274D01*
X003145Y007139D02*
X003009Y007004D01*
M02*
