G75*
G70*
%OFA0B0*%
%FSLAX24Y24*%
%IPPOS*%
%LPD*%
%AMOC8*
5,1,8,0,0,1.08239X$1,22.5*
%
%ADD10C,0.0480*%
%ADD11C,0.0740*%
%ADD12OC8,0.1250*%
%ADD13C,0.0060*%
D10*
X001411Y002179D02*
X001891Y002179D01*
X001891Y003179D02*
X001411Y003179D01*
X001411Y004179D02*
X001891Y004179D01*
X001891Y005179D02*
X001411Y005179D01*
X004411Y005179D02*
X004891Y005179D01*
X004891Y004179D02*
X004411Y004179D01*
X004411Y003179D02*
X004891Y003179D01*
X004891Y002179D02*
X004411Y002179D01*
D11*
X003651Y002679D03*
X002651Y002679D03*
X002651Y005679D03*
X003651Y005679D03*
X004651Y007179D03*
X003651Y008679D03*
X002651Y008679D03*
X001651Y007179D03*
X006651Y006179D03*
X006651Y005179D03*
X006651Y004179D03*
D12*
X006651Y008679D03*
X005151Y008679D03*
D13*
X004391Y007899D02*
X005911Y007899D01*
X006631Y008619D01*
X006651Y008679D01*
X006151Y006699D02*
X002151Y006699D01*
X001671Y007179D01*
X001651Y007179D01*
X002651Y005679D02*
X002711Y005659D01*
X002711Y005099D01*
X004631Y003179D01*
X004651Y003179D01*
X004231Y002619D02*
X003671Y002619D01*
X003651Y002679D01*
X004231Y002619D02*
X004631Y002219D01*
X004651Y002179D01*
X002651Y002679D02*
X002631Y002699D01*
X002151Y002699D01*
X001671Y003179D01*
X001651Y003179D01*
X004391Y007899D02*
X003671Y008619D01*
X003651Y008679D01*
X006151Y006699D02*
X006631Y006219D01*
X006651Y006179D01*
M02*
