%
M48
M72
T01C0.0320
T02C0.0354
T03C0.0400
T04C0.0470
%
T01
X1651Y2179
X1651Y3179
X1651Y4179
X1651Y5179
X2651Y5679
X3651Y5679
X4651Y5179
X4651Y4179
X4651Y3179
X4651Y2179
X3651Y2679
X2651Y2679
X2651Y8679
X3651Y8679
T02
X4651Y7179
X1651Y7179
T03
X6651Y6179
X6651Y5179
X6651Y4179
T04
X6651Y8679
X5151Y8679
M30
