G75*
G70*
%OFA0B0*%
%FSLAX24Y24*%
%IPPOS*%
%LPD*%
%AMOC8*
5,1,8,0,0,1.08239X$1,22.5*
%
%ADD10C,0.0000*%
%ADD11C,0.0060*%
%ADD12C,0.0080*%
%ADD13C,0.0010*%
D10*
X000151Y001179D02*
X000151Y010175D01*
X007521Y010175D01*
X007521Y001179D01*
X000151Y001179D01*
D11*
X000394Y002209D02*
X000564Y002209D01*
X000621Y002266D01*
X000564Y002323D01*
X000621Y002379D01*
X000564Y002436D01*
X000394Y002436D01*
X000394Y002578D02*
X000564Y002578D01*
X000621Y002634D01*
X000564Y002691D01*
X000621Y002748D01*
X000564Y002804D01*
X000394Y002804D01*
X000394Y002946D02*
X000564Y002946D01*
X000621Y003003D01*
X000564Y003059D01*
X000621Y003116D01*
X000564Y003173D01*
X000394Y003173D01*
X000564Y003314D02*
X000564Y003371D01*
X000621Y003371D01*
X000621Y003314D01*
X000564Y003314D01*
X000451Y003498D02*
X000451Y003612D01*
X000338Y003555D02*
X000281Y003612D01*
X000338Y003555D02*
X000621Y003555D01*
X000564Y003744D02*
X000508Y003800D01*
X000508Y003971D01*
X000451Y003971D02*
X000621Y003971D01*
X000621Y003800D01*
X000564Y003744D01*
X000394Y003800D02*
X000394Y003914D01*
X000451Y003971D01*
X000394Y004112D02*
X000394Y004282D01*
X000451Y004339D01*
X000621Y004339D01*
X000564Y004480D02*
X000621Y004537D01*
X000621Y004707D01*
X000678Y004707D02*
X000394Y004707D01*
X000394Y004537D01*
X000451Y004480D01*
X000564Y004480D01*
X000735Y004651D02*
X000678Y004707D01*
X000735Y004651D02*
X000735Y004594D01*
X000621Y004849D02*
X000621Y004962D01*
X000621Y004905D02*
X000281Y004905D01*
X000281Y004849D01*
X000451Y005094D02*
X000394Y005151D01*
X000394Y005264D01*
X000451Y005321D01*
X000508Y005321D01*
X000508Y005094D01*
X000564Y005094D02*
X000451Y005094D01*
X000564Y005094D02*
X000621Y005151D01*
X000621Y005264D01*
X000564Y005519D02*
X000621Y005576D01*
X000564Y005519D02*
X000338Y005519D01*
X000394Y005463D02*
X000394Y005576D01*
X000394Y005708D02*
X000621Y005708D01*
X000508Y005708D02*
X000394Y005821D01*
X000394Y005878D01*
X000451Y006015D02*
X000564Y006015D01*
X000621Y006072D01*
X000621Y006185D01*
X000564Y006242D01*
X000451Y006242D01*
X000394Y006185D01*
X000394Y006072D01*
X000451Y006015D01*
X000394Y006383D02*
X000394Y006553D01*
X000451Y006610D01*
X000621Y006610D01*
X000621Y006752D02*
X000621Y006865D01*
X000621Y006808D02*
X000394Y006808D01*
X000394Y006752D01*
X000281Y006808D02*
X000224Y006808D01*
X000451Y006997D02*
X000394Y007054D01*
X000394Y007224D01*
X000451Y007365D02*
X000394Y007422D01*
X000394Y007592D01*
X000508Y007535D02*
X000508Y007422D01*
X000451Y007365D01*
X000621Y007365D02*
X000621Y007535D01*
X000564Y007592D01*
X000508Y007535D01*
X000564Y007734D02*
X000564Y007790D01*
X000621Y007790D01*
X000621Y007734D01*
X000564Y007734D01*
X000564Y007918D02*
X000451Y007918D01*
X000394Y007974D01*
X000394Y008145D01*
X000451Y008286D02*
X000564Y008286D01*
X000621Y008343D01*
X000621Y008456D01*
X000564Y008513D01*
X000451Y008513D01*
X000394Y008456D01*
X000394Y008343D01*
X000451Y008286D01*
X000621Y008145D02*
X000621Y007974D01*
X000564Y007918D01*
X000621Y007224D02*
X000621Y007054D01*
X000564Y006997D01*
X000451Y006997D01*
X000394Y006383D02*
X000621Y006383D01*
X000621Y004112D02*
X000394Y004112D01*
X002151Y002679D02*
X002153Y002742D01*
X002159Y002804D01*
X002169Y002866D01*
X002182Y002928D01*
X002200Y002988D01*
X002221Y003047D01*
X002246Y003105D01*
X002275Y003161D01*
X002307Y003215D01*
X002342Y003267D01*
X002380Y003316D01*
X002422Y003364D01*
X002466Y003408D01*
X002514Y003450D01*
X002563Y003488D01*
X002615Y003523D01*
X002669Y003555D01*
X002725Y003584D01*
X002783Y003609D01*
X002842Y003630D01*
X002902Y003648D01*
X002964Y003661D01*
X003026Y003671D01*
X003088Y003677D01*
X003151Y003679D01*
X003214Y003677D01*
X003276Y003671D01*
X003338Y003661D01*
X003400Y003648D01*
X003460Y003630D01*
X003519Y003609D01*
X003577Y003584D01*
X003633Y003555D01*
X003687Y003523D01*
X003739Y003488D01*
X003788Y003450D01*
X003836Y003408D01*
X003880Y003364D01*
X003922Y003316D01*
X003960Y003267D01*
X003995Y003215D01*
X004027Y003161D01*
X004056Y003105D01*
X004081Y003047D01*
X004102Y002988D01*
X004120Y002928D01*
X004133Y002866D01*
X004143Y002804D01*
X004149Y002742D01*
X004151Y002679D01*
X004149Y002616D01*
X004143Y002554D01*
X004133Y002492D01*
X004120Y002430D01*
X004102Y002370D01*
X004081Y002311D01*
X004056Y002253D01*
X004027Y002197D01*
X003995Y002143D01*
X003960Y002091D01*
X003922Y002042D01*
X003880Y001994D01*
X003836Y001950D01*
X003788Y001908D01*
X003739Y001870D01*
X003687Y001835D01*
X003633Y001803D01*
X003577Y001774D01*
X003519Y001749D01*
X003460Y001728D01*
X003400Y001710D01*
X003338Y001697D01*
X003276Y001687D01*
X003214Y001681D01*
X003151Y001679D01*
X003088Y001681D01*
X003026Y001687D01*
X002964Y001697D01*
X002902Y001710D01*
X002842Y001728D01*
X002783Y001749D01*
X002725Y001774D01*
X002669Y001803D01*
X002615Y001835D01*
X002563Y001870D01*
X002514Y001908D01*
X002466Y001950D01*
X002422Y001994D01*
X002380Y002042D01*
X002342Y002091D01*
X002307Y002143D01*
X002275Y002197D01*
X002246Y002253D01*
X002221Y002311D01*
X002200Y002370D01*
X002182Y002430D01*
X002169Y002492D01*
X002159Y002554D01*
X002153Y002616D01*
X002151Y002679D01*
X002151Y005679D02*
X002153Y005742D01*
X002159Y005804D01*
X002169Y005866D01*
X002182Y005928D01*
X002200Y005988D01*
X002221Y006047D01*
X002246Y006105D01*
X002275Y006161D01*
X002307Y006215D01*
X002342Y006267D01*
X002380Y006316D01*
X002422Y006364D01*
X002466Y006408D01*
X002514Y006450D01*
X002563Y006488D01*
X002615Y006523D01*
X002669Y006555D01*
X002725Y006584D01*
X002783Y006609D01*
X002842Y006630D01*
X002902Y006648D01*
X002964Y006661D01*
X003026Y006671D01*
X003088Y006677D01*
X003151Y006679D01*
X003214Y006677D01*
X003276Y006671D01*
X003338Y006661D01*
X003400Y006648D01*
X003460Y006630D01*
X003519Y006609D01*
X003577Y006584D01*
X003633Y006555D01*
X003687Y006523D01*
X003739Y006488D01*
X003788Y006450D01*
X003836Y006408D01*
X003880Y006364D01*
X003922Y006316D01*
X003960Y006267D01*
X003995Y006215D01*
X004027Y006161D01*
X004056Y006105D01*
X004081Y006047D01*
X004102Y005988D01*
X004120Y005928D01*
X004133Y005866D01*
X004143Y005804D01*
X004149Y005742D01*
X004151Y005679D01*
X004149Y005616D01*
X004143Y005554D01*
X004133Y005492D01*
X004120Y005430D01*
X004102Y005370D01*
X004081Y005311D01*
X004056Y005253D01*
X004027Y005197D01*
X003995Y005143D01*
X003960Y005091D01*
X003922Y005042D01*
X003880Y004994D01*
X003836Y004950D01*
X003788Y004908D01*
X003739Y004870D01*
X003687Y004835D01*
X003633Y004803D01*
X003577Y004774D01*
X003519Y004749D01*
X003460Y004728D01*
X003400Y004710D01*
X003338Y004697D01*
X003276Y004687D01*
X003214Y004681D01*
X003151Y004679D01*
X003088Y004681D01*
X003026Y004687D01*
X002964Y004697D01*
X002902Y004710D01*
X002842Y004728D01*
X002783Y004749D01*
X002725Y004774D01*
X002669Y004803D01*
X002615Y004835D01*
X002563Y004870D01*
X002514Y004908D01*
X002466Y004950D01*
X002422Y004994D01*
X002380Y005042D01*
X002342Y005091D01*
X002307Y005143D01*
X002275Y005197D01*
X002246Y005253D01*
X002221Y005311D01*
X002200Y005370D01*
X002182Y005430D01*
X002169Y005492D01*
X002159Y005554D01*
X002153Y005616D01*
X002151Y005679D01*
X002151Y008679D02*
X002153Y008742D01*
X002159Y008804D01*
X002169Y008866D01*
X002182Y008928D01*
X002200Y008988D01*
X002221Y009047D01*
X002246Y009105D01*
X002275Y009161D01*
X002307Y009215D01*
X002342Y009267D01*
X002380Y009316D01*
X002422Y009364D01*
X002466Y009408D01*
X002514Y009450D01*
X002563Y009488D01*
X002615Y009523D01*
X002669Y009555D01*
X002725Y009584D01*
X002783Y009609D01*
X002842Y009630D01*
X002902Y009648D01*
X002964Y009661D01*
X003026Y009671D01*
X003088Y009677D01*
X003151Y009679D01*
X003214Y009677D01*
X003276Y009671D01*
X003338Y009661D01*
X003400Y009648D01*
X003460Y009630D01*
X003519Y009609D01*
X003577Y009584D01*
X003633Y009555D01*
X003687Y009523D01*
X003739Y009488D01*
X003788Y009450D01*
X003836Y009408D01*
X003880Y009364D01*
X003922Y009316D01*
X003960Y009267D01*
X003995Y009215D01*
X004027Y009161D01*
X004056Y009105D01*
X004081Y009047D01*
X004102Y008988D01*
X004120Y008928D01*
X004133Y008866D01*
X004143Y008804D01*
X004149Y008742D01*
X004151Y008679D01*
X004149Y008616D01*
X004143Y008554D01*
X004133Y008492D01*
X004120Y008430D01*
X004102Y008370D01*
X004081Y008311D01*
X004056Y008253D01*
X004027Y008197D01*
X003995Y008143D01*
X003960Y008091D01*
X003922Y008042D01*
X003880Y007994D01*
X003836Y007950D01*
X003788Y007908D01*
X003739Y007870D01*
X003687Y007835D01*
X003633Y007803D01*
X003577Y007774D01*
X003519Y007749D01*
X003460Y007728D01*
X003400Y007710D01*
X003338Y007697D01*
X003276Y007687D01*
X003214Y007681D01*
X003151Y007679D01*
X003088Y007681D01*
X003026Y007687D01*
X002964Y007697D01*
X002902Y007710D01*
X002842Y007728D01*
X002783Y007749D01*
X002725Y007774D01*
X002669Y007803D01*
X002615Y007835D01*
X002563Y007870D01*
X002514Y007908D01*
X002466Y007950D01*
X002422Y007994D01*
X002380Y008042D01*
X002342Y008091D01*
X002307Y008143D01*
X002275Y008197D01*
X002246Y008253D01*
X002221Y008311D01*
X002200Y008370D01*
X002182Y008430D01*
X002169Y008492D01*
X002159Y008554D01*
X002153Y008616D01*
X002151Y008679D01*
X000621Y008654D02*
X000394Y008654D01*
X000394Y008711D01*
X000451Y008768D01*
X000394Y008825D01*
X000451Y008881D01*
X000621Y008881D01*
X000621Y008768D02*
X000451Y008768D01*
X004551Y009079D02*
X004551Y009279D01*
X004751Y009279D01*
X005551Y009279D02*
X005751Y009279D01*
X005751Y009079D01*
X006051Y009079D02*
X006051Y009279D01*
X006251Y009279D01*
X007051Y009279D02*
X007251Y009279D01*
X007251Y009079D01*
X007251Y008279D02*
X007251Y008079D01*
X007051Y008079D01*
X006251Y008079D02*
X006051Y008079D01*
X006051Y008279D01*
X005751Y008279D02*
X005751Y008079D01*
X005551Y008079D01*
X004751Y008079D02*
X004551Y008079D01*
X004551Y008279D01*
D12*
X004151Y007929D02*
X004151Y009429D01*
X002901Y008140D02*
X002971Y008069D01*
X002971Y007929D01*
X002901Y007859D01*
X002691Y007859D01*
X002691Y007719D02*
X002691Y008140D01*
X002901Y008140D01*
X002831Y007859D02*
X002971Y007719D01*
X004151Y006429D02*
X004151Y004929D01*
X002971Y005069D02*
X002971Y005140D01*
X002971Y005069D02*
X002831Y004929D01*
X002831Y004719D01*
X002831Y004929D02*
X002691Y005069D01*
X002691Y005140D01*
X004151Y003429D02*
X004151Y001929D01*
X002971Y001929D02*
X002971Y001789D01*
X002901Y001719D01*
X002761Y001719D01*
X002691Y001789D01*
X002691Y002069D01*
X002761Y002140D01*
X002901Y002140D01*
X002971Y002069D01*
X002971Y001929D02*
X002831Y001929D01*
X005795Y002890D02*
X007507Y002890D01*
X007507Y007469D01*
X005795Y007469D01*
X005795Y002890D01*
D13*
X004183Y003459D02*
X004111Y003405D01*
X004112Y003406D02*
X004069Y003459D01*
X004024Y003510D01*
X003975Y003558D01*
X003924Y003603D01*
X003870Y003646D01*
X003814Y003685D01*
X003756Y003721D01*
X003696Y003754D01*
X003635Y003783D01*
X003571Y003808D01*
X003507Y003830D01*
X003441Y003849D01*
X003374Y003863D01*
X003307Y003874D01*
X003239Y003881D01*
X003171Y003884D01*
X003102Y003883D01*
X003034Y003878D01*
X002966Y003870D01*
X002899Y003857D01*
X002833Y003841D01*
X002768Y003821D01*
X002703Y003798D01*
X002641Y003771D01*
X002580Y003740D01*
X002521Y003706D01*
X002463Y003669D01*
X002408Y003628D01*
X002356Y003584D01*
X002306Y003538D01*
X002259Y003489D01*
X002214Y003437D01*
X002173Y003383D01*
X002134Y003326D01*
X002099Y003267D01*
X002068Y003207D01*
X002040Y003145D01*
X002015Y003081D01*
X001994Y003016D01*
X001977Y002950D01*
X001963Y002883D01*
X001954Y002815D01*
X001948Y002747D01*
X001946Y002679D01*
X001948Y002611D01*
X001954Y002543D01*
X001963Y002475D01*
X001977Y002408D01*
X001994Y002342D01*
X002015Y002277D01*
X002040Y002213D01*
X002068Y002151D01*
X002099Y002091D01*
X002134Y002032D01*
X002173Y001975D01*
X002214Y001921D01*
X002259Y001869D01*
X002306Y001820D01*
X002356Y001774D01*
X002408Y001730D01*
X002463Y001689D01*
X002521Y001652D01*
X002580Y001618D01*
X002641Y001587D01*
X002703Y001560D01*
X002768Y001537D01*
X002833Y001517D01*
X002899Y001501D01*
X002966Y001488D01*
X003034Y001480D01*
X003102Y001475D01*
X003171Y001474D01*
X003239Y001477D01*
X003307Y001484D01*
X003374Y001495D01*
X003441Y001509D01*
X003507Y001528D01*
X003571Y001550D01*
X003635Y001575D01*
X003696Y001604D01*
X003756Y001637D01*
X003814Y001673D01*
X003870Y001712D01*
X003924Y001755D01*
X003975Y001800D01*
X004024Y001848D01*
X004069Y001899D01*
X004112Y001952D01*
X004183Y001899D01*
X004184Y001898D01*
X004140Y001843D01*
X004092Y001790D01*
X004042Y001739D01*
X003989Y001692D01*
X003934Y001648D01*
X003876Y001606D01*
X003816Y001568D01*
X003755Y001533D01*
X003691Y001502D01*
X003626Y001474D01*
X003559Y001450D01*
X003491Y001429D01*
X003422Y001413D01*
X003352Y001400D01*
X003282Y001391D01*
X003211Y001385D01*
X003140Y001384D01*
X003069Y001387D01*
X002998Y001393D01*
X002928Y001403D01*
X002859Y001417D01*
X002790Y001435D01*
X002722Y001457D01*
X002656Y001482D01*
X002591Y001511D01*
X002528Y001544D01*
X002467Y001580D01*
X002408Y001619D01*
X002351Y001661D01*
X002296Y001706D01*
X002244Y001755D01*
X002195Y001806D01*
X002148Y001859D01*
X002105Y001916D01*
X002065Y001974D01*
X002028Y002035D01*
X001994Y002097D01*
X001964Y002161D01*
X001937Y002227D01*
X001914Y002294D01*
X001895Y002363D01*
X001880Y002432D01*
X001868Y002502D01*
X001860Y002573D01*
X001856Y002644D01*
X001856Y002714D01*
X001860Y002785D01*
X001868Y002856D01*
X001880Y002926D01*
X001895Y002995D01*
X001914Y003064D01*
X001937Y003131D01*
X001964Y003197D01*
X001994Y003261D01*
X002028Y003323D01*
X002065Y003384D01*
X002105Y003442D01*
X002148Y003499D01*
X002195Y003552D01*
X002244Y003603D01*
X002296Y003652D01*
X002351Y003697D01*
X002408Y003739D01*
X002467Y003778D01*
X002528Y003814D01*
X002591Y003847D01*
X002656Y003876D01*
X002722Y003901D01*
X002790Y003923D01*
X002859Y003941D01*
X002928Y003955D01*
X002998Y003965D01*
X003069Y003971D01*
X003140Y003974D01*
X003211Y003973D01*
X003282Y003967D01*
X003352Y003958D01*
X003422Y003945D01*
X003491Y003929D01*
X003559Y003908D01*
X003626Y003884D01*
X003691Y003856D01*
X003755Y003825D01*
X003816Y003790D01*
X003876Y003752D01*
X003934Y003710D01*
X003989Y003666D01*
X004042Y003619D01*
X004092Y003568D01*
X004140Y003515D01*
X004184Y003460D01*
X004177Y003455D01*
X004132Y003510D01*
X004085Y003563D01*
X004034Y003614D01*
X003981Y003661D01*
X003925Y003706D01*
X003867Y003747D01*
X003807Y003785D01*
X003745Y003820D01*
X003681Y003851D01*
X003615Y003878D01*
X003548Y003902D01*
X003479Y003922D01*
X003410Y003939D01*
X003340Y003951D01*
X003269Y003960D01*
X003198Y003964D01*
X003127Y003965D01*
X003056Y003961D01*
X002985Y003954D01*
X002914Y003943D01*
X002845Y003928D01*
X002776Y003909D01*
X002708Y003886D01*
X002642Y003860D01*
X002577Y003830D01*
X002515Y003796D01*
X002454Y003760D01*
X002395Y003719D01*
X002338Y003676D01*
X002284Y003629D01*
X002233Y003580D01*
X002185Y003527D01*
X002139Y003473D01*
X002097Y003415D01*
X002058Y003356D01*
X002022Y003294D01*
X001989Y003231D01*
X001961Y003166D01*
X001935Y003099D01*
X001914Y003031D01*
X001896Y002962D01*
X001883Y002892D01*
X001873Y002821D01*
X001867Y002750D01*
X001865Y002679D01*
X001867Y002608D01*
X001873Y002537D01*
X001883Y002466D01*
X001896Y002396D01*
X001914Y002327D01*
X001935Y002259D01*
X001961Y002192D01*
X001989Y002127D01*
X002022Y002064D01*
X002058Y002002D01*
X002097Y001943D01*
X002139Y001885D01*
X002185Y001831D01*
X002233Y001778D01*
X002284Y001729D01*
X002338Y001682D01*
X002395Y001639D01*
X002454Y001598D01*
X002515Y001562D01*
X002577Y001528D01*
X002642Y001498D01*
X002708Y001472D01*
X002776Y001449D01*
X002845Y001430D01*
X002914Y001415D01*
X002985Y001404D01*
X003056Y001397D01*
X003127Y001393D01*
X003198Y001394D01*
X003269Y001398D01*
X003340Y001407D01*
X003410Y001419D01*
X003479Y001436D01*
X003548Y001456D01*
X003615Y001480D01*
X003681Y001507D01*
X003745Y001538D01*
X003807Y001573D01*
X003867Y001611D01*
X003925Y001652D01*
X003981Y001697D01*
X004034Y001744D01*
X004085Y001795D01*
X004132Y001848D01*
X004177Y001903D01*
X004170Y001909D01*
X004125Y001854D01*
X004078Y001801D01*
X004028Y001751D01*
X003975Y001704D01*
X003920Y001660D01*
X003862Y001618D01*
X003803Y001581D01*
X003741Y001546D01*
X003677Y001515D01*
X003612Y001488D01*
X003545Y001464D01*
X003477Y001444D01*
X003408Y001428D01*
X003339Y001416D01*
X003268Y001407D01*
X003198Y001403D01*
X003127Y001402D01*
X003056Y001406D01*
X002986Y001413D01*
X002916Y001424D01*
X002847Y001439D01*
X002779Y001458D01*
X002711Y001480D01*
X002646Y001506D01*
X002581Y001536D01*
X002519Y001569D01*
X002459Y001606D01*
X002400Y001646D01*
X002344Y001689D01*
X002290Y001735D01*
X002240Y001785D01*
X002191Y001836D01*
X002146Y001891D01*
X002104Y001948D01*
X002065Y002007D01*
X002030Y002068D01*
X001997Y002131D01*
X001969Y002196D01*
X001944Y002262D01*
X001923Y002330D01*
X001905Y002398D01*
X001892Y002468D01*
X001882Y002538D01*
X001876Y002608D01*
X001874Y002679D01*
X001876Y002750D01*
X001882Y002820D01*
X001892Y002890D01*
X001905Y002960D01*
X001923Y003028D01*
X001944Y003096D01*
X001969Y003162D01*
X001997Y003227D01*
X002030Y003290D01*
X002065Y003351D01*
X002104Y003410D01*
X002146Y003467D01*
X002191Y003522D01*
X002240Y003573D01*
X002290Y003623D01*
X002344Y003669D01*
X002400Y003712D01*
X002459Y003752D01*
X002519Y003789D01*
X002581Y003822D01*
X002646Y003852D01*
X002711Y003878D01*
X002779Y003900D01*
X002847Y003919D01*
X002916Y003934D01*
X002986Y003945D01*
X003056Y003952D01*
X003127Y003956D01*
X003198Y003955D01*
X003268Y003951D01*
X003339Y003942D01*
X003408Y003930D01*
X003477Y003914D01*
X003545Y003894D01*
X003612Y003870D01*
X003677Y003843D01*
X003741Y003812D01*
X003803Y003777D01*
X003862Y003740D01*
X003920Y003698D01*
X003975Y003654D01*
X004028Y003607D01*
X004078Y003557D01*
X004125Y003504D01*
X004170Y003449D01*
X004162Y003444D01*
X004118Y003499D01*
X004070Y003552D01*
X004020Y003602D01*
X003967Y003650D01*
X003911Y003694D01*
X003853Y003735D01*
X003793Y003772D01*
X003731Y003807D01*
X003667Y003837D01*
X003601Y003864D01*
X003534Y003888D01*
X003466Y003907D01*
X003396Y003923D01*
X003326Y003935D01*
X003256Y003943D01*
X003185Y003947D01*
X003114Y003946D01*
X003043Y003942D01*
X002972Y003934D01*
X002902Y003922D01*
X002833Y003906D01*
X002765Y003887D01*
X002697Y003863D01*
X002632Y003836D01*
X002568Y003805D01*
X002506Y003771D01*
X002446Y003733D01*
X002388Y003691D01*
X002332Y003647D01*
X002279Y003600D01*
X002229Y003549D01*
X002182Y003496D01*
X002137Y003441D01*
X002096Y003383D01*
X002059Y003323D01*
X002024Y003260D01*
X001993Y003196D01*
X001966Y003131D01*
X001943Y003064D01*
X001923Y002995D01*
X001907Y002926D01*
X001895Y002856D01*
X001887Y002785D01*
X001883Y002715D01*
X001883Y002643D01*
X001887Y002573D01*
X001895Y002502D01*
X001907Y002432D01*
X001923Y002363D01*
X001943Y002294D01*
X001966Y002227D01*
X001993Y002162D01*
X002024Y002098D01*
X002059Y002035D01*
X002096Y001975D01*
X002137Y001917D01*
X002182Y001862D01*
X002229Y001809D01*
X002279Y001758D01*
X002332Y001711D01*
X002388Y001667D01*
X002446Y001625D01*
X002506Y001587D01*
X002568Y001553D01*
X002632Y001522D01*
X002697Y001495D01*
X002765Y001471D01*
X002833Y001452D01*
X002902Y001436D01*
X002972Y001424D01*
X003043Y001416D01*
X003114Y001412D01*
X003185Y001411D01*
X003256Y001415D01*
X003326Y001423D01*
X003396Y001435D01*
X003466Y001451D01*
X003534Y001470D01*
X003601Y001494D01*
X003667Y001521D01*
X003731Y001551D01*
X003793Y001586D01*
X003853Y001623D01*
X003911Y001664D01*
X003967Y001708D01*
X004020Y001756D01*
X004070Y001806D01*
X004118Y001859D01*
X004162Y001914D01*
X004155Y001920D01*
X004111Y001865D01*
X004064Y001812D01*
X004014Y001762D01*
X003961Y001715D01*
X003906Y001671D01*
X003848Y001631D01*
X003789Y001593D01*
X003727Y001559D01*
X003663Y001529D01*
X003598Y001502D01*
X003531Y001479D01*
X003463Y001459D01*
X003395Y001444D01*
X003325Y001432D01*
X003255Y001424D01*
X003184Y001420D01*
X003114Y001421D01*
X003043Y001425D01*
X002973Y001433D01*
X002904Y001445D01*
X002835Y001460D01*
X002767Y001480D01*
X002701Y001503D01*
X002636Y001530D01*
X002572Y001561D01*
X002510Y001595D01*
X002451Y001633D01*
X002393Y001674D01*
X002338Y001718D01*
X002285Y001765D01*
X002236Y001815D01*
X002189Y001867D01*
X002145Y001923D01*
X002104Y001980D01*
X002066Y002040D01*
X002032Y002102D01*
X002002Y002165D01*
X001975Y002230D01*
X001951Y002297D01*
X001932Y002365D01*
X001916Y002434D01*
X001904Y002503D01*
X001896Y002573D01*
X001892Y002644D01*
X001892Y002714D01*
X001896Y002785D01*
X001904Y002855D01*
X001916Y002924D01*
X001932Y002993D01*
X001951Y003061D01*
X001975Y003128D01*
X002002Y003193D01*
X002032Y003256D01*
X002066Y003318D01*
X002104Y003378D01*
X002145Y003435D01*
X002189Y003491D01*
X002236Y003543D01*
X002285Y003593D01*
X002338Y003640D01*
X002393Y003684D01*
X002451Y003725D01*
X002510Y003763D01*
X002572Y003797D01*
X002636Y003828D01*
X002701Y003855D01*
X002767Y003878D01*
X002835Y003898D01*
X002904Y003913D01*
X002973Y003925D01*
X003043Y003933D01*
X003114Y003937D01*
X003184Y003938D01*
X003255Y003934D01*
X003325Y003926D01*
X003395Y003914D01*
X003463Y003899D01*
X003531Y003879D01*
X003598Y003856D01*
X003663Y003829D01*
X003727Y003799D01*
X003789Y003765D01*
X003848Y003727D01*
X003906Y003687D01*
X003961Y003643D01*
X004014Y003596D01*
X004064Y003546D01*
X004111Y003493D01*
X004155Y003438D01*
X004148Y003433D01*
X004104Y003488D01*
X004057Y003540D01*
X004008Y003589D01*
X003955Y003636D01*
X003901Y003679D01*
X003843Y003720D01*
X003784Y003757D01*
X003723Y003791D01*
X003659Y003821D01*
X003595Y003848D01*
X003528Y003871D01*
X003461Y003890D01*
X003393Y003905D01*
X003324Y003917D01*
X003254Y003925D01*
X003184Y003929D01*
X003114Y003928D01*
X003044Y003924D01*
X002975Y003916D01*
X002906Y003905D01*
X002837Y003889D01*
X002770Y003870D01*
X002704Y003846D01*
X002639Y003819D01*
X002576Y003789D01*
X002515Y003755D01*
X002456Y003718D01*
X002398Y003677D01*
X002344Y003633D01*
X002292Y003587D01*
X002242Y003537D01*
X002195Y003485D01*
X002152Y003430D01*
X002111Y003373D01*
X002074Y003314D01*
X002040Y003252D01*
X002010Y003189D01*
X001983Y003124D01*
X001960Y003058D01*
X001941Y002991D01*
X001925Y002923D01*
X001913Y002854D01*
X001905Y002784D01*
X001901Y002714D01*
X001901Y002644D01*
X001905Y002574D01*
X001913Y002504D01*
X001925Y002435D01*
X001941Y002367D01*
X001960Y002300D01*
X001983Y002234D01*
X002010Y002169D01*
X002040Y002106D01*
X002074Y002044D01*
X002111Y001985D01*
X002152Y001928D01*
X002195Y001873D01*
X002242Y001821D01*
X002292Y001771D01*
X002344Y001725D01*
X002398Y001681D01*
X002456Y001640D01*
X002515Y001603D01*
X002576Y001569D01*
X002639Y001539D01*
X002704Y001512D01*
X002770Y001488D01*
X002837Y001469D01*
X002906Y001453D01*
X002975Y001442D01*
X003044Y001434D01*
X003114Y001430D01*
X003184Y001429D01*
X003254Y001433D01*
X003324Y001441D01*
X003393Y001453D01*
X003461Y001468D01*
X003528Y001487D01*
X003595Y001510D01*
X003659Y001537D01*
X003723Y001567D01*
X003784Y001601D01*
X003843Y001638D01*
X003901Y001679D01*
X003955Y001722D01*
X004008Y001769D01*
X004057Y001818D01*
X004104Y001870D01*
X004148Y001925D01*
X004141Y001930D01*
X004097Y001876D01*
X004051Y001824D01*
X004002Y001775D01*
X003950Y001729D01*
X003895Y001686D01*
X003838Y001646D01*
X003779Y001609D01*
X003718Y001575D01*
X003656Y001545D01*
X003591Y001519D01*
X003526Y001496D01*
X003459Y001477D01*
X003391Y001461D01*
X003322Y001450D01*
X003253Y001442D01*
X003184Y001438D01*
X003114Y001439D01*
X003045Y001443D01*
X002976Y001450D01*
X002907Y001462D01*
X002840Y001478D01*
X002773Y001497D01*
X002707Y001520D01*
X002643Y001547D01*
X002580Y001577D01*
X002519Y001611D01*
X002461Y001648D01*
X002404Y001688D01*
X002350Y001731D01*
X002298Y001778D01*
X002249Y001827D01*
X002202Y001879D01*
X002159Y001933D01*
X002119Y001990D01*
X002082Y002049D01*
X002048Y002110D01*
X002018Y002173D01*
X001991Y002237D01*
X001968Y002302D01*
X001949Y002369D01*
X001934Y002437D01*
X001922Y002506D01*
X001914Y002575D01*
X001910Y002644D01*
X001910Y002714D01*
X001914Y002783D01*
X001922Y002852D01*
X001934Y002921D01*
X001949Y002989D01*
X001968Y003056D01*
X001991Y003121D01*
X002018Y003185D01*
X002048Y003248D01*
X002082Y003309D01*
X002119Y003368D01*
X002159Y003425D01*
X002202Y003479D01*
X002249Y003531D01*
X002298Y003580D01*
X002350Y003627D01*
X002404Y003670D01*
X002461Y003710D01*
X002519Y003747D01*
X002580Y003781D01*
X002643Y003811D01*
X002707Y003838D01*
X002773Y003861D01*
X002840Y003880D01*
X002907Y003896D01*
X002976Y003908D01*
X003045Y003915D01*
X003114Y003919D01*
X003184Y003920D01*
X003253Y003916D01*
X003322Y003908D01*
X003391Y003897D01*
X003459Y003881D01*
X003526Y003862D01*
X003591Y003839D01*
X003656Y003813D01*
X003718Y003783D01*
X003779Y003749D01*
X003838Y003712D01*
X003895Y003672D01*
X003950Y003629D01*
X004002Y003583D01*
X004051Y003534D01*
X004097Y003482D01*
X004141Y003428D01*
X004134Y003422D01*
X004090Y003476D01*
X004044Y003527D01*
X003995Y003576D01*
X003944Y003622D01*
X003890Y003665D01*
X003833Y003705D01*
X003775Y003741D01*
X003714Y003775D01*
X003652Y003805D01*
X003588Y003831D01*
X003523Y003853D01*
X003457Y003872D01*
X003389Y003888D01*
X003321Y003899D01*
X003253Y003907D01*
X003184Y003911D01*
X003115Y003910D01*
X003046Y003906D01*
X002977Y003899D01*
X002909Y003887D01*
X002842Y003872D01*
X002775Y003852D01*
X002710Y003829D01*
X002647Y003803D01*
X002584Y003773D01*
X002524Y003740D01*
X002466Y003703D01*
X002409Y003663D01*
X002355Y003620D01*
X002304Y003574D01*
X002255Y003525D01*
X002209Y003473D01*
X002166Y003419D01*
X002126Y003363D01*
X002090Y003304D01*
X002056Y003244D01*
X002026Y003182D01*
X002000Y003118D01*
X001977Y003053D01*
X001958Y002986D01*
X001943Y002919D01*
X001931Y002851D01*
X001923Y002782D01*
X001919Y002714D01*
X001919Y002644D01*
X001923Y002576D01*
X001931Y002507D01*
X001943Y002439D01*
X001958Y002372D01*
X001977Y002305D01*
X002000Y002240D01*
X002026Y002176D01*
X002056Y002114D01*
X002090Y002054D01*
X002126Y001995D01*
X002166Y001939D01*
X002209Y001885D01*
X002255Y001833D01*
X002304Y001784D01*
X002355Y001738D01*
X002409Y001695D01*
X002466Y001655D01*
X002524Y001618D01*
X002584Y001585D01*
X002647Y001555D01*
X002710Y001529D01*
X002775Y001506D01*
X002842Y001486D01*
X002909Y001471D01*
X002977Y001459D01*
X003046Y001452D01*
X003115Y001448D01*
X003184Y001447D01*
X003253Y001451D01*
X003321Y001459D01*
X003389Y001470D01*
X003457Y001486D01*
X003523Y001505D01*
X003588Y001527D01*
X003652Y001553D01*
X003714Y001583D01*
X003775Y001617D01*
X003833Y001653D01*
X003890Y001693D01*
X003944Y001736D01*
X003995Y001782D01*
X004044Y001831D01*
X004090Y001882D01*
X004134Y001936D01*
X004126Y001941D01*
X004083Y001887D01*
X004037Y001836D01*
X003987Y001787D01*
X003936Y001741D01*
X003881Y001698D01*
X003824Y001658D01*
X003766Y001622D01*
X003705Y001588D01*
X003642Y001559D01*
X003578Y001533D01*
X003512Y001511D01*
X003445Y001492D01*
X003378Y001477D01*
X003309Y001466D01*
X003240Y001459D01*
X003171Y001456D01*
X003102Y001457D01*
X003032Y001462D01*
X002964Y001470D01*
X002896Y001483D01*
X002828Y001499D01*
X002762Y001520D01*
X002697Y001543D01*
X002633Y001571D01*
X002571Y001602D01*
X002511Y001637D01*
X002453Y001675D01*
X002397Y001716D01*
X002344Y001760D01*
X002293Y001807D01*
X002245Y001857D01*
X002200Y001910D01*
X002158Y001965D01*
X002119Y002022D01*
X002084Y002082D01*
X002052Y002143D01*
X002023Y002206D01*
X001998Y002271D01*
X001977Y002337D01*
X001959Y002404D01*
X001946Y002472D01*
X001936Y002541D01*
X001930Y002610D01*
X001928Y002679D01*
X001930Y002748D01*
X001936Y002817D01*
X001946Y002886D01*
X001959Y002954D01*
X001977Y003021D01*
X001998Y003087D01*
X002023Y003152D01*
X002052Y003215D01*
X002084Y003276D01*
X002119Y003336D01*
X002158Y003393D01*
X002200Y003448D01*
X002245Y003501D01*
X002293Y003551D01*
X002344Y003598D01*
X002397Y003642D01*
X002453Y003683D01*
X002511Y003721D01*
X002571Y003756D01*
X002633Y003787D01*
X002697Y003815D01*
X002762Y003838D01*
X002828Y003859D01*
X002896Y003875D01*
X002964Y003888D01*
X003032Y003896D01*
X003102Y003901D01*
X003171Y003902D01*
X003240Y003899D01*
X003309Y003892D01*
X003378Y003881D01*
X003445Y003866D01*
X003512Y003847D01*
X003578Y003825D01*
X003642Y003799D01*
X003705Y003770D01*
X003766Y003736D01*
X003824Y003700D01*
X003881Y003660D01*
X003936Y003617D01*
X003987Y003571D01*
X004037Y003522D01*
X004083Y003471D01*
X004126Y003417D01*
X004119Y003411D01*
X004076Y003465D01*
X004030Y003516D01*
X003981Y003565D01*
X003930Y003610D01*
X003876Y003653D01*
X003819Y003692D01*
X003761Y003729D01*
X003701Y003762D01*
X003638Y003791D01*
X003575Y003817D01*
X003509Y003839D01*
X003443Y003857D01*
X003376Y003872D01*
X003308Y003883D01*
X003239Y003890D01*
X003171Y003893D01*
X003102Y003892D01*
X003033Y003887D01*
X002965Y003879D01*
X002897Y003866D01*
X002831Y003850D01*
X002765Y003830D01*
X002700Y003806D01*
X002637Y003779D01*
X002576Y003748D01*
X002516Y003714D01*
X002458Y003676D01*
X002403Y003635D01*
X002350Y003591D01*
X002300Y003544D01*
X002252Y003495D01*
X002207Y003443D01*
X002165Y003388D01*
X002127Y003331D01*
X002092Y003272D01*
X002060Y003211D01*
X002031Y003148D01*
X002007Y003084D01*
X001985Y003018D01*
X001968Y002952D01*
X001955Y002884D01*
X001945Y002816D01*
X001939Y002748D01*
X001937Y002679D01*
X001939Y002610D01*
X001945Y002542D01*
X001955Y002474D01*
X001968Y002406D01*
X001985Y002340D01*
X002007Y002274D01*
X002031Y002210D01*
X002060Y002147D01*
X002092Y002086D01*
X002127Y002027D01*
X002165Y001970D01*
X002207Y001915D01*
X002252Y001863D01*
X002300Y001814D01*
X002350Y001767D01*
X002403Y001723D01*
X002458Y001682D01*
X002516Y001644D01*
X002576Y001610D01*
X002637Y001579D01*
X002700Y001552D01*
X002765Y001528D01*
X002831Y001508D01*
X002897Y001492D01*
X002965Y001479D01*
X003033Y001471D01*
X003102Y001466D01*
X003171Y001465D01*
X003239Y001468D01*
X003308Y001475D01*
X003376Y001486D01*
X003443Y001501D01*
X003509Y001519D01*
X003575Y001541D01*
X003638Y001567D01*
X003701Y001596D01*
X003761Y001629D01*
X003819Y001666D01*
X003876Y001705D01*
X003930Y001748D01*
X003981Y001793D01*
X004030Y001842D01*
X004076Y001893D01*
X004119Y001947D01*
X004183Y006459D02*
X004111Y006405D01*
X004112Y006406D02*
X004069Y006459D01*
X004024Y006510D01*
X003975Y006558D01*
X003924Y006603D01*
X003870Y006646D01*
X003814Y006685D01*
X003756Y006721D01*
X003696Y006754D01*
X003635Y006783D01*
X003571Y006808D01*
X003507Y006830D01*
X003441Y006849D01*
X003374Y006863D01*
X003307Y006874D01*
X003239Y006881D01*
X003171Y006884D01*
X003102Y006883D01*
X003034Y006878D01*
X002966Y006870D01*
X002899Y006857D01*
X002833Y006841D01*
X002768Y006821D01*
X002703Y006798D01*
X002641Y006771D01*
X002580Y006740D01*
X002521Y006706D01*
X002463Y006669D01*
X002408Y006628D01*
X002356Y006584D01*
X002306Y006538D01*
X002259Y006489D01*
X002214Y006437D01*
X002173Y006383D01*
X002134Y006326D01*
X002099Y006267D01*
X002068Y006207D01*
X002040Y006145D01*
X002015Y006081D01*
X001994Y006016D01*
X001977Y005950D01*
X001963Y005883D01*
X001954Y005815D01*
X001948Y005747D01*
X001946Y005679D01*
X001948Y005611D01*
X001954Y005543D01*
X001963Y005475D01*
X001977Y005408D01*
X001994Y005342D01*
X002015Y005277D01*
X002040Y005213D01*
X002068Y005151D01*
X002099Y005091D01*
X002134Y005032D01*
X002173Y004975D01*
X002214Y004921D01*
X002259Y004869D01*
X002306Y004820D01*
X002356Y004774D01*
X002408Y004730D01*
X002463Y004689D01*
X002521Y004652D01*
X002580Y004618D01*
X002641Y004587D01*
X002703Y004560D01*
X002768Y004537D01*
X002833Y004517D01*
X002899Y004501D01*
X002966Y004488D01*
X003034Y004480D01*
X003102Y004475D01*
X003171Y004474D01*
X003239Y004477D01*
X003307Y004484D01*
X003374Y004495D01*
X003441Y004509D01*
X003507Y004528D01*
X003571Y004550D01*
X003635Y004575D01*
X003696Y004604D01*
X003756Y004637D01*
X003814Y004673D01*
X003870Y004712D01*
X003924Y004755D01*
X003975Y004800D01*
X004024Y004848D01*
X004069Y004899D01*
X004112Y004952D01*
X004183Y004899D01*
X004184Y004898D01*
X004140Y004843D01*
X004092Y004790D01*
X004042Y004739D01*
X003989Y004692D01*
X003934Y004648D01*
X003876Y004606D01*
X003816Y004568D01*
X003755Y004533D01*
X003691Y004502D01*
X003626Y004474D01*
X003559Y004450D01*
X003491Y004429D01*
X003422Y004413D01*
X003352Y004400D01*
X003282Y004391D01*
X003211Y004385D01*
X003140Y004384D01*
X003069Y004387D01*
X002998Y004393D01*
X002928Y004403D01*
X002859Y004417D01*
X002790Y004435D01*
X002722Y004457D01*
X002656Y004482D01*
X002591Y004511D01*
X002528Y004544D01*
X002467Y004580D01*
X002408Y004619D01*
X002351Y004661D01*
X002296Y004706D01*
X002244Y004755D01*
X002195Y004806D01*
X002148Y004859D01*
X002105Y004916D01*
X002065Y004974D01*
X002028Y005035D01*
X001994Y005097D01*
X001964Y005161D01*
X001937Y005227D01*
X001914Y005294D01*
X001895Y005363D01*
X001880Y005432D01*
X001868Y005502D01*
X001860Y005573D01*
X001856Y005644D01*
X001856Y005714D01*
X001860Y005785D01*
X001868Y005856D01*
X001880Y005926D01*
X001895Y005995D01*
X001914Y006064D01*
X001937Y006131D01*
X001964Y006197D01*
X001994Y006261D01*
X002028Y006323D01*
X002065Y006384D01*
X002105Y006442D01*
X002148Y006499D01*
X002195Y006552D01*
X002244Y006603D01*
X002296Y006652D01*
X002351Y006697D01*
X002408Y006739D01*
X002467Y006778D01*
X002528Y006814D01*
X002591Y006847D01*
X002656Y006876D01*
X002722Y006901D01*
X002790Y006923D01*
X002859Y006941D01*
X002928Y006955D01*
X002998Y006965D01*
X003069Y006971D01*
X003140Y006974D01*
X003211Y006973D01*
X003282Y006967D01*
X003352Y006958D01*
X003422Y006945D01*
X003491Y006929D01*
X003559Y006908D01*
X003626Y006884D01*
X003691Y006856D01*
X003755Y006825D01*
X003816Y006790D01*
X003876Y006752D01*
X003934Y006710D01*
X003989Y006666D01*
X004042Y006619D01*
X004092Y006568D01*
X004140Y006515D01*
X004184Y006460D01*
X004177Y006455D01*
X004132Y006510D01*
X004085Y006563D01*
X004034Y006614D01*
X003981Y006661D01*
X003925Y006706D01*
X003867Y006747D01*
X003807Y006785D01*
X003745Y006820D01*
X003681Y006851D01*
X003615Y006878D01*
X003548Y006902D01*
X003479Y006922D01*
X003410Y006939D01*
X003340Y006951D01*
X003269Y006960D01*
X003198Y006964D01*
X003127Y006965D01*
X003056Y006961D01*
X002985Y006954D01*
X002914Y006943D01*
X002845Y006928D01*
X002776Y006909D01*
X002708Y006886D01*
X002642Y006860D01*
X002577Y006830D01*
X002515Y006796D01*
X002454Y006760D01*
X002395Y006719D01*
X002338Y006676D01*
X002284Y006629D01*
X002233Y006580D01*
X002185Y006527D01*
X002139Y006473D01*
X002097Y006415D01*
X002058Y006356D01*
X002022Y006294D01*
X001989Y006231D01*
X001961Y006166D01*
X001935Y006099D01*
X001914Y006031D01*
X001896Y005962D01*
X001883Y005892D01*
X001873Y005821D01*
X001867Y005750D01*
X001865Y005679D01*
X001867Y005608D01*
X001873Y005537D01*
X001883Y005466D01*
X001896Y005396D01*
X001914Y005327D01*
X001935Y005259D01*
X001961Y005192D01*
X001989Y005127D01*
X002022Y005064D01*
X002058Y005002D01*
X002097Y004943D01*
X002139Y004885D01*
X002185Y004831D01*
X002233Y004778D01*
X002284Y004729D01*
X002338Y004682D01*
X002395Y004639D01*
X002454Y004598D01*
X002515Y004562D01*
X002577Y004528D01*
X002642Y004498D01*
X002708Y004472D01*
X002776Y004449D01*
X002845Y004430D01*
X002914Y004415D01*
X002985Y004404D01*
X003056Y004397D01*
X003127Y004393D01*
X003198Y004394D01*
X003269Y004398D01*
X003340Y004407D01*
X003410Y004419D01*
X003479Y004436D01*
X003548Y004456D01*
X003615Y004480D01*
X003681Y004507D01*
X003745Y004538D01*
X003807Y004573D01*
X003867Y004611D01*
X003925Y004652D01*
X003981Y004697D01*
X004034Y004744D01*
X004085Y004795D01*
X004132Y004848D01*
X004177Y004903D01*
X004170Y004909D01*
X004125Y004854D01*
X004078Y004801D01*
X004028Y004751D01*
X003975Y004704D01*
X003920Y004660D01*
X003862Y004618D01*
X003803Y004581D01*
X003741Y004546D01*
X003677Y004515D01*
X003612Y004488D01*
X003545Y004464D01*
X003477Y004444D01*
X003408Y004428D01*
X003339Y004416D01*
X003268Y004407D01*
X003198Y004403D01*
X003127Y004402D01*
X003056Y004406D01*
X002986Y004413D01*
X002916Y004424D01*
X002847Y004439D01*
X002779Y004458D01*
X002711Y004480D01*
X002646Y004506D01*
X002581Y004536D01*
X002519Y004569D01*
X002459Y004606D01*
X002400Y004646D01*
X002344Y004689D01*
X002290Y004735D01*
X002240Y004785D01*
X002191Y004836D01*
X002146Y004891D01*
X002104Y004948D01*
X002065Y005007D01*
X002030Y005068D01*
X001997Y005131D01*
X001969Y005196D01*
X001944Y005262D01*
X001923Y005330D01*
X001905Y005398D01*
X001892Y005468D01*
X001882Y005538D01*
X001876Y005608D01*
X001874Y005679D01*
X001876Y005750D01*
X001882Y005820D01*
X001892Y005890D01*
X001905Y005960D01*
X001923Y006028D01*
X001944Y006096D01*
X001969Y006162D01*
X001997Y006227D01*
X002030Y006290D01*
X002065Y006351D01*
X002104Y006410D01*
X002146Y006467D01*
X002191Y006522D01*
X002240Y006573D01*
X002290Y006623D01*
X002344Y006669D01*
X002400Y006712D01*
X002459Y006752D01*
X002519Y006789D01*
X002581Y006822D01*
X002646Y006852D01*
X002711Y006878D01*
X002779Y006900D01*
X002847Y006919D01*
X002916Y006934D01*
X002986Y006945D01*
X003056Y006952D01*
X003127Y006956D01*
X003198Y006955D01*
X003268Y006951D01*
X003339Y006942D01*
X003408Y006930D01*
X003477Y006914D01*
X003545Y006894D01*
X003612Y006870D01*
X003677Y006843D01*
X003741Y006812D01*
X003803Y006777D01*
X003862Y006740D01*
X003920Y006698D01*
X003975Y006654D01*
X004028Y006607D01*
X004078Y006557D01*
X004125Y006504D01*
X004170Y006449D01*
X004162Y006444D01*
X004118Y006499D01*
X004070Y006552D01*
X004020Y006602D01*
X003967Y006650D01*
X003911Y006694D01*
X003853Y006735D01*
X003793Y006772D01*
X003731Y006807D01*
X003667Y006837D01*
X003601Y006864D01*
X003534Y006888D01*
X003466Y006907D01*
X003396Y006923D01*
X003326Y006935D01*
X003256Y006943D01*
X003185Y006947D01*
X003114Y006946D01*
X003043Y006942D01*
X002972Y006934D01*
X002902Y006922D01*
X002833Y006906D01*
X002765Y006887D01*
X002697Y006863D01*
X002632Y006836D01*
X002568Y006805D01*
X002506Y006771D01*
X002446Y006733D01*
X002388Y006691D01*
X002332Y006647D01*
X002279Y006600D01*
X002229Y006549D01*
X002182Y006496D01*
X002137Y006441D01*
X002096Y006383D01*
X002059Y006323D01*
X002024Y006260D01*
X001993Y006196D01*
X001966Y006131D01*
X001943Y006064D01*
X001923Y005995D01*
X001907Y005926D01*
X001895Y005856D01*
X001887Y005785D01*
X001883Y005715D01*
X001883Y005643D01*
X001887Y005573D01*
X001895Y005502D01*
X001907Y005432D01*
X001923Y005363D01*
X001943Y005294D01*
X001966Y005227D01*
X001993Y005162D01*
X002024Y005098D01*
X002059Y005035D01*
X002096Y004975D01*
X002137Y004917D01*
X002182Y004862D01*
X002229Y004809D01*
X002279Y004758D01*
X002332Y004711D01*
X002388Y004667D01*
X002446Y004625D01*
X002506Y004587D01*
X002568Y004553D01*
X002632Y004522D01*
X002697Y004495D01*
X002765Y004471D01*
X002833Y004452D01*
X002902Y004436D01*
X002972Y004424D01*
X003043Y004416D01*
X003114Y004412D01*
X003185Y004411D01*
X003256Y004415D01*
X003326Y004423D01*
X003396Y004435D01*
X003466Y004451D01*
X003534Y004470D01*
X003601Y004494D01*
X003667Y004521D01*
X003731Y004551D01*
X003793Y004586D01*
X003853Y004623D01*
X003911Y004664D01*
X003967Y004708D01*
X004020Y004756D01*
X004070Y004806D01*
X004118Y004859D01*
X004162Y004914D01*
X004155Y004920D01*
X004111Y004865D01*
X004064Y004812D01*
X004014Y004762D01*
X003961Y004715D01*
X003906Y004671D01*
X003848Y004631D01*
X003789Y004593D01*
X003727Y004559D01*
X003663Y004529D01*
X003598Y004502D01*
X003531Y004479D01*
X003463Y004459D01*
X003395Y004444D01*
X003325Y004432D01*
X003255Y004424D01*
X003184Y004420D01*
X003114Y004421D01*
X003043Y004425D01*
X002973Y004433D01*
X002904Y004445D01*
X002835Y004460D01*
X002767Y004480D01*
X002701Y004503D01*
X002636Y004530D01*
X002572Y004561D01*
X002510Y004595D01*
X002451Y004633D01*
X002393Y004674D01*
X002338Y004718D01*
X002285Y004765D01*
X002236Y004815D01*
X002189Y004867D01*
X002145Y004923D01*
X002104Y004980D01*
X002066Y005040D01*
X002032Y005102D01*
X002002Y005165D01*
X001975Y005230D01*
X001951Y005297D01*
X001932Y005365D01*
X001916Y005434D01*
X001904Y005503D01*
X001896Y005573D01*
X001892Y005644D01*
X001892Y005714D01*
X001896Y005785D01*
X001904Y005855D01*
X001916Y005924D01*
X001932Y005993D01*
X001951Y006061D01*
X001975Y006128D01*
X002002Y006193D01*
X002032Y006256D01*
X002066Y006318D01*
X002104Y006378D01*
X002145Y006435D01*
X002189Y006491D01*
X002236Y006543D01*
X002285Y006593D01*
X002338Y006640D01*
X002393Y006684D01*
X002451Y006725D01*
X002510Y006763D01*
X002572Y006797D01*
X002636Y006828D01*
X002701Y006855D01*
X002767Y006878D01*
X002835Y006898D01*
X002904Y006913D01*
X002973Y006925D01*
X003043Y006933D01*
X003114Y006937D01*
X003184Y006938D01*
X003255Y006934D01*
X003325Y006926D01*
X003395Y006914D01*
X003463Y006899D01*
X003531Y006879D01*
X003598Y006856D01*
X003663Y006829D01*
X003727Y006799D01*
X003789Y006765D01*
X003848Y006727D01*
X003906Y006687D01*
X003961Y006643D01*
X004014Y006596D01*
X004064Y006546D01*
X004111Y006493D01*
X004155Y006438D01*
X004148Y006433D01*
X004104Y006488D01*
X004057Y006540D01*
X004008Y006589D01*
X003955Y006636D01*
X003901Y006679D01*
X003843Y006720D01*
X003784Y006757D01*
X003723Y006791D01*
X003659Y006821D01*
X003595Y006848D01*
X003528Y006871D01*
X003461Y006890D01*
X003393Y006905D01*
X003324Y006917D01*
X003254Y006925D01*
X003184Y006929D01*
X003114Y006928D01*
X003044Y006924D01*
X002975Y006916D01*
X002906Y006905D01*
X002837Y006889D01*
X002770Y006870D01*
X002704Y006846D01*
X002639Y006819D01*
X002576Y006789D01*
X002515Y006755D01*
X002456Y006718D01*
X002398Y006677D01*
X002344Y006633D01*
X002292Y006587D01*
X002242Y006537D01*
X002195Y006485D01*
X002152Y006430D01*
X002111Y006373D01*
X002074Y006314D01*
X002040Y006252D01*
X002010Y006189D01*
X001983Y006124D01*
X001960Y006058D01*
X001941Y005991D01*
X001925Y005923D01*
X001913Y005854D01*
X001905Y005784D01*
X001901Y005714D01*
X001901Y005644D01*
X001905Y005574D01*
X001913Y005504D01*
X001925Y005435D01*
X001941Y005367D01*
X001960Y005300D01*
X001983Y005234D01*
X002010Y005169D01*
X002040Y005106D01*
X002074Y005044D01*
X002111Y004985D01*
X002152Y004928D01*
X002195Y004873D01*
X002242Y004821D01*
X002292Y004771D01*
X002344Y004725D01*
X002398Y004681D01*
X002456Y004640D01*
X002515Y004603D01*
X002576Y004569D01*
X002639Y004539D01*
X002704Y004512D01*
X002770Y004488D01*
X002837Y004469D01*
X002906Y004453D01*
X002975Y004442D01*
X003044Y004434D01*
X003114Y004430D01*
X003184Y004429D01*
X003254Y004433D01*
X003324Y004441D01*
X003393Y004453D01*
X003461Y004468D01*
X003528Y004487D01*
X003595Y004510D01*
X003659Y004537D01*
X003723Y004567D01*
X003784Y004601D01*
X003843Y004638D01*
X003901Y004679D01*
X003955Y004722D01*
X004008Y004769D01*
X004057Y004818D01*
X004104Y004870D01*
X004148Y004925D01*
X004141Y004930D01*
X004097Y004876D01*
X004051Y004824D01*
X004002Y004775D01*
X003950Y004729D01*
X003895Y004686D01*
X003838Y004646D01*
X003779Y004609D01*
X003718Y004575D01*
X003656Y004545D01*
X003591Y004519D01*
X003526Y004496D01*
X003459Y004477D01*
X003391Y004461D01*
X003322Y004450D01*
X003253Y004442D01*
X003184Y004438D01*
X003114Y004439D01*
X003045Y004443D01*
X002976Y004450D01*
X002907Y004462D01*
X002840Y004478D01*
X002773Y004497D01*
X002707Y004520D01*
X002643Y004547D01*
X002580Y004577D01*
X002519Y004611D01*
X002461Y004648D01*
X002404Y004688D01*
X002350Y004731D01*
X002298Y004778D01*
X002249Y004827D01*
X002202Y004879D01*
X002159Y004933D01*
X002119Y004990D01*
X002082Y005049D01*
X002048Y005110D01*
X002018Y005173D01*
X001991Y005237D01*
X001968Y005302D01*
X001949Y005369D01*
X001934Y005437D01*
X001922Y005506D01*
X001914Y005575D01*
X001910Y005644D01*
X001910Y005714D01*
X001914Y005783D01*
X001922Y005852D01*
X001934Y005921D01*
X001949Y005989D01*
X001968Y006056D01*
X001991Y006121D01*
X002018Y006185D01*
X002048Y006248D01*
X002082Y006309D01*
X002119Y006368D01*
X002159Y006425D01*
X002202Y006479D01*
X002249Y006531D01*
X002298Y006580D01*
X002350Y006627D01*
X002404Y006670D01*
X002461Y006710D01*
X002519Y006747D01*
X002580Y006781D01*
X002643Y006811D01*
X002707Y006838D01*
X002773Y006861D01*
X002840Y006880D01*
X002907Y006896D01*
X002976Y006908D01*
X003045Y006915D01*
X003114Y006919D01*
X003184Y006920D01*
X003253Y006916D01*
X003322Y006908D01*
X003391Y006897D01*
X003459Y006881D01*
X003526Y006862D01*
X003591Y006839D01*
X003656Y006813D01*
X003718Y006783D01*
X003779Y006749D01*
X003838Y006712D01*
X003895Y006672D01*
X003950Y006629D01*
X004002Y006583D01*
X004051Y006534D01*
X004097Y006482D01*
X004141Y006428D01*
X004134Y006422D01*
X004090Y006476D01*
X004044Y006527D01*
X003995Y006576D01*
X003944Y006622D01*
X003890Y006665D01*
X003833Y006705D01*
X003775Y006741D01*
X003714Y006775D01*
X003652Y006805D01*
X003588Y006831D01*
X003523Y006853D01*
X003457Y006872D01*
X003389Y006888D01*
X003321Y006899D01*
X003253Y006907D01*
X003184Y006911D01*
X003115Y006910D01*
X003046Y006906D01*
X002977Y006899D01*
X002909Y006887D01*
X002842Y006872D01*
X002775Y006852D01*
X002710Y006829D01*
X002647Y006803D01*
X002584Y006773D01*
X002524Y006740D01*
X002466Y006703D01*
X002409Y006663D01*
X002355Y006620D01*
X002304Y006574D01*
X002255Y006525D01*
X002209Y006473D01*
X002166Y006419D01*
X002126Y006363D01*
X002090Y006304D01*
X002056Y006244D01*
X002026Y006182D01*
X002000Y006118D01*
X001977Y006053D01*
X001958Y005986D01*
X001943Y005919D01*
X001931Y005851D01*
X001923Y005782D01*
X001919Y005714D01*
X001919Y005644D01*
X001923Y005576D01*
X001931Y005507D01*
X001943Y005439D01*
X001958Y005372D01*
X001977Y005305D01*
X002000Y005240D01*
X002026Y005176D01*
X002056Y005114D01*
X002090Y005054D01*
X002126Y004995D01*
X002166Y004939D01*
X002209Y004885D01*
X002255Y004833D01*
X002304Y004784D01*
X002355Y004738D01*
X002409Y004695D01*
X002466Y004655D01*
X002524Y004618D01*
X002584Y004585D01*
X002647Y004555D01*
X002710Y004529D01*
X002775Y004506D01*
X002842Y004486D01*
X002909Y004471D01*
X002977Y004459D01*
X003046Y004452D01*
X003115Y004448D01*
X003184Y004447D01*
X003253Y004451D01*
X003321Y004459D01*
X003389Y004470D01*
X003457Y004486D01*
X003523Y004505D01*
X003588Y004527D01*
X003652Y004553D01*
X003714Y004583D01*
X003775Y004617D01*
X003833Y004653D01*
X003890Y004693D01*
X003944Y004736D01*
X003995Y004782D01*
X004044Y004831D01*
X004090Y004882D01*
X004134Y004936D01*
X004126Y004941D01*
X004083Y004887D01*
X004037Y004836D01*
X003987Y004787D01*
X003936Y004741D01*
X003881Y004698D01*
X003824Y004658D01*
X003766Y004622D01*
X003705Y004588D01*
X003642Y004559D01*
X003578Y004533D01*
X003512Y004511D01*
X003445Y004492D01*
X003378Y004477D01*
X003309Y004466D01*
X003240Y004459D01*
X003171Y004456D01*
X003102Y004457D01*
X003032Y004462D01*
X002964Y004470D01*
X002896Y004483D01*
X002828Y004499D01*
X002762Y004520D01*
X002697Y004543D01*
X002633Y004571D01*
X002571Y004602D01*
X002511Y004637D01*
X002453Y004675D01*
X002397Y004716D01*
X002344Y004760D01*
X002293Y004807D01*
X002245Y004857D01*
X002200Y004910D01*
X002158Y004965D01*
X002119Y005022D01*
X002084Y005082D01*
X002052Y005143D01*
X002023Y005206D01*
X001998Y005271D01*
X001977Y005337D01*
X001959Y005404D01*
X001946Y005472D01*
X001936Y005541D01*
X001930Y005610D01*
X001928Y005679D01*
X001930Y005748D01*
X001936Y005817D01*
X001946Y005886D01*
X001959Y005954D01*
X001977Y006021D01*
X001998Y006087D01*
X002023Y006152D01*
X002052Y006215D01*
X002084Y006276D01*
X002119Y006336D01*
X002158Y006393D01*
X002200Y006448D01*
X002245Y006501D01*
X002293Y006551D01*
X002344Y006598D01*
X002397Y006642D01*
X002453Y006683D01*
X002511Y006721D01*
X002571Y006756D01*
X002633Y006787D01*
X002697Y006815D01*
X002762Y006838D01*
X002828Y006859D01*
X002896Y006875D01*
X002964Y006888D01*
X003032Y006896D01*
X003102Y006901D01*
X003171Y006902D01*
X003240Y006899D01*
X003309Y006892D01*
X003378Y006881D01*
X003445Y006866D01*
X003512Y006847D01*
X003578Y006825D01*
X003642Y006799D01*
X003705Y006770D01*
X003766Y006736D01*
X003824Y006700D01*
X003881Y006660D01*
X003936Y006617D01*
X003987Y006571D01*
X004037Y006522D01*
X004083Y006471D01*
X004126Y006417D01*
X004119Y006411D01*
X004076Y006465D01*
X004030Y006516D01*
X003981Y006565D01*
X003930Y006610D01*
X003876Y006653D01*
X003819Y006692D01*
X003761Y006729D01*
X003701Y006762D01*
X003638Y006791D01*
X003575Y006817D01*
X003509Y006839D01*
X003443Y006857D01*
X003376Y006872D01*
X003308Y006883D01*
X003239Y006890D01*
X003171Y006893D01*
X003102Y006892D01*
X003033Y006887D01*
X002965Y006879D01*
X002897Y006866D01*
X002831Y006850D01*
X002765Y006830D01*
X002700Y006806D01*
X002637Y006779D01*
X002576Y006748D01*
X002516Y006714D01*
X002458Y006676D01*
X002403Y006635D01*
X002350Y006591D01*
X002300Y006544D01*
X002252Y006495D01*
X002207Y006443D01*
X002165Y006388D01*
X002127Y006331D01*
X002092Y006272D01*
X002060Y006211D01*
X002031Y006148D01*
X002007Y006084D01*
X001985Y006018D01*
X001968Y005952D01*
X001955Y005884D01*
X001945Y005816D01*
X001939Y005748D01*
X001937Y005679D01*
X001939Y005610D01*
X001945Y005542D01*
X001955Y005474D01*
X001968Y005406D01*
X001985Y005340D01*
X002007Y005274D01*
X002031Y005210D01*
X002060Y005147D01*
X002092Y005086D01*
X002127Y005027D01*
X002165Y004970D01*
X002207Y004915D01*
X002252Y004863D01*
X002300Y004814D01*
X002350Y004767D01*
X002403Y004723D01*
X002458Y004682D01*
X002516Y004644D01*
X002576Y004610D01*
X002637Y004579D01*
X002700Y004552D01*
X002765Y004528D01*
X002831Y004508D01*
X002897Y004492D01*
X002965Y004479D01*
X003033Y004471D01*
X003102Y004466D01*
X003171Y004465D01*
X003239Y004468D01*
X003308Y004475D01*
X003376Y004486D01*
X003443Y004501D01*
X003509Y004519D01*
X003575Y004541D01*
X003638Y004567D01*
X003701Y004596D01*
X003761Y004629D01*
X003819Y004666D01*
X003876Y004705D01*
X003930Y004748D01*
X003981Y004793D01*
X004030Y004842D01*
X004076Y004893D01*
X004119Y004947D01*
X004183Y009459D02*
X004111Y009405D01*
X004112Y009406D02*
X004069Y009459D01*
X004024Y009510D01*
X003975Y009558D01*
X003924Y009603D01*
X003870Y009646D01*
X003814Y009685D01*
X003756Y009721D01*
X003696Y009754D01*
X003635Y009783D01*
X003571Y009808D01*
X003507Y009830D01*
X003441Y009849D01*
X003374Y009863D01*
X003307Y009874D01*
X003239Y009881D01*
X003171Y009884D01*
X003102Y009883D01*
X003034Y009878D01*
X002966Y009870D01*
X002899Y009857D01*
X002833Y009841D01*
X002768Y009821D01*
X002703Y009798D01*
X002641Y009771D01*
X002580Y009740D01*
X002521Y009706D01*
X002463Y009669D01*
X002408Y009628D01*
X002356Y009584D01*
X002306Y009538D01*
X002259Y009489D01*
X002214Y009437D01*
X002173Y009383D01*
X002134Y009326D01*
X002099Y009267D01*
X002068Y009207D01*
X002040Y009145D01*
X002015Y009081D01*
X001994Y009016D01*
X001977Y008950D01*
X001963Y008883D01*
X001954Y008815D01*
X001948Y008747D01*
X001946Y008679D01*
X001948Y008611D01*
X001954Y008543D01*
X001963Y008475D01*
X001977Y008408D01*
X001994Y008342D01*
X002015Y008277D01*
X002040Y008213D01*
X002068Y008151D01*
X002099Y008091D01*
X002134Y008032D01*
X002173Y007975D01*
X002214Y007921D01*
X002259Y007869D01*
X002306Y007820D01*
X002356Y007774D01*
X002408Y007730D01*
X002463Y007689D01*
X002521Y007652D01*
X002580Y007618D01*
X002641Y007587D01*
X002703Y007560D01*
X002768Y007537D01*
X002833Y007517D01*
X002899Y007501D01*
X002966Y007488D01*
X003034Y007480D01*
X003102Y007475D01*
X003171Y007474D01*
X003239Y007477D01*
X003307Y007484D01*
X003374Y007495D01*
X003441Y007509D01*
X003507Y007528D01*
X003571Y007550D01*
X003635Y007575D01*
X003696Y007604D01*
X003756Y007637D01*
X003814Y007673D01*
X003870Y007712D01*
X003924Y007755D01*
X003975Y007800D01*
X004024Y007848D01*
X004069Y007899D01*
X004112Y007952D01*
X004183Y007899D01*
X004184Y007898D01*
X004140Y007843D01*
X004092Y007790D01*
X004042Y007739D01*
X003989Y007692D01*
X003934Y007648D01*
X003876Y007606D01*
X003816Y007568D01*
X003755Y007533D01*
X003691Y007502D01*
X003626Y007474D01*
X003559Y007450D01*
X003491Y007429D01*
X003422Y007413D01*
X003352Y007400D01*
X003282Y007391D01*
X003211Y007385D01*
X003140Y007384D01*
X003069Y007387D01*
X002998Y007393D01*
X002928Y007403D01*
X002859Y007417D01*
X002790Y007435D01*
X002722Y007457D01*
X002656Y007482D01*
X002591Y007511D01*
X002528Y007544D01*
X002467Y007580D01*
X002408Y007619D01*
X002351Y007661D01*
X002296Y007706D01*
X002244Y007755D01*
X002195Y007806D01*
X002148Y007859D01*
X002105Y007916D01*
X002065Y007974D01*
X002028Y008035D01*
X001994Y008097D01*
X001964Y008161D01*
X001937Y008227D01*
X001914Y008294D01*
X001895Y008363D01*
X001880Y008432D01*
X001868Y008502D01*
X001860Y008573D01*
X001856Y008644D01*
X001856Y008714D01*
X001860Y008785D01*
X001868Y008856D01*
X001880Y008926D01*
X001895Y008995D01*
X001914Y009064D01*
X001937Y009131D01*
X001964Y009197D01*
X001994Y009261D01*
X002028Y009323D01*
X002065Y009384D01*
X002105Y009442D01*
X002148Y009499D01*
X002195Y009552D01*
X002244Y009603D01*
X002296Y009652D01*
X002351Y009697D01*
X002408Y009739D01*
X002467Y009778D01*
X002528Y009814D01*
X002591Y009847D01*
X002656Y009876D01*
X002722Y009901D01*
X002790Y009923D01*
X002859Y009941D01*
X002928Y009955D01*
X002998Y009965D01*
X003069Y009971D01*
X003140Y009974D01*
X003211Y009973D01*
X003282Y009967D01*
X003352Y009958D01*
X003422Y009945D01*
X003491Y009929D01*
X003559Y009908D01*
X003626Y009884D01*
X003691Y009856D01*
X003755Y009825D01*
X003816Y009790D01*
X003876Y009752D01*
X003934Y009710D01*
X003989Y009666D01*
X004042Y009619D01*
X004092Y009568D01*
X004140Y009515D01*
X004184Y009460D01*
X004177Y009455D01*
X004132Y009510D01*
X004085Y009563D01*
X004034Y009614D01*
X003981Y009661D01*
X003925Y009706D01*
X003867Y009747D01*
X003807Y009785D01*
X003745Y009820D01*
X003681Y009851D01*
X003615Y009878D01*
X003548Y009902D01*
X003479Y009922D01*
X003410Y009939D01*
X003340Y009951D01*
X003269Y009960D01*
X003198Y009964D01*
X003127Y009965D01*
X003056Y009961D01*
X002985Y009954D01*
X002914Y009943D01*
X002845Y009928D01*
X002776Y009909D01*
X002708Y009886D01*
X002642Y009860D01*
X002577Y009830D01*
X002515Y009796D01*
X002454Y009760D01*
X002395Y009719D01*
X002338Y009676D01*
X002284Y009629D01*
X002233Y009580D01*
X002185Y009527D01*
X002139Y009473D01*
X002097Y009415D01*
X002058Y009356D01*
X002022Y009294D01*
X001989Y009231D01*
X001961Y009166D01*
X001935Y009099D01*
X001914Y009031D01*
X001896Y008962D01*
X001883Y008892D01*
X001873Y008821D01*
X001867Y008750D01*
X001865Y008679D01*
X001867Y008608D01*
X001873Y008537D01*
X001883Y008466D01*
X001896Y008396D01*
X001914Y008327D01*
X001935Y008259D01*
X001961Y008192D01*
X001989Y008127D01*
X002022Y008064D01*
X002058Y008002D01*
X002097Y007943D01*
X002139Y007885D01*
X002185Y007831D01*
X002233Y007778D01*
X002284Y007729D01*
X002338Y007682D01*
X002395Y007639D01*
X002454Y007598D01*
X002515Y007562D01*
X002577Y007528D01*
X002642Y007498D01*
X002708Y007472D01*
X002776Y007449D01*
X002845Y007430D01*
X002914Y007415D01*
X002985Y007404D01*
X003056Y007397D01*
X003127Y007393D01*
X003198Y007394D01*
X003269Y007398D01*
X003340Y007407D01*
X003410Y007419D01*
X003479Y007436D01*
X003548Y007456D01*
X003615Y007480D01*
X003681Y007507D01*
X003745Y007538D01*
X003807Y007573D01*
X003867Y007611D01*
X003925Y007652D01*
X003981Y007697D01*
X004034Y007744D01*
X004085Y007795D01*
X004132Y007848D01*
X004177Y007903D01*
X004170Y007909D01*
X004125Y007854D01*
X004078Y007801D01*
X004028Y007751D01*
X003975Y007704D01*
X003920Y007660D01*
X003862Y007618D01*
X003803Y007581D01*
X003741Y007546D01*
X003677Y007515D01*
X003612Y007488D01*
X003545Y007464D01*
X003477Y007444D01*
X003408Y007428D01*
X003339Y007416D01*
X003268Y007407D01*
X003198Y007403D01*
X003127Y007402D01*
X003056Y007406D01*
X002986Y007413D01*
X002916Y007424D01*
X002847Y007439D01*
X002779Y007458D01*
X002711Y007480D01*
X002646Y007506D01*
X002581Y007536D01*
X002519Y007569D01*
X002459Y007606D01*
X002400Y007646D01*
X002344Y007689D01*
X002290Y007735D01*
X002240Y007785D01*
X002191Y007836D01*
X002146Y007891D01*
X002104Y007948D01*
X002065Y008007D01*
X002030Y008068D01*
X001997Y008131D01*
X001969Y008196D01*
X001944Y008262D01*
X001923Y008330D01*
X001905Y008398D01*
X001892Y008468D01*
X001882Y008538D01*
X001876Y008608D01*
X001874Y008679D01*
X001876Y008750D01*
X001882Y008820D01*
X001892Y008890D01*
X001905Y008960D01*
X001923Y009028D01*
X001944Y009096D01*
X001969Y009162D01*
X001997Y009227D01*
X002030Y009290D01*
X002065Y009351D01*
X002104Y009410D01*
X002146Y009467D01*
X002191Y009522D01*
X002240Y009573D01*
X002290Y009623D01*
X002344Y009669D01*
X002400Y009712D01*
X002459Y009752D01*
X002519Y009789D01*
X002581Y009822D01*
X002646Y009852D01*
X002711Y009878D01*
X002779Y009900D01*
X002847Y009919D01*
X002916Y009934D01*
X002986Y009945D01*
X003056Y009952D01*
X003127Y009956D01*
X003198Y009955D01*
X003268Y009951D01*
X003339Y009942D01*
X003408Y009930D01*
X003477Y009914D01*
X003545Y009894D01*
X003612Y009870D01*
X003677Y009843D01*
X003741Y009812D01*
X003803Y009777D01*
X003862Y009740D01*
X003920Y009698D01*
X003975Y009654D01*
X004028Y009607D01*
X004078Y009557D01*
X004125Y009504D01*
X004170Y009449D01*
X004162Y009444D01*
X004118Y009499D01*
X004070Y009552D01*
X004020Y009602D01*
X003967Y009650D01*
X003911Y009694D01*
X003853Y009735D01*
X003793Y009772D01*
X003731Y009807D01*
X003667Y009837D01*
X003601Y009864D01*
X003534Y009888D01*
X003466Y009907D01*
X003396Y009923D01*
X003326Y009935D01*
X003256Y009943D01*
X003185Y009947D01*
X003114Y009946D01*
X003043Y009942D01*
X002972Y009934D01*
X002902Y009922D01*
X002833Y009906D01*
X002765Y009887D01*
X002697Y009863D01*
X002632Y009836D01*
X002568Y009805D01*
X002506Y009771D01*
X002446Y009733D01*
X002388Y009691D01*
X002332Y009647D01*
X002279Y009600D01*
X002229Y009549D01*
X002182Y009496D01*
X002137Y009441D01*
X002096Y009383D01*
X002059Y009323D01*
X002024Y009260D01*
X001993Y009196D01*
X001966Y009131D01*
X001943Y009064D01*
X001923Y008995D01*
X001907Y008926D01*
X001895Y008856D01*
X001887Y008785D01*
X001883Y008715D01*
X001883Y008643D01*
X001887Y008573D01*
X001895Y008502D01*
X001907Y008432D01*
X001923Y008363D01*
X001943Y008294D01*
X001966Y008227D01*
X001993Y008162D01*
X002024Y008098D01*
X002059Y008035D01*
X002096Y007975D01*
X002137Y007917D01*
X002182Y007862D01*
X002229Y007809D01*
X002279Y007758D01*
X002332Y007711D01*
X002388Y007667D01*
X002446Y007625D01*
X002506Y007587D01*
X002568Y007553D01*
X002632Y007522D01*
X002697Y007495D01*
X002765Y007471D01*
X002833Y007452D01*
X002902Y007436D01*
X002972Y007424D01*
X003043Y007416D01*
X003114Y007412D01*
X003185Y007411D01*
X003256Y007415D01*
X003326Y007423D01*
X003396Y007435D01*
X003466Y007451D01*
X003534Y007470D01*
X003601Y007494D01*
X003667Y007521D01*
X003731Y007551D01*
X003793Y007586D01*
X003853Y007623D01*
X003911Y007664D01*
X003967Y007708D01*
X004020Y007756D01*
X004070Y007806D01*
X004118Y007859D01*
X004162Y007914D01*
X004155Y007920D01*
X004111Y007865D01*
X004064Y007812D01*
X004014Y007762D01*
X003961Y007715D01*
X003906Y007671D01*
X003848Y007631D01*
X003789Y007593D01*
X003727Y007559D01*
X003663Y007529D01*
X003598Y007502D01*
X003531Y007479D01*
X003463Y007459D01*
X003395Y007444D01*
X003325Y007432D01*
X003255Y007424D01*
X003184Y007420D01*
X003114Y007421D01*
X003043Y007425D01*
X002973Y007433D01*
X002904Y007445D01*
X002835Y007460D01*
X002767Y007480D01*
X002701Y007503D01*
X002636Y007530D01*
X002572Y007561D01*
X002510Y007595D01*
X002451Y007633D01*
X002393Y007674D01*
X002338Y007718D01*
X002285Y007765D01*
X002236Y007815D01*
X002189Y007867D01*
X002145Y007923D01*
X002104Y007980D01*
X002066Y008040D01*
X002032Y008102D01*
X002002Y008165D01*
X001975Y008230D01*
X001951Y008297D01*
X001932Y008365D01*
X001916Y008434D01*
X001904Y008503D01*
X001896Y008573D01*
X001892Y008644D01*
X001892Y008714D01*
X001896Y008785D01*
X001904Y008855D01*
X001916Y008924D01*
X001932Y008993D01*
X001951Y009061D01*
X001975Y009128D01*
X002002Y009193D01*
X002032Y009256D01*
X002066Y009318D01*
X002104Y009378D01*
X002145Y009435D01*
X002189Y009491D01*
X002236Y009543D01*
X002285Y009593D01*
X002338Y009640D01*
X002393Y009684D01*
X002451Y009725D01*
X002510Y009763D01*
X002572Y009797D01*
X002636Y009828D01*
X002701Y009855D01*
X002767Y009878D01*
X002835Y009898D01*
X002904Y009913D01*
X002973Y009925D01*
X003043Y009933D01*
X003114Y009937D01*
X003184Y009938D01*
X003255Y009934D01*
X003325Y009926D01*
X003395Y009914D01*
X003463Y009899D01*
X003531Y009879D01*
X003598Y009856D01*
X003663Y009829D01*
X003727Y009799D01*
X003789Y009765D01*
X003848Y009727D01*
X003906Y009687D01*
X003961Y009643D01*
X004014Y009596D01*
X004064Y009546D01*
X004111Y009493D01*
X004155Y009438D01*
X004148Y009433D01*
X004104Y009488D01*
X004057Y009540D01*
X004008Y009589D01*
X003955Y009636D01*
X003901Y009679D01*
X003843Y009720D01*
X003784Y009757D01*
X003723Y009791D01*
X003659Y009821D01*
X003595Y009848D01*
X003528Y009871D01*
X003461Y009890D01*
X003393Y009905D01*
X003324Y009917D01*
X003254Y009925D01*
X003184Y009929D01*
X003114Y009928D01*
X003044Y009924D01*
X002975Y009916D01*
X002906Y009905D01*
X002837Y009889D01*
X002770Y009870D01*
X002704Y009846D01*
X002639Y009819D01*
X002576Y009789D01*
X002515Y009755D01*
X002456Y009718D01*
X002398Y009677D01*
X002344Y009633D01*
X002292Y009587D01*
X002242Y009537D01*
X002195Y009485D01*
X002152Y009430D01*
X002111Y009373D01*
X002074Y009314D01*
X002040Y009252D01*
X002010Y009189D01*
X001983Y009124D01*
X001960Y009058D01*
X001941Y008991D01*
X001925Y008923D01*
X001913Y008854D01*
X001905Y008784D01*
X001901Y008714D01*
X001901Y008644D01*
X001905Y008574D01*
X001913Y008504D01*
X001925Y008435D01*
X001941Y008367D01*
X001960Y008300D01*
X001983Y008234D01*
X002010Y008169D01*
X002040Y008106D01*
X002074Y008044D01*
X002111Y007985D01*
X002152Y007928D01*
X002195Y007873D01*
X002242Y007821D01*
X002292Y007771D01*
X002344Y007725D01*
X002398Y007681D01*
X002456Y007640D01*
X002515Y007603D01*
X002576Y007569D01*
X002639Y007539D01*
X002704Y007512D01*
X002770Y007488D01*
X002837Y007469D01*
X002906Y007453D01*
X002975Y007442D01*
X003044Y007434D01*
X003114Y007430D01*
X003184Y007429D01*
X003254Y007433D01*
X003324Y007441D01*
X003393Y007453D01*
X003461Y007468D01*
X003528Y007487D01*
X003595Y007510D01*
X003659Y007537D01*
X003723Y007567D01*
X003784Y007601D01*
X003843Y007638D01*
X003901Y007679D01*
X003955Y007722D01*
X004008Y007769D01*
X004057Y007818D01*
X004104Y007870D01*
X004148Y007925D01*
X004141Y007930D01*
X004097Y007876D01*
X004051Y007824D01*
X004002Y007775D01*
X003950Y007729D01*
X003895Y007686D01*
X003838Y007646D01*
X003779Y007609D01*
X003718Y007575D01*
X003656Y007545D01*
X003591Y007519D01*
X003526Y007496D01*
X003459Y007477D01*
X003391Y007461D01*
X003322Y007450D01*
X003253Y007442D01*
X003184Y007438D01*
X003114Y007439D01*
X003045Y007443D01*
X002976Y007450D01*
X002907Y007462D01*
X002840Y007478D01*
X002773Y007497D01*
X002707Y007520D01*
X002643Y007547D01*
X002580Y007577D01*
X002519Y007611D01*
X002461Y007648D01*
X002404Y007688D01*
X002350Y007731D01*
X002298Y007778D01*
X002249Y007827D01*
X002202Y007879D01*
X002159Y007933D01*
X002119Y007990D01*
X002082Y008049D01*
X002048Y008110D01*
X002018Y008173D01*
X001991Y008237D01*
X001968Y008302D01*
X001949Y008369D01*
X001934Y008437D01*
X001922Y008506D01*
X001914Y008575D01*
X001910Y008644D01*
X001910Y008714D01*
X001914Y008783D01*
X001922Y008852D01*
X001934Y008921D01*
X001949Y008989D01*
X001968Y009056D01*
X001991Y009121D01*
X002018Y009185D01*
X002048Y009248D01*
X002082Y009309D01*
X002119Y009368D01*
X002159Y009425D01*
X002202Y009479D01*
X002249Y009531D01*
X002298Y009580D01*
X002350Y009627D01*
X002404Y009670D01*
X002461Y009710D01*
X002519Y009747D01*
X002580Y009781D01*
X002643Y009811D01*
X002707Y009838D01*
X002773Y009861D01*
X002840Y009880D01*
X002907Y009896D01*
X002976Y009908D01*
X003045Y009915D01*
X003114Y009919D01*
X003184Y009920D01*
X003253Y009916D01*
X003322Y009908D01*
X003391Y009897D01*
X003459Y009881D01*
X003526Y009862D01*
X003591Y009839D01*
X003656Y009813D01*
X003718Y009783D01*
X003779Y009749D01*
X003838Y009712D01*
X003895Y009672D01*
X003950Y009629D01*
X004002Y009583D01*
X004051Y009534D01*
X004097Y009482D01*
X004141Y009428D01*
X004134Y009422D01*
X004090Y009476D01*
X004044Y009527D01*
X003995Y009576D01*
X003944Y009622D01*
X003890Y009665D01*
X003833Y009705D01*
X003775Y009741D01*
X003714Y009775D01*
X003652Y009805D01*
X003588Y009831D01*
X003523Y009853D01*
X003457Y009872D01*
X003389Y009888D01*
X003321Y009899D01*
X003253Y009907D01*
X003184Y009911D01*
X003115Y009910D01*
X003046Y009906D01*
X002977Y009899D01*
X002909Y009887D01*
X002842Y009872D01*
X002775Y009852D01*
X002710Y009829D01*
X002647Y009803D01*
X002584Y009773D01*
X002524Y009740D01*
X002466Y009703D01*
X002409Y009663D01*
X002355Y009620D01*
X002304Y009574D01*
X002255Y009525D01*
X002209Y009473D01*
X002166Y009419D01*
X002126Y009363D01*
X002090Y009304D01*
X002056Y009244D01*
X002026Y009182D01*
X002000Y009118D01*
X001977Y009053D01*
X001958Y008986D01*
X001943Y008919D01*
X001931Y008851D01*
X001923Y008782D01*
X001919Y008714D01*
X001919Y008644D01*
X001923Y008576D01*
X001931Y008507D01*
X001943Y008439D01*
X001958Y008372D01*
X001977Y008305D01*
X002000Y008240D01*
X002026Y008176D01*
X002056Y008114D01*
X002090Y008054D01*
X002126Y007995D01*
X002166Y007939D01*
X002209Y007885D01*
X002255Y007833D01*
X002304Y007784D01*
X002355Y007738D01*
X002409Y007695D01*
X002466Y007655D01*
X002524Y007618D01*
X002584Y007585D01*
X002647Y007555D01*
X002710Y007529D01*
X002775Y007506D01*
X002842Y007486D01*
X002909Y007471D01*
X002977Y007459D01*
X003046Y007452D01*
X003115Y007448D01*
X003184Y007447D01*
X003253Y007451D01*
X003321Y007459D01*
X003389Y007470D01*
X003457Y007486D01*
X003523Y007505D01*
X003588Y007527D01*
X003652Y007553D01*
X003714Y007583D01*
X003775Y007617D01*
X003833Y007653D01*
X003890Y007693D01*
X003944Y007736D01*
X003995Y007782D01*
X004044Y007831D01*
X004090Y007882D01*
X004134Y007936D01*
X004126Y007941D01*
X004083Y007887D01*
X004037Y007836D01*
X003987Y007787D01*
X003936Y007741D01*
X003881Y007698D01*
X003824Y007658D01*
X003766Y007622D01*
X003705Y007588D01*
X003642Y007559D01*
X003578Y007533D01*
X003512Y007511D01*
X003445Y007492D01*
X003378Y007477D01*
X003309Y007466D01*
X003240Y007459D01*
X003171Y007456D01*
X003102Y007457D01*
X003032Y007462D01*
X002964Y007470D01*
X002896Y007483D01*
X002828Y007499D01*
X002762Y007520D01*
X002697Y007543D01*
X002633Y007571D01*
X002571Y007602D01*
X002511Y007637D01*
X002453Y007675D01*
X002397Y007716D01*
X002344Y007760D01*
X002293Y007807D01*
X002245Y007857D01*
X002200Y007910D01*
X002158Y007965D01*
X002119Y008022D01*
X002084Y008082D01*
X002052Y008143D01*
X002023Y008206D01*
X001998Y008271D01*
X001977Y008337D01*
X001959Y008404D01*
X001946Y008472D01*
X001936Y008541D01*
X001930Y008610D01*
X001928Y008679D01*
X001930Y008748D01*
X001936Y008817D01*
X001946Y008886D01*
X001959Y008954D01*
X001977Y009021D01*
X001998Y009087D01*
X002023Y009152D01*
X002052Y009215D01*
X002084Y009276D01*
X002119Y009336D01*
X002158Y009393D01*
X002200Y009448D01*
X002245Y009501D01*
X002293Y009551D01*
X002344Y009598D01*
X002397Y009642D01*
X002453Y009683D01*
X002511Y009721D01*
X002571Y009756D01*
X002633Y009787D01*
X002697Y009815D01*
X002762Y009838D01*
X002828Y009859D01*
X002896Y009875D01*
X002964Y009888D01*
X003032Y009896D01*
X003102Y009901D01*
X003171Y009902D01*
X003240Y009899D01*
X003309Y009892D01*
X003378Y009881D01*
X003445Y009866D01*
X003512Y009847D01*
X003578Y009825D01*
X003642Y009799D01*
X003705Y009770D01*
X003766Y009736D01*
X003824Y009700D01*
X003881Y009660D01*
X003936Y009617D01*
X003987Y009571D01*
X004037Y009522D01*
X004083Y009471D01*
X004126Y009417D01*
X004119Y009411D01*
X004076Y009465D01*
X004030Y009516D01*
X003981Y009565D01*
X003930Y009610D01*
X003876Y009653D01*
X003819Y009692D01*
X003761Y009729D01*
X003701Y009762D01*
X003638Y009791D01*
X003575Y009817D01*
X003509Y009839D01*
X003443Y009857D01*
X003376Y009872D01*
X003308Y009883D01*
X003239Y009890D01*
X003171Y009893D01*
X003102Y009892D01*
X003033Y009887D01*
X002965Y009879D01*
X002897Y009866D01*
X002831Y009850D01*
X002765Y009830D01*
X002700Y009806D01*
X002637Y009779D01*
X002576Y009748D01*
X002516Y009714D01*
X002458Y009676D01*
X002403Y009635D01*
X002350Y009591D01*
X002300Y009544D01*
X002252Y009495D01*
X002207Y009443D01*
X002165Y009388D01*
X002127Y009331D01*
X002092Y009272D01*
X002060Y009211D01*
X002031Y009148D01*
X002007Y009084D01*
X001985Y009018D01*
X001968Y008952D01*
X001955Y008884D01*
X001945Y008816D01*
X001939Y008748D01*
X001937Y008679D01*
X001939Y008610D01*
X001945Y008542D01*
X001955Y008474D01*
X001968Y008406D01*
X001985Y008340D01*
X002007Y008274D01*
X002031Y008210D01*
X002060Y008147D01*
X002092Y008086D01*
X002127Y008027D01*
X002165Y007970D01*
X002207Y007915D01*
X002252Y007863D01*
X002300Y007814D01*
X002350Y007767D01*
X002403Y007723D01*
X002458Y007682D01*
X002516Y007644D01*
X002576Y007610D01*
X002637Y007579D01*
X002700Y007552D01*
X002765Y007528D01*
X002831Y007508D01*
X002897Y007492D01*
X002965Y007479D01*
X003033Y007471D01*
X003102Y007466D01*
X003171Y007465D01*
X003239Y007468D01*
X003308Y007475D01*
X003376Y007486D01*
X003443Y007501D01*
X003509Y007519D01*
X003575Y007541D01*
X003638Y007567D01*
X003701Y007596D01*
X003761Y007629D01*
X003819Y007666D01*
X003876Y007705D01*
X003930Y007748D01*
X003981Y007793D01*
X004030Y007842D01*
X004076Y007893D01*
X004119Y007947D01*
M02*
