G75*
G70*
%OFA0B0*%
%FSLAX24Y24*%
%IPPOS*%
%LPD*%
%AMOC8*
5,1,8,0,0,1.08239X$1,22.5*
%
%ADD10C,0.0000*%
%ADD11C,0.0060*%
%ADD12C,0.0080*%
%ADD13C,0.0100*%
%ADD14C,0.0050*%
D10*
X000101Y002056D02*
X000101Y009556D01*
X002601Y011556D01*
X002601Y034552D01*
X006621Y034552D01*
X006601Y011556D01*
X009071Y009536D01*
X009071Y002056D01*
X000101Y002056D01*
D11*
X002601Y006456D02*
X006601Y006456D01*
X006601Y008656D01*
X002601Y008656D01*
X002601Y007806D01*
X002631Y007804D01*
X002661Y007799D01*
X002690Y007790D01*
X002717Y007777D01*
X002743Y007762D01*
X002767Y007743D01*
X002788Y007722D01*
X002807Y007698D01*
X002822Y007672D01*
X002835Y007645D01*
X002844Y007616D01*
X002849Y007586D01*
X002851Y007556D01*
X002849Y007526D01*
X002844Y007496D01*
X002835Y007467D01*
X002822Y007440D01*
X002807Y007414D01*
X002788Y007390D01*
X002767Y007369D01*
X002743Y007350D01*
X002717Y007335D01*
X002690Y007322D01*
X002661Y007313D01*
X002631Y007308D01*
X002601Y007306D01*
X002601Y006456D01*
X003601Y012056D02*
X003603Y012119D01*
X003609Y012181D01*
X003619Y012243D01*
X003632Y012305D01*
X003650Y012365D01*
X003671Y012424D01*
X003696Y012482D01*
X003725Y012538D01*
X003757Y012592D01*
X003792Y012644D01*
X003830Y012693D01*
X003872Y012741D01*
X003916Y012785D01*
X003964Y012827D01*
X004013Y012865D01*
X004065Y012900D01*
X004119Y012932D01*
X004175Y012961D01*
X004233Y012986D01*
X004292Y013007D01*
X004352Y013025D01*
X004414Y013038D01*
X004476Y013048D01*
X004538Y013054D01*
X004601Y013056D01*
X004664Y013054D01*
X004726Y013048D01*
X004788Y013038D01*
X004850Y013025D01*
X004910Y013007D01*
X004969Y012986D01*
X005027Y012961D01*
X005083Y012932D01*
X005137Y012900D01*
X005189Y012865D01*
X005238Y012827D01*
X005286Y012785D01*
X005330Y012741D01*
X005372Y012693D01*
X005410Y012644D01*
X005445Y012592D01*
X005477Y012538D01*
X005506Y012482D01*
X005531Y012424D01*
X005552Y012365D01*
X005570Y012305D01*
X005583Y012243D01*
X005593Y012181D01*
X005599Y012119D01*
X005601Y012056D01*
X005599Y011993D01*
X005593Y011931D01*
X005583Y011869D01*
X005570Y011807D01*
X005552Y011747D01*
X005531Y011688D01*
X005506Y011630D01*
X005477Y011574D01*
X005445Y011520D01*
X005410Y011468D01*
X005372Y011419D01*
X005330Y011371D01*
X005286Y011327D01*
X005238Y011285D01*
X005189Y011247D01*
X005137Y011212D01*
X005083Y011180D01*
X005027Y011151D01*
X004969Y011126D01*
X004910Y011105D01*
X004850Y011087D01*
X004788Y011074D01*
X004726Y011064D01*
X004664Y011058D01*
X004601Y011056D01*
X004538Y011058D01*
X004476Y011064D01*
X004414Y011074D01*
X004352Y011087D01*
X004292Y011105D01*
X004233Y011126D01*
X004175Y011151D01*
X004119Y011180D01*
X004065Y011212D01*
X004013Y011247D01*
X003964Y011285D01*
X003916Y011327D01*
X003872Y011371D01*
X003830Y011419D01*
X003792Y011468D01*
X003757Y011520D01*
X003725Y011574D01*
X003696Y011630D01*
X003671Y011688D01*
X003650Y011747D01*
X003632Y011807D01*
X003619Y011869D01*
X003609Y011931D01*
X003603Y011993D01*
X003601Y012056D01*
X003601Y015056D02*
X003603Y015119D01*
X003609Y015181D01*
X003619Y015243D01*
X003632Y015305D01*
X003650Y015365D01*
X003671Y015424D01*
X003696Y015482D01*
X003725Y015538D01*
X003757Y015592D01*
X003792Y015644D01*
X003830Y015693D01*
X003872Y015741D01*
X003916Y015785D01*
X003964Y015827D01*
X004013Y015865D01*
X004065Y015900D01*
X004119Y015932D01*
X004175Y015961D01*
X004233Y015986D01*
X004292Y016007D01*
X004352Y016025D01*
X004414Y016038D01*
X004476Y016048D01*
X004538Y016054D01*
X004601Y016056D01*
X004664Y016054D01*
X004726Y016048D01*
X004788Y016038D01*
X004850Y016025D01*
X004910Y016007D01*
X004969Y015986D01*
X005027Y015961D01*
X005083Y015932D01*
X005137Y015900D01*
X005189Y015865D01*
X005238Y015827D01*
X005286Y015785D01*
X005330Y015741D01*
X005372Y015693D01*
X005410Y015644D01*
X005445Y015592D01*
X005477Y015538D01*
X005506Y015482D01*
X005531Y015424D01*
X005552Y015365D01*
X005570Y015305D01*
X005583Y015243D01*
X005593Y015181D01*
X005599Y015119D01*
X005601Y015056D01*
X005599Y014993D01*
X005593Y014931D01*
X005583Y014869D01*
X005570Y014807D01*
X005552Y014747D01*
X005531Y014688D01*
X005506Y014630D01*
X005477Y014574D01*
X005445Y014520D01*
X005410Y014468D01*
X005372Y014419D01*
X005330Y014371D01*
X005286Y014327D01*
X005238Y014285D01*
X005189Y014247D01*
X005137Y014212D01*
X005083Y014180D01*
X005027Y014151D01*
X004969Y014126D01*
X004910Y014105D01*
X004850Y014087D01*
X004788Y014074D01*
X004726Y014064D01*
X004664Y014058D01*
X004601Y014056D01*
X004538Y014058D01*
X004476Y014064D01*
X004414Y014074D01*
X004352Y014087D01*
X004292Y014105D01*
X004233Y014126D01*
X004175Y014151D01*
X004119Y014180D01*
X004065Y014212D01*
X004013Y014247D01*
X003964Y014285D01*
X003916Y014327D01*
X003872Y014371D01*
X003830Y014419D01*
X003792Y014468D01*
X003757Y014520D01*
X003725Y014574D01*
X003696Y014630D01*
X003671Y014688D01*
X003650Y014747D01*
X003632Y014807D01*
X003619Y014869D01*
X003609Y014931D01*
X003603Y014993D01*
X003601Y015056D01*
X003601Y018056D02*
X003603Y018119D01*
X003609Y018181D01*
X003619Y018243D01*
X003632Y018305D01*
X003650Y018365D01*
X003671Y018424D01*
X003696Y018482D01*
X003725Y018538D01*
X003757Y018592D01*
X003792Y018644D01*
X003830Y018693D01*
X003872Y018741D01*
X003916Y018785D01*
X003964Y018827D01*
X004013Y018865D01*
X004065Y018900D01*
X004119Y018932D01*
X004175Y018961D01*
X004233Y018986D01*
X004292Y019007D01*
X004352Y019025D01*
X004414Y019038D01*
X004476Y019048D01*
X004538Y019054D01*
X004601Y019056D01*
X004664Y019054D01*
X004726Y019048D01*
X004788Y019038D01*
X004850Y019025D01*
X004910Y019007D01*
X004969Y018986D01*
X005027Y018961D01*
X005083Y018932D01*
X005137Y018900D01*
X005189Y018865D01*
X005238Y018827D01*
X005286Y018785D01*
X005330Y018741D01*
X005372Y018693D01*
X005410Y018644D01*
X005445Y018592D01*
X005477Y018538D01*
X005506Y018482D01*
X005531Y018424D01*
X005552Y018365D01*
X005570Y018305D01*
X005583Y018243D01*
X005593Y018181D01*
X005599Y018119D01*
X005601Y018056D01*
X005599Y017993D01*
X005593Y017931D01*
X005583Y017869D01*
X005570Y017807D01*
X005552Y017747D01*
X005531Y017688D01*
X005506Y017630D01*
X005477Y017574D01*
X005445Y017520D01*
X005410Y017468D01*
X005372Y017419D01*
X005330Y017371D01*
X005286Y017327D01*
X005238Y017285D01*
X005189Y017247D01*
X005137Y017212D01*
X005083Y017180D01*
X005027Y017151D01*
X004969Y017126D01*
X004910Y017105D01*
X004850Y017087D01*
X004788Y017074D01*
X004726Y017064D01*
X004664Y017058D01*
X004601Y017056D01*
X004538Y017058D01*
X004476Y017064D01*
X004414Y017074D01*
X004352Y017087D01*
X004292Y017105D01*
X004233Y017126D01*
X004175Y017151D01*
X004119Y017180D01*
X004065Y017212D01*
X004013Y017247D01*
X003964Y017285D01*
X003916Y017327D01*
X003872Y017371D01*
X003830Y017419D01*
X003792Y017468D01*
X003757Y017520D01*
X003725Y017574D01*
X003696Y017630D01*
X003671Y017688D01*
X003650Y017747D01*
X003632Y017807D01*
X003619Y017869D01*
X003609Y017931D01*
X003603Y017993D01*
X003601Y018056D01*
X003601Y021056D02*
X003603Y021119D01*
X003609Y021181D01*
X003619Y021243D01*
X003632Y021305D01*
X003650Y021365D01*
X003671Y021424D01*
X003696Y021482D01*
X003725Y021538D01*
X003757Y021592D01*
X003792Y021644D01*
X003830Y021693D01*
X003872Y021741D01*
X003916Y021785D01*
X003964Y021827D01*
X004013Y021865D01*
X004065Y021900D01*
X004119Y021932D01*
X004175Y021961D01*
X004233Y021986D01*
X004292Y022007D01*
X004352Y022025D01*
X004414Y022038D01*
X004476Y022048D01*
X004538Y022054D01*
X004601Y022056D01*
X004664Y022054D01*
X004726Y022048D01*
X004788Y022038D01*
X004850Y022025D01*
X004910Y022007D01*
X004969Y021986D01*
X005027Y021961D01*
X005083Y021932D01*
X005137Y021900D01*
X005189Y021865D01*
X005238Y021827D01*
X005286Y021785D01*
X005330Y021741D01*
X005372Y021693D01*
X005410Y021644D01*
X005445Y021592D01*
X005477Y021538D01*
X005506Y021482D01*
X005531Y021424D01*
X005552Y021365D01*
X005570Y021305D01*
X005583Y021243D01*
X005593Y021181D01*
X005599Y021119D01*
X005601Y021056D01*
X005599Y020993D01*
X005593Y020931D01*
X005583Y020869D01*
X005570Y020807D01*
X005552Y020747D01*
X005531Y020688D01*
X005506Y020630D01*
X005477Y020574D01*
X005445Y020520D01*
X005410Y020468D01*
X005372Y020419D01*
X005330Y020371D01*
X005286Y020327D01*
X005238Y020285D01*
X005189Y020247D01*
X005137Y020212D01*
X005083Y020180D01*
X005027Y020151D01*
X004969Y020126D01*
X004910Y020105D01*
X004850Y020087D01*
X004788Y020074D01*
X004726Y020064D01*
X004664Y020058D01*
X004601Y020056D01*
X004538Y020058D01*
X004476Y020064D01*
X004414Y020074D01*
X004352Y020087D01*
X004292Y020105D01*
X004233Y020126D01*
X004175Y020151D01*
X004119Y020180D01*
X004065Y020212D01*
X004013Y020247D01*
X003964Y020285D01*
X003916Y020327D01*
X003872Y020371D01*
X003830Y020419D01*
X003792Y020468D01*
X003757Y020520D01*
X003725Y020574D01*
X003696Y020630D01*
X003671Y020688D01*
X003650Y020747D01*
X003632Y020807D01*
X003619Y020869D01*
X003609Y020931D01*
X003603Y020993D01*
X003601Y021056D01*
X003601Y024056D02*
X003603Y024119D01*
X003609Y024181D01*
X003619Y024243D01*
X003632Y024305D01*
X003650Y024365D01*
X003671Y024424D01*
X003696Y024482D01*
X003725Y024538D01*
X003757Y024592D01*
X003792Y024644D01*
X003830Y024693D01*
X003872Y024741D01*
X003916Y024785D01*
X003964Y024827D01*
X004013Y024865D01*
X004065Y024900D01*
X004119Y024932D01*
X004175Y024961D01*
X004233Y024986D01*
X004292Y025007D01*
X004352Y025025D01*
X004414Y025038D01*
X004476Y025048D01*
X004538Y025054D01*
X004601Y025056D01*
X004664Y025054D01*
X004726Y025048D01*
X004788Y025038D01*
X004850Y025025D01*
X004910Y025007D01*
X004969Y024986D01*
X005027Y024961D01*
X005083Y024932D01*
X005137Y024900D01*
X005189Y024865D01*
X005238Y024827D01*
X005286Y024785D01*
X005330Y024741D01*
X005372Y024693D01*
X005410Y024644D01*
X005445Y024592D01*
X005477Y024538D01*
X005506Y024482D01*
X005531Y024424D01*
X005552Y024365D01*
X005570Y024305D01*
X005583Y024243D01*
X005593Y024181D01*
X005599Y024119D01*
X005601Y024056D01*
X005599Y023993D01*
X005593Y023931D01*
X005583Y023869D01*
X005570Y023807D01*
X005552Y023747D01*
X005531Y023688D01*
X005506Y023630D01*
X005477Y023574D01*
X005445Y023520D01*
X005410Y023468D01*
X005372Y023419D01*
X005330Y023371D01*
X005286Y023327D01*
X005238Y023285D01*
X005189Y023247D01*
X005137Y023212D01*
X005083Y023180D01*
X005027Y023151D01*
X004969Y023126D01*
X004910Y023105D01*
X004850Y023087D01*
X004788Y023074D01*
X004726Y023064D01*
X004664Y023058D01*
X004601Y023056D01*
X004538Y023058D01*
X004476Y023064D01*
X004414Y023074D01*
X004352Y023087D01*
X004292Y023105D01*
X004233Y023126D01*
X004175Y023151D01*
X004119Y023180D01*
X004065Y023212D01*
X004013Y023247D01*
X003964Y023285D01*
X003916Y023327D01*
X003872Y023371D01*
X003830Y023419D01*
X003792Y023468D01*
X003757Y023520D01*
X003725Y023574D01*
X003696Y023630D01*
X003671Y023688D01*
X003650Y023747D01*
X003632Y023807D01*
X003619Y023869D01*
X003609Y023931D01*
X003603Y023993D01*
X003601Y024056D01*
X003601Y027056D02*
X003603Y027119D01*
X003609Y027181D01*
X003619Y027243D01*
X003632Y027305D01*
X003650Y027365D01*
X003671Y027424D01*
X003696Y027482D01*
X003725Y027538D01*
X003757Y027592D01*
X003792Y027644D01*
X003830Y027693D01*
X003872Y027741D01*
X003916Y027785D01*
X003964Y027827D01*
X004013Y027865D01*
X004065Y027900D01*
X004119Y027932D01*
X004175Y027961D01*
X004233Y027986D01*
X004292Y028007D01*
X004352Y028025D01*
X004414Y028038D01*
X004476Y028048D01*
X004538Y028054D01*
X004601Y028056D01*
X004664Y028054D01*
X004726Y028048D01*
X004788Y028038D01*
X004850Y028025D01*
X004910Y028007D01*
X004969Y027986D01*
X005027Y027961D01*
X005083Y027932D01*
X005137Y027900D01*
X005189Y027865D01*
X005238Y027827D01*
X005286Y027785D01*
X005330Y027741D01*
X005372Y027693D01*
X005410Y027644D01*
X005445Y027592D01*
X005477Y027538D01*
X005506Y027482D01*
X005531Y027424D01*
X005552Y027365D01*
X005570Y027305D01*
X005583Y027243D01*
X005593Y027181D01*
X005599Y027119D01*
X005601Y027056D01*
X005599Y026993D01*
X005593Y026931D01*
X005583Y026869D01*
X005570Y026807D01*
X005552Y026747D01*
X005531Y026688D01*
X005506Y026630D01*
X005477Y026574D01*
X005445Y026520D01*
X005410Y026468D01*
X005372Y026419D01*
X005330Y026371D01*
X005286Y026327D01*
X005238Y026285D01*
X005189Y026247D01*
X005137Y026212D01*
X005083Y026180D01*
X005027Y026151D01*
X004969Y026126D01*
X004910Y026105D01*
X004850Y026087D01*
X004788Y026074D01*
X004726Y026064D01*
X004664Y026058D01*
X004601Y026056D01*
X004538Y026058D01*
X004476Y026064D01*
X004414Y026074D01*
X004352Y026087D01*
X004292Y026105D01*
X004233Y026126D01*
X004175Y026151D01*
X004119Y026180D01*
X004065Y026212D01*
X004013Y026247D01*
X003964Y026285D01*
X003916Y026327D01*
X003872Y026371D01*
X003830Y026419D01*
X003792Y026468D01*
X003757Y026520D01*
X003725Y026574D01*
X003696Y026630D01*
X003671Y026688D01*
X003650Y026747D01*
X003632Y026807D01*
X003619Y026869D01*
X003609Y026931D01*
X003603Y026993D01*
X003601Y027056D01*
X003601Y030056D02*
X003603Y030119D01*
X003609Y030181D01*
X003619Y030243D01*
X003632Y030305D01*
X003650Y030365D01*
X003671Y030424D01*
X003696Y030482D01*
X003725Y030538D01*
X003757Y030592D01*
X003792Y030644D01*
X003830Y030693D01*
X003872Y030741D01*
X003916Y030785D01*
X003964Y030827D01*
X004013Y030865D01*
X004065Y030900D01*
X004119Y030932D01*
X004175Y030961D01*
X004233Y030986D01*
X004292Y031007D01*
X004352Y031025D01*
X004414Y031038D01*
X004476Y031048D01*
X004538Y031054D01*
X004601Y031056D01*
X004664Y031054D01*
X004726Y031048D01*
X004788Y031038D01*
X004850Y031025D01*
X004910Y031007D01*
X004969Y030986D01*
X005027Y030961D01*
X005083Y030932D01*
X005137Y030900D01*
X005189Y030865D01*
X005238Y030827D01*
X005286Y030785D01*
X005330Y030741D01*
X005372Y030693D01*
X005410Y030644D01*
X005445Y030592D01*
X005477Y030538D01*
X005506Y030482D01*
X005531Y030424D01*
X005552Y030365D01*
X005570Y030305D01*
X005583Y030243D01*
X005593Y030181D01*
X005599Y030119D01*
X005601Y030056D01*
X005599Y029993D01*
X005593Y029931D01*
X005583Y029869D01*
X005570Y029807D01*
X005552Y029747D01*
X005531Y029688D01*
X005506Y029630D01*
X005477Y029574D01*
X005445Y029520D01*
X005410Y029468D01*
X005372Y029419D01*
X005330Y029371D01*
X005286Y029327D01*
X005238Y029285D01*
X005189Y029247D01*
X005137Y029212D01*
X005083Y029180D01*
X005027Y029151D01*
X004969Y029126D01*
X004910Y029105D01*
X004850Y029087D01*
X004788Y029074D01*
X004726Y029064D01*
X004664Y029058D01*
X004601Y029056D01*
X004538Y029058D01*
X004476Y029064D01*
X004414Y029074D01*
X004352Y029087D01*
X004292Y029105D01*
X004233Y029126D01*
X004175Y029151D01*
X004119Y029180D01*
X004065Y029212D01*
X004013Y029247D01*
X003964Y029285D01*
X003916Y029327D01*
X003872Y029371D01*
X003830Y029419D01*
X003792Y029468D01*
X003757Y029520D01*
X003725Y029574D01*
X003696Y029630D01*
X003671Y029688D01*
X003650Y029747D01*
X003632Y029807D01*
X003619Y029869D01*
X003609Y029931D01*
X003603Y029993D01*
X003601Y030056D01*
X003601Y033056D02*
X003603Y033119D01*
X003609Y033181D01*
X003619Y033243D01*
X003632Y033305D01*
X003650Y033365D01*
X003671Y033424D01*
X003696Y033482D01*
X003725Y033538D01*
X003757Y033592D01*
X003792Y033644D01*
X003830Y033693D01*
X003872Y033741D01*
X003916Y033785D01*
X003964Y033827D01*
X004013Y033865D01*
X004065Y033900D01*
X004119Y033932D01*
X004175Y033961D01*
X004233Y033986D01*
X004292Y034007D01*
X004352Y034025D01*
X004414Y034038D01*
X004476Y034048D01*
X004538Y034054D01*
X004601Y034056D01*
X004664Y034054D01*
X004726Y034048D01*
X004788Y034038D01*
X004850Y034025D01*
X004910Y034007D01*
X004969Y033986D01*
X005027Y033961D01*
X005083Y033932D01*
X005137Y033900D01*
X005189Y033865D01*
X005238Y033827D01*
X005286Y033785D01*
X005330Y033741D01*
X005372Y033693D01*
X005410Y033644D01*
X005445Y033592D01*
X005477Y033538D01*
X005506Y033482D01*
X005531Y033424D01*
X005552Y033365D01*
X005570Y033305D01*
X005583Y033243D01*
X005593Y033181D01*
X005599Y033119D01*
X005601Y033056D01*
X005599Y032993D01*
X005593Y032931D01*
X005583Y032869D01*
X005570Y032807D01*
X005552Y032747D01*
X005531Y032688D01*
X005506Y032630D01*
X005477Y032574D01*
X005445Y032520D01*
X005410Y032468D01*
X005372Y032419D01*
X005330Y032371D01*
X005286Y032327D01*
X005238Y032285D01*
X005189Y032247D01*
X005137Y032212D01*
X005083Y032180D01*
X005027Y032151D01*
X004969Y032126D01*
X004910Y032105D01*
X004850Y032087D01*
X004788Y032074D01*
X004726Y032064D01*
X004664Y032058D01*
X004601Y032056D01*
X004538Y032058D01*
X004476Y032064D01*
X004414Y032074D01*
X004352Y032087D01*
X004292Y032105D01*
X004233Y032126D01*
X004175Y032151D01*
X004119Y032180D01*
X004065Y032212D01*
X004013Y032247D01*
X003964Y032285D01*
X003916Y032327D01*
X003872Y032371D01*
X003830Y032419D01*
X003792Y032468D01*
X003757Y032520D01*
X003725Y032574D01*
X003696Y032630D01*
X003671Y032688D01*
X003650Y032747D01*
X003632Y032807D01*
X003619Y032869D01*
X003609Y032931D01*
X003603Y032993D01*
X003601Y033056D01*
D12*
X003601Y033806D02*
X003601Y032306D01*
X003601Y027806D02*
X003601Y026306D01*
X003601Y021806D02*
X003601Y020306D01*
X003601Y015806D02*
X003601Y014306D01*
X005601Y012806D02*
X005601Y011306D01*
X007244Y006845D02*
X007244Y002267D01*
X008957Y002267D01*
X008957Y006845D01*
X007244Y006845D01*
X005601Y017306D02*
X005601Y018806D01*
X005601Y023306D02*
X005601Y024806D01*
X005601Y029306D02*
X005601Y030806D01*
X001101Y008656D02*
X001101Y008556D01*
X001401Y008556D01*
X001401Y006556D01*
X001101Y006556D01*
X001101Y006456D01*
X001101Y006556D02*
X000801Y006556D01*
X000801Y008556D01*
X001101Y008556D01*
D13*
X005601Y011306D02*
X005558Y011252D01*
X005512Y011200D01*
X005463Y011151D01*
X005411Y011104D01*
X005357Y011061D01*
X005301Y011020D01*
X005242Y010983D01*
X005182Y010949D01*
X005119Y010919D01*
X005056Y010892D01*
X004990Y010868D01*
X004924Y010848D01*
X004856Y010832D01*
X004788Y010820D01*
X004719Y010812D01*
X004650Y010807D01*
X004580Y010806D01*
X004511Y010809D01*
X004442Y010816D01*
X004374Y010827D01*
X004306Y010841D01*
X004239Y010860D01*
X004173Y010882D01*
X004108Y010907D01*
X004045Y010936D01*
X003984Y010969D01*
X003925Y011005D01*
X003868Y011044D01*
X003812Y011086D01*
X003760Y011131D01*
X003710Y011179D01*
X003663Y011230D01*
X003618Y011284D01*
X003577Y011339D01*
X003539Y011397D01*
X003504Y011457D01*
X003472Y011519D01*
X003444Y011582D01*
X003420Y011647D01*
X003399Y011713D01*
X003382Y011781D01*
X003368Y011849D01*
X003359Y011918D01*
X003353Y011987D01*
X003351Y012056D01*
X003353Y012125D01*
X003359Y012194D01*
X003368Y012263D01*
X003382Y012331D01*
X003399Y012399D01*
X003420Y012465D01*
X003444Y012530D01*
X003472Y012593D01*
X003504Y012655D01*
X003539Y012715D01*
X003577Y012773D01*
X003618Y012828D01*
X003663Y012882D01*
X003710Y012933D01*
X003760Y012981D01*
X003812Y013026D01*
X003868Y013068D01*
X003925Y013107D01*
X003984Y013143D01*
X004045Y013176D01*
X004108Y013205D01*
X004173Y013230D01*
X004239Y013252D01*
X004306Y013271D01*
X004374Y013285D01*
X004442Y013296D01*
X004511Y013303D01*
X004580Y013306D01*
X004650Y013305D01*
X004719Y013300D01*
X004788Y013292D01*
X004856Y013280D01*
X004924Y013264D01*
X004990Y013244D01*
X005056Y013220D01*
X005119Y013193D01*
X005182Y013163D01*
X005242Y013129D01*
X005301Y013092D01*
X005357Y013051D01*
X005411Y013008D01*
X005463Y012961D01*
X005512Y012912D01*
X005558Y012860D01*
X005601Y012806D01*
X003601Y014306D02*
X003644Y014252D01*
X003690Y014200D01*
X003739Y014151D01*
X003791Y014104D01*
X003845Y014061D01*
X003901Y014020D01*
X003960Y013983D01*
X004020Y013949D01*
X004083Y013919D01*
X004146Y013892D01*
X004212Y013868D01*
X004278Y013848D01*
X004346Y013832D01*
X004414Y013820D01*
X004483Y013812D01*
X004552Y013807D01*
X004622Y013806D01*
X004691Y013809D01*
X004760Y013816D01*
X004828Y013827D01*
X004896Y013841D01*
X004963Y013860D01*
X005029Y013882D01*
X005094Y013907D01*
X005157Y013936D01*
X005218Y013969D01*
X005277Y014005D01*
X005334Y014044D01*
X005390Y014086D01*
X005442Y014131D01*
X005492Y014179D01*
X005539Y014230D01*
X005584Y014284D01*
X005625Y014339D01*
X005663Y014397D01*
X005698Y014457D01*
X005730Y014519D01*
X005758Y014582D01*
X005782Y014647D01*
X005803Y014713D01*
X005820Y014781D01*
X005834Y014849D01*
X005843Y014918D01*
X005849Y014987D01*
X005851Y015056D01*
X005849Y015125D01*
X005843Y015194D01*
X005834Y015263D01*
X005820Y015331D01*
X005803Y015399D01*
X005782Y015465D01*
X005758Y015530D01*
X005730Y015593D01*
X005698Y015655D01*
X005663Y015715D01*
X005625Y015773D01*
X005584Y015828D01*
X005539Y015882D01*
X005492Y015933D01*
X005442Y015981D01*
X005390Y016026D01*
X005334Y016068D01*
X005277Y016107D01*
X005218Y016143D01*
X005157Y016176D01*
X005094Y016205D01*
X005029Y016230D01*
X004963Y016252D01*
X004896Y016271D01*
X004828Y016285D01*
X004760Y016296D01*
X004691Y016303D01*
X004622Y016306D01*
X004552Y016305D01*
X004483Y016300D01*
X004414Y016292D01*
X004346Y016280D01*
X004278Y016264D01*
X004212Y016244D01*
X004146Y016220D01*
X004083Y016193D01*
X004020Y016163D01*
X003960Y016129D01*
X003901Y016092D01*
X003845Y016051D01*
X003791Y016008D01*
X003739Y015961D01*
X003690Y015912D01*
X003644Y015860D01*
X003601Y015806D01*
X005601Y017306D02*
X005558Y017252D01*
X005512Y017200D01*
X005463Y017151D01*
X005411Y017104D01*
X005357Y017061D01*
X005301Y017020D01*
X005242Y016983D01*
X005182Y016949D01*
X005119Y016919D01*
X005056Y016892D01*
X004990Y016868D01*
X004924Y016848D01*
X004856Y016832D01*
X004788Y016820D01*
X004719Y016812D01*
X004650Y016807D01*
X004580Y016806D01*
X004511Y016809D01*
X004442Y016816D01*
X004374Y016827D01*
X004306Y016841D01*
X004239Y016860D01*
X004173Y016882D01*
X004108Y016907D01*
X004045Y016936D01*
X003984Y016969D01*
X003925Y017005D01*
X003868Y017044D01*
X003812Y017086D01*
X003760Y017131D01*
X003710Y017179D01*
X003663Y017230D01*
X003618Y017284D01*
X003577Y017339D01*
X003539Y017397D01*
X003504Y017457D01*
X003472Y017519D01*
X003444Y017582D01*
X003420Y017647D01*
X003399Y017713D01*
X003382Y017781D01*
X003368Y017849D01*
X003359Y017918D01*
X003353Y017987D01*
X003351Y018056D01*
X003353Y018125D01*
X003359Y018194D01*
X003368Y018263D01*
X003382Y018331D01*
X003399Y018399D01*
X003420Y018465D01*
X003444Y018530D01*
X003472Y018593D01*
X003504Y018655D01*
X003539Y018715D01*
X003577Y018773D01*
X003618Y018828D01*
X003663Y018882D01*
X003710Y018933D01*
X003760Y018981D01*
X003812Y019026D01*
X003868Y019068D01*
X003925Y019107D01*
X003984Y019143D01*
X004045Y019176D01*
X004108Y019205D01*
X004173Y019230D01*
X004239Y019252D01*
X004306Y019271D01*
X004374Y019285D01*
X004442Y019296D01*
X004511Y019303D01*
X004580Y019306D01*
X004650Y019305D01*
X004719Y019300D01*
X004788Y019292D01*
X004856Y019280D01*
X004924Y019264D01*
X004990Y019244D01*
X005056Y019220D01*
X005119Y019193D01*
X005182Y019163D01*
X005242Y019129D01*
X005301Y019092D01*
X005357Y019051D01*
X005411Y019008D01*
X005463Y018961D01*
X005512Y018912D01*
X005558Y018860D01*
X005601Y018806D01*
X003601Y020306D02*
X003644Y020252D01*
X003690Y020200D01*
X003739Y020151D01*
X003791Y020104D01*
X003845Y020061D01*
X003901Y020020D01*
X003960Y019983D01*
X004020Y019949D01*
X004083Y019919D01*
X004146Y019892D01*
X004212Y019868D01*
X004278Y019848D01*
X004346Y019832D01*
X004414Y019820D01*
X004483Y019812D01*
X004552Y019807D01*
X004622Y019806D01*
X004691Y019809D01*
X004760Y019816D01*
X004828Y019827D01*
X004896Y019841D01*
X004963Y019860D01*
X005029Y019882D01*
X005094Y019907D01*
X005157Y019936D01*
X005218Y019969D01*
X005277Y020005D01*
X005334Y020044D01*
X005390Y020086D01*
X005442Y020131D01*
X005492Y020179D01*
X005539Y020230D01*
X005584Y020284D01*
X005625Y020339D01*
X005663Y020397D01*
X005698Y020457D01*
X005730Y020519D01*
X005758Y020582D01*
X005782Y020647D01*
X005803Y020713D01*
X005820Y020781D01*
X005834Y020849D01*
X005843Y020918D01*
X005849Y020987D01*
X005851Y021056D01*
X005849Y021125D01*
X005843Y021194D01*
X005834Y021263D01*
X005820Y021331D01*
X005803Y021399D01*
X005782Y021465D01*
X005758Y021530D01*
X005730Y021593D01*
X005698Y021655D01*
X005663Y021715D01*
X005625Y021773D01*
X005584Y021828D01*
X005539Y021882D01*
X005492Y021933D01*
X005442Y021981D01*
X005390Y022026D01*
X005334Y022068D01*
X005277Y022107D01*
X005218Y022143D01*
X005157Y022176D01*
X005094Y022205D01*
X005029Y022230D01*
X004963Y022252D01*
X004896Y022271D01*
X004828Y022285D01*
X004760Y022296D01*
X004691Y022303D01*
X004622Y022306D01*
X004552Y022305D01*
X004483Y022300D01*
X004414Y022292D01*
X004346Y022280D01*
X004278Y022264D01*
X004212Y022244D01*
X004146Y022220D01*
X004083Y022193D01*
X004020Y022163D01*
X003960Y022129D01*
X003901Y022092D01*
X003845Y022051D01*
X003791Y022008D01*
X003739Y021961D01*
X003690Y021912D01*
X003644Y021860D01*
X003601Y021806D01*
X005601Y023306D02*
X005558Y023252D01*
X005512Y023200D01*
X005463Y023151D01*
X005411Y023104D01*
X005357Y023061D01*
X005301Y023020D01*
X005242Y022983D01*
X005182Y022949D01*
X005119Y022919D01*
X005056Y022892D01*
X004990Y022868D01*
X004924Y022848D01*
X004856Y022832D01*
X004788Y022820D01*
X004719Y022812D01*
X004650Y022807D01*
X004580Y022806D01*
X004511Y022809D01*
X004442Y022816D01*
X004374Y022827D01*
X004306Y022841D01*
X004239Y022860D01*
X004173Y022882D01*
X004108Y022907D01*
X004045Y022936D01*
X003984Y022969D01*
X003925Y023005D01*
X003868Y023044D01*
X003812Y023086D01*
X003760Y023131D01*
X003710Y023179D01*
X003663Y023230D01*
X003618Y023284D01*
X003577Y023339D01*
X003539Y023397D01*
X003504Y023457D01*
X003472Y023519D01*
X003444Y023582D01*
X003420Y023647D01*
X003399Y023713D01*
X003382Y023781D01*
X003368Y023849D01*
X003359Y023918D01*
X003353Y023987D01*
X003351Y024056D01*
X003353Y024125D01*
X003359Y024194D01*
X003368Y024263D01*
X003382Y024331D01*
X003399Y024399D01*
X003420Y024465D01*
X003444Y024530D01*
X003472Y024593D01*
X003504Y024655D01*
X003539Y024715D01*
X003577Y024773D01*
X003618Y024828D01*
X003663Y024882D01*
X003710Y024933D01*
X003760Y024981D01*
X003812Y025026D01*
X003868Y025068D01*
X003925Y025107D01*
X003984Y025143D01*
X004045Y025176D01*
X004108Y025205D01*
X004173Y025230D01*
X004239Y025252D01*
X004306Y025271D01*
X004374Y025285D01*
X004442Y025296D01*
X004511Y025303D01*
X004580Y025306D01*
X004650Y025305D01*
X004719Y025300D01*
X004788Y025292D01*
X004856Y025280D01*
X004924Y025264D01*
X004990Y025244D01*
X005056Y025220D01*
X005119Y025193D01*
X005182Y025163D01*
X005242Y025129D01*
X005301Y025092D01*
X005357Y025051D01*
X005411Y025008D01*
X005463Y024961D01*
X005512Y024912D01*
X005558Y024860D01*
X005601Y024806D01*
X003601Y026306D02*
X003644Y026252D01*
X003690Y026200D01*
X003739Y026151D01*
X003791Y026104D01*
X003845Y026061D01*
X003901Y026020D01*
X003960Y025983D01*
X004020Y025949D01*
X004083Y025919D01*
X004146Y025892D01*
X004212Y025868D01*
X004278Y025848D01*
X004346Y025832D01*
X004414Y025820D01*
X004483Y025812D01*
X004552Y025807D01*
X004622Y025806D01*
X004691Y025809D01*
X004760Y025816D01*
X004828Y025827D01*
X004896Y025841D01*
X004963Y025860D01*
X005029Y025882D01*
X005094Y025907D01*
X005157Y025936D01*
X005218Y025969D01*
X005277Y026005D01*
X005334Y026044D01*
X005390Y026086D01*
X005442Y026131D01*
X005492Y026179D01*
X005539Y026230D01*
X005584Y026284D01*
X005625Y026339D01*
X005663Y026397D01*
X005698Y026457D01*
X005730Y026519D01*
X005758Y026582D01*
X005782Y026647D01*
X005803Y026713D01*
X005820Y026781D01*
X005834Y026849D01*
X005843Y026918D01*
X005849Y026987D01*
X005851Y027056D01*
X005849Y027125D01*
X005843Y027194D01*
X005834Y027263D01*
X005820Y027331D01*
X005803Y027399D01*
X005782Y027465D01*
X005758Y027530D01*
X005730Y027593D01*
X005698Y027655D01*
X005663Y027715D01*
X005625Y027773D01*
X005584Y027828D01*
X005539Y027882D01*
X005492Y027933D01*
X005442Y027981D01*
X005390Y028026D01*
X005334Y028068D01*
X005277Y028107D01*
X005218Y028143D01*
X005157Y028176D01*
X005094Y028205D01*
X005029Y028230D01*
X004963Y028252D01*
X004896Y028271D01*
X004828Y028285D01*
X004760Y028296D01*
X004691Y028303D01*
X004622Y028306D01*
X004552Y028305D01*
X004483Y028300D01*
X004414Y028292D01*
X004346Y028280D01*
X004278Y028264D01*
X004212Y028244D01*
X004146Y028220D01*
X004083Y028193D01*
X004020Y028163D01*
X003960Y028129D01*
X003901Y028092D01*
X003845Y028051D01*
X003791Y028008D01*
X003739Y027961D01*
X003690Y027912D01*
X003644Y027860D01*
X003601Y027806D01*
X005601Y029306D02*
X005558Y029252D01*
X005512Y029200D01*
X005463Y029151D01*
X005411Y029104D01*
X005357Y029061D01*
X005301Y029020D01*
X005242Y028983D01*
X005182Y028949D01*
X005119Y028919D01*
X005056Y028892D01*
X004990Y028868D01*
X004924Y028848D01*
X004856Y028832D01*
X004788Y028820D01*
X004719Y028812D01*
X004650Y028807D01*
X004580Y028806D01*
X004511Y028809D01*
X004442Y028816D01*
X004374Y028827D01*
X004306Y028841D01*
X004239Y028860D01*
X004173Y028882D01*
X004108Y028907D01*
X004045Y028936D01*
X003984Y028969D01*
X003925Y029005D01*
X003868Y029044D01*
X003812Y029086D01*
X003760Y029131D01*
X003710Y029179D01*
X003663Y029230D01*
X003618Y029284D01*
X003577Y029339D01*
X003539Y029397D01*
X003504Y029457D01*
X003472Y029519D01*
X003444Y029582D01*
X003420Y029647D01*
X003399Y029713D01*
X003382Y029781D01*
X003368Y029849D01*
X003359Y029918D01*
X003353Y029987D01*
X003351Y030056D01*
X003353Y030125D01*
X003359Y030194D01*
X003368Y030263D01*
X003382Y030331D01*
X003399Y030399D01*
X003420Y030465D01*
X003444Y030530D01*
X003472Y030593D01*
X003504Y030655D01*
X003539Y030715D01*
X003577Y030773D01*
X003618Y030828D01*
X003663Y030882D01*
X003710Y030933D01*
X003760Y030981D01*
X003812Y031026D01*
X003868Y031068D01*
X003925Y031107D01*
X003984Y031143D01*
X004045Y031176D01*
X004108Y031205D01*
X004173Y031230D01*
X004239Y031252D01*
X004306Y031271D01*
X004374Y031285D01*
X004442Y031296D01*
X004511Y031303D01*
X004580Y031306D01*
X004650Y031305D01*
X004719Y031300D01*
X004788Y031292D01*
X004856Y031280D01*
X004924Y031264D01*
X004990Y031244D01*
X005056Y031220D01*
X005119Y031193D01*
X005182Y031163D01*
X005242Y031129D01*
X005301Y031092D01*
X005357Y031051D01*
X005411Y031008D01*
X005463Y030961D01*
X005512Y030912D01*
X005558Y030860D01*
X005601Y030806D01*
X003601Y032306D02*
X003644Y032252D01*
X003690Y032200D01*
X003739Y032151D01*
X003791Y032104D01*
X003845Y032061D01*
X003901Y032020D01*
X003960Y031983D01*
X004020Y031949D01*
X004083Y031919D01*
X004146Y031892D01*
X004212Y031868D01*
X004278Y031848D01*
X004346Y031832D01*
X004414Y031820D01*
X004483Y031812D01*
X004552Y031807D01*
X004622Y031806D01*
X004691Y031809D01*
X004760Y031816D01*
X004828Y031827D01*
X004896Y031841D01*
X004963Y031860D01*
X005029Y031882D01*
X005094Y031907D01*
X005157Y031936D01*
X005218Y031969D01*
X005277Y032005D01*
X005334Y032044D01*
X005390Y032086D01*
X005442Y032131D01*
X005492Y032179D01*
X005539Y032230D01*
X005584Y032284D01*
X005625Y032339D01*
X005663Y032397D01*
X005698Y032457D01*
X005730Y032519D01*
X005758Y032582D01*
X005782Y032647D01*
X005803Y032713D01*
X005820Y032781D01*
X005834Y032849D01*
X005843Y032918D01*
X005849Y032987D01*
X005851Y033056D01*
X005849Y033125D01*
X005843Y033194D01*
X005834Y033263D01*
X005820Y033331D01*
X005803Y033399D01*
X005782Y033465D01*
X005758Y033530D01*
X005730Y033593D01*
X005698Y033655D01*
X005663Y033715D01*
X005625Y033773D01*
X005584Y033828D01*
X005539Y033882D01*
X005492Y033933D01*
X005442Y033981D01*
X005390Y034026D01*
X005334Y034068D01*
X005277Y034107D01*
X005218Y034143D01*
X005157Y034176D01*
X005094Y034205D01*
X005029Y034230D01*
X004963Y034252D01*
X004896Y034271D01*
X004828Y034285D01*
X004760Y034296D01*
X004691Y034303D01*
X004622Y034306D01*
X004552Y034305D01*
X004483Y034300D01*
X004414Y034292D01*
X004346Y034280D01*
X004278Y034264D01*
X004212Y034244D01*
X004146Y034220D01*
X004083Y034193D01*
X004020Y034163D01*
X003960Y034129D01*
X003901Y034092D01*
X003845Y034051D01*
X003791Y034008D01*
X003739Y033961D01*
X003690Y033912D01*
X003644Y033860D01*
X003601Y033806D01*
D14*
X001196Y008267D02*
X001061Y008131D01*
X001106Y008086D02*
X000926Y008267D01*
X000926Y008086D02*
X001196Y008086D01*
X000971Y007972D02*
X001151Y007792D01*
X001196Y007792D01*
X001196Y007689D02*
X001196Y007644D01*
X001151Y007644D01*
X001151Y007689D01*
X001196Y007689D01*
X001196Y007485D02*
X000926Y007485D01*
X001061Y007350D01*
X001061Y007530D01*
X000926Y007792D02*
X000926Y007972D01*
X000971Y007972D01*
M02*
