%
M48
M72
T01C0.0320
T02C0.0354
T03C0.0400
T04C0.0512
%
T01
X3101Y6056
X3101Y9056
X4101Y9056
X4101Y12056
X4101Y15056
X4101Y18056
X4101Y21056
X4101Y24056
X4101Y27056
X4101Y30056
X4101Y33056
X5101Y33056
X5101Y30056
X5101Y27056
X5101Y24056
X5101Y21056
X5101Y18056
X5101Y15056
X5101Y12056
X5101Y9056
X5101Y6056
X6101Y6056
X6101Y9056
X4101Y6056
T02
X1101Y6056
X1101Y9056
T03
X1101Y3056
X1101Y4056
X2101Y4056
X2101Y3056
X3101Y3056
X3101Y4056
X8101Y3556
X8101Y4556
X8101Y5556
T04
X4601Y3056
X4601Y10930
M30
