G75*
G70*
%OFA0B0*%
%FSLAX24Y24*%
%IPPOS*%
%LPD*%
%AMOC8*
5,1,8,0,0,1.08239X$1,22.5*
%
%ADD10C,0.0520*%
%ADD11OC8,0.0520*%
%ADD12C,0.0740*%
%ADD13C,0.0768*%
%ADD14R,0.0740X0.0740*%
%ADD15OC8,0.0740*%
%ADD16C,0.0120*%
D10*
X003101Y005796D02*
X003101Y006316D01*
X003101Y008796D02*
X003101Y009316D01*
X004101Y009316D02*
X004101Y008796D01*
X004101Y006316D02*
X004101Y005796D01*
X005101Y005796D02*
X005101Y006316D01*
X005101Y008796D02*
X005101Y009316D01*
X006101Y009316D02*
X006101Y008796D01*
X006101Y006316D02*
X006101Y005796D01*
D11*
X005101Y012056D03*
X005101Y015056D03*
X005101Y018056D03*
X005101Y021056D03*
X005101Y024056D03*
X005101Y027056D03*
X005101Y030056D03*
X005101Y033056D03*
X004101Y033056D03*
X004101Y030056D03*
X004101Y027056D03*
X004101Y024056D03*
X004101Y021056D03*
X004101Y018056D03*
X004101Y015056D03*
X004101Y012056D03*
D12*
X001101Y009056D03*
X001101Y006056D03*
X008101Y005556D03*
X008101Y004556D03*
X008101Y003556D03*
D13*
X004601Y003056D03*
X004601Y010930D03*
D14*
X001101Y003056D03*
D15*
X001101Y004056D03*
X002101Y004056D03*
X002101Y003056D03*
X003101Y003056D03*
X003101Y004056D03*
D16*
X003701Y003736D02*
X003101Y003136D01*
X003101Y003056D01*
X002621Y002536D02*
X002101Y003056D01*
X002621Y002536D02*
X004061Y002536D01*
X004061Y005176D01*
X004541Y005656D01*
X004541Y008656D01*
X004181Y009016D01*
X004101Y009056D01*
X004061Y009136D01*
X004061Y011416D01*
X004661Y012016D01*
X004661Y017656D01*
X005021Y018016D01*
X005101Y018056D01*
X005141Y018136D01*
X005141Y021016D01*
X005101Y021056D01*
X005141Y021136D01*
X005141Y024016D01*
X005101Y024056D01*
X005141Y024136D01*
X005141Y027016D01*
X005101Y027056D01*
X005141Y027136D01*
X005141Y030016D01*
X005101Y030056D01*
X005141Y030136D01*
X005141Y033016D01*
X005101Y033056D01*
X004181Y033016D02*
X004181Y030136D01*
X004101Y030056D01*
X003461Y029416D01*
X003461Y015376D01*
X003581Y015256D01*
X003581Y006616D01*
X004061Y006136D01*
X004101Y006056D01*
X003701Y005416D02*
X003101Y006016D01*
X003101Y006056D01*
X003701Y005416D02*
X003701Y003736D01*
X003101Y009016D02*
X003101Y009056D01*
X003101Y009016D02*
X001661Y009016D01*
X001661Y004576D01*
X001181Y004096D01*
X001101Y004056D01*
X001181Y009016D02*
X001101Y009056D01*
X001181Y009016D02*
X001661Y009016D01*
X004061Y015136D02*
X003701Y015496D01*
X003701Y023656D01*
X004101Y024056D01*
X004181Y024136D01*
X004181Y027016D01*
X004101Y027056D01*
X004181Y033016D02*
X004101Y033056D01*
X004101Y021056D02*
X004181Y021016D01*
X004181Y018136D01*
X004101Y018056D01*
X004061Y015136D02*
X004101Y015056D01*
X004181Y015016D01*
X004181Y012136D01*
X004101Y012056D01*
X005101Y012056D02*
X005141Y012136D01*
X005141Y015016D01*
X005101Y015056D01*
X005101Y012056D02*
X005141Y012016D01*
X005141Y009136D01*
X005101Y009056D01*
M02*
