G75*
G70*
%OFA0B0*%
%FSLAX24Y24*%
%IPPOS*%
%LPD*%
%AMOC8*
5,1,8,0,0,1.08239X$1,22.5*
%
%ADD10C,0.0000*%
%ADD11C,0.0110*%
%ADD12C,0.0060*%
%ADD13C,0.0080*%
D10*
X007176Y000101D02*
X007176Y020097D01*
X027196Y020097D01*
X027196Y000101D01*
X007176Y000101D01*
D11*
X010872Y000456D02*
X010872Y000751D01*
X010971Y000849D01*
X011069Y000751D01*
X011069Y000456D01*
X011266Y000456D02*
X011266Y000849D01*
X011168Y000849D01*
X011069Y000751D01*
X011517Y000751D02*
X011517Y000554D01*
X011615Y000456D01*
X011812Y000456D01*
X011911Y000554D01*
X011911Y000751D01*
X011812Y000849D01*
X011615Y000849D01*
X011517Y000751D01*
X012161Y000849D02*
X012457Y000849D01*
X012555Y000751D01*
X012555Y000554D01*
X012457Y000456D01*
X012161Y000456D01*
X012779Y000456D02*
X012877Y000456D01*
X012877Y000554D01*
X012779Y000554D01*
X012779Y000456D01*
X013128Y000554D02*
X013227Y000653D01*
X013424Y000653D01*
X013522Y000751D01*
X013424Y000849D01*
X013128Y000849D01*
X013128Y000554D02*
X013227Y000456D01*
X013522Y000456D01*
X013773Y000456D02*
X014068Y000456D01*
X014166Y000554D01*
X014166Y000751D01*
X014068Y000849D01*
X013773Y000849D01*
X014498Y000849D02*
X014498Y000456D01*
X014596Y000456D02*
X014399Y000456D01*
X014847Y000456D02*
X014847Y000751D01*
X014945Y000849D01*
X015241Y000849D01*
X015241Y000456D01*
X015491Y000554D02*
X015491Y000751D01*
X015590Y000849D01*
X015787Y000849D01*
X015885Y000751D01*
X015885Y000554D01*
X015787Y000456D01*
X015590Y000456D01*
X015491Y000554D01*
X016127Y000849D02*
X016225Y000849D01*
X016422Y000653D01*
X016422Y000849D02*
X016422Y000456D01*
X016655Y000456D02*
X016754Y000554D01*
X016754Y000948D01*
X016852Y000849D02*
X016655Y000849D01*
X017103Y000751D02*
X017103Y000653D01*
X017496Y000653D01*
X017496Y000751D02*
X017398Y000849D01*
X017201Y000849D01*
X017103Y000751D01*
X017201Y000456D02*
X017398Y000456D01*
X017496Y000554D01*
X017496Y000751D01*
X017729Y000456D02*
X017926Y000456D01*
X017828Y000456D02*
X017828Y001046D01*
X017926Y001046D01*
X018177Y000849D02*
X018472Y000849D01*
X018571Y000751D01*
X018571Y000554D01*
X018472Y000456D01*
X018177Y000456D01*
X018177Y000357D02*
X018177Y000849D01*
X018177Y000357D02*
X018275Y000259D01*
X018374Y000259D01*
X018822Y000456D02*
X018822Y000751D01*
X018920Y000849D01*
X019215Y000849D01*
X019215Y000456D01*
X019466Y000456D02*
X019466Y000751D01*
X019564Y000849D01*
X019761Y000849D01*
X019761Y000653D02*
X019466Y000653D01*
X019466Y000456D02*
X019761Y000456D01*
X019860Y000554D01*
X019761Y000653D01*
X020093Y000751D02*
X020289Y000751D01*
X020191Y000948D02*
X020191Y000456D01*
X020513Y000456D02*
X020612Y000456D01*
X020612Y000554D01*
X020513Y000554D01*
X020513Y000456D01*
X020863Y000554D02*
X020863Y000849D01*
X021256Y000849D02*
X021256Y000554D01*
X021158Y000456D01*
X021059Y000554D01*
X020961Y000456D01*
X020863Y000554D01*
X021507Y000554D02*
X021507Y000849D01*
X021507Y000554D02*
X021605Y000456D01*
X021704Y000554D01*
X021802Y000456D01*
X021901Y000554D01*
X021901Y000849D01*
X022152Y000849D02*
X022152Y000554D01*
X022250Y000456D01*
X022348Y000554D01*
X022447Y000456D01*
X022545Y000554D01*
X022545Y000849D01*
X020191Y000948D02*
X020093Y001046D01*
X014596Y000849D02*
X014498Y000849D01*
X014498Y001046D02*
X014498Y001145D01*
D12*
X016776Y014101D02*
X016778Y014141D01*
X016784Y014180D01*
X016794Y014219D01*
X016807Y014256D01*
X016825Y014292D01*
X016846Y014326D01*
X016870Y014358D01*
X016897Y014387D01*
X016927Y014414D01*
X016959Y014437D01*
X016994Y014457D01*
X017030Y014473D01*
X017068Y014486D01*
X017107Y014495D01*
X017146Y014500D01*
X017186Y014501D01*
X017226Y014498D01*
X017265Y014491D01*
X017303Y014480D01*
X017341Y014466D01*
X017376Y014447D01*
X017409Y014426D01*
X017441Y014401D01*
X017469Y014373D01*
X017495Y014343D01*
X017517Y014310D01*
X017536Y014275D01*
X017552Y014238D01*
X017564Y014200D01*
X017572Y014161D01*
X017576Y014121D01*
X017576Y014081D01*
X017572Y014041D01*
X017564Y014002D01*
X017552Y013964D01*
X017536Y013927D01*
X017517Y013892D01*
X017495Y013859D01*
X017469Y013829D01*
X017441Y013801D01*
X017409Y013776D01*
X017376Y013755D01*
X017341Y013736D01*
X017303Y013722D01*
X017265Y013711D01*
X017226Y013704D01*
X017186Y013701D01*
X017146Y013702D01*
X017107Y013707D01*
X017068Y013716D01*
X017030Y013729D01*
X016994Y013745D01*
X016959Y013765D01*
X016927Y013788D01*
X016897Y013815D01*
X016870Y013844D01*
X016846Y013876D01*
X016825Y013910D01*
X016807Y013946D01*
X016794Y013983D01*
X016784Y014022D01*
X016778Y014061D01*
X016776Y014101D01*
X014726Y014101D02*
X014729Y014221D01*
X014738Y014341D01*
X014753Y014460D01*
X014773Y014579D01*
X014799Y014696D01*
X014831Y014812D01*
X014869Y014926D01*
X014912Y015039D01*
X014961Y015149D01*
X015015Y015256D01*
X015075Y015361D01*
X015139Y015462D01*
X015208Y015560D01*
X015282Y015655D01*
X015361Y015746D01*
X015444Y015833D01*
X015531Y015916D01*
X015622Y015995D01*
X015717Y016069D01*
X015815Y016138D01*
X015916Y016202D01*
X016021Y016262D01*
X016128Y016316D01*
X016238Y016365D01*
X016351Y016408D01*
X016465Y016446D01*
X016581Y016478D01*
X016698Y016504D01*
X016817Y016524D01*
X016936Y016539D01*
X017056Y016548D01*
X017176Y016551D01*
X017296Y016548D01*
X017416Y016539D01*
X017535Y016524D01*
X017654Y016504D01*
X017771Y016478D01*
X017887Y016446D01*
X018001Y016408D01*
X018114Y016365D01*
X018224Y016316D01*
X018331Y016262D01*
X018436Y016202D01*
X018537Y016138D01*
X018635Y016069D01*
X018730Y015995D01*
X018821Y015916D01*
X018908Y015833D01*
X018991Y015746D01*
X019070Y015655D01*
X019144Y015560D01*
X019213Y015462D01*
X019277Y015361D01*
X019337Y015256D01*
X019391Y015149D01*
X019440Y015039D01*
X019483Y014926D01*
X019521Y014812D01*
X019553Y014696D01*
X019579Y014579D01*
X019599Y014460D01*
X019614Y014341D01*
X019623Y014221D01*
X019626Y014101D01*
X019623Y013981D01*
X019614Y013861D01*
X019599Y013742D01*
X019579Y013623D01*
X019553Y013506D01*
X019521Y013390D01*
X019483Y013276D01*
X019440Y013163D01*
X019391Y013053D01*
X019337Y012946D01*
X019277Y012841D01*
X019213Y012740D01*
X019144Y012642D01*
X019070Y012547D01*
X018991Y012456D01*
X018908Y012369D01*
X018821Y012286D01*
X018730Y012207D01*
X018635Y012133D01*
X018537Y012064D01*
X018436Y012000D01*
X018331Y011940D01*
X018224Y011886D01*
X018114Y011837D01*
X018001Y011794D01*
X017887Y011756D01*
X017771Y011724D01*
X017654Y011698D01*
X017535Y011678D01*
X017416Y011663D01*
X017296Y011654D01*
X017176Y011651D01*
X017056Y011654D01*
X016936Y011663D01*
X016817Y011678D01*
X016698Y011698D01*
X016581Y011724D01*
X016465Y011756D01*
X016351Y011794D01*
X016238Y011837D01*
X016128Y011886D01*
X016021Y011940D01*
X015916Y012000D01*
X015815Y012064D01*
X015717Y012133D01*
X015622Y012207D01*
X015531Y012286D01*
X015444Y012369D01*
X015361Y012456D01*
X015282Y012547D01*
X015208Y012642D01*
X015139Y012740D01*
X015075Y012841D01*
X015015Y012946D01*
X014961Y013053D01*
X014912Y013163D01*
X014869Y013276D01*
X014831Y013390D01*
X014799Y013506D01*
X014773Y013623D01*
X014753Y013742D01*
X014738Y013861D01*
X014729Y013981D01*
X014726Y014101D01*
X014926Y014101D02*
X014929Y014211D01*
X014937Y014322D01*
X014950Y014431D01*
X014969Y014540D01*
X014993Y014648D01*
X015023Y014754D01*
X015058Y014859D01*
X015097Y014962D01*
X015142Y015063D01*
X015192Y015162D01*
X015246Y015258D01*
X015305Y015351D01*
X015369Y015441D01*
X015437Y015528D01*
X015509Y015612D01*
X015585Y015692D01*
X015665Y015768D01*
X015749Y015840D01*
X015836Y015908D01*
X015926Y015972D01*
X016019Y016031D01*
X016115Y016085D01*
X016214Y016135D01*
X016315Y016180D01*
X016418Y016219D01*
X016523Y016254D01*
X016629Y016284D01*
X016737Y016308D01*
X016846Y016327D01*
X016955Y016340D01*
X017066Y016348D01*
X017176Y016351D01*
X017286Y016348D01*
X017397Y016340D01*
X017506Y016327D01*
X017615Y016308D01*
X017723Y016284D01*
X017829Y016254D01*
X017934Y016219D01*
X018037Y016180D01*
X018138Y016135D01*
X018237Y016085D01*
X018333Y016031D01*
X018426Y015972D01*
X018516Y015908D01*
X018603Y015840D01*
X018687Y015768D01*
X018767Y015692D01*
X018843Y015612D01*
X018915Y015528D01*
X018983Y015441D01*
X019047Y015351D01*
X019106Y015258D01*
X019160Y015162D01*
X019210Y015063D01*
X019255Y014962D01*
X019294Y014859D01*
X019329Y014754D01*
X019359Y014648D01*
X019383Y014540D01*
X019402Y014431D01*
X019415Y014322D01*
X019423Y014211D01*
X019426Y014101D01*
X019423Y013991D01*
X019415Y013880D01*
X019402Y013771D01*
X019383Y013662D01*
X019359Y013554D01*
X019329Y013448D01*
X019294Y013343D01*
X019255Y013240D01*
X019210Y013139D01*
X019160Y013040D01*
X019106Y012944D01*
X019047Y012851D01*
X018983Y012761D01*
X018915Y012674D01*
X018843Y012590D01*
X018767Y012510D01*
X018687Y012434D01*
X018603Y012362D01*
X018516Y012294D01*
X018426Y012230D01*
X018333Y012171D01*
X018237Y012117D01*
X018138Y012067D01*
X018037Y012022D01*
X017934Y011983D01*
X017829Y011948D01*
X017723Y011918D01*
X017615Y011894D01*
X017506Y011875D01*
X017397Y011862D01*
X017286Y011854D01*
X017176Y011851D01*
X017066Y011854D01*
X016955Y011862D01*
X016846Y011875D01*
X016737Y011894D01*
X016629Y011918D01*
X016523Y011948D01*
X016418Y011983D01*
X016315Y012022D01*
X016214Y012067D01*
X016115Y012117D01*
X016019Y012171D01*
X015926Y012230D01*
X015836Y012294D01*
X015749Y012362D01*
X015665Y012434D01*
X015585Y012510D01*
X015509Y012590D01*
X015437Y012674D01*
X015369Y012761D01*
X015305Y012851D01*
X015246Y012944D01*
X015192Y013040D01*
X015142Y013139D01*
X015097Y013240D01*
X015058Y013343D01*
X015023Y013448D01*
X014993Y013554D01*
X014969Y013662D01*
X014950Y013771D01*
X014937Y013880D01*
X014929Y013991D01*
X014926Y014101D01*
X013076Y015601D02*
X013081Y015802D01*
X013096Y016003D01*
X013120Y016203D01*
X013155Y016401D01*
X013199Y016597D01*
X013253Y016791D01*
X013316Y016982D01*
X013388Y017170D01*
X013470Y017354D01*
X013560Y017534D01*
X013659Y017709D01*
X013767Y017879D01*
X013883Y018043D01*
X014007Y018202D01*
X014138Y018354D01*
X014277Y018500D01*
X014423Y018639D01*
X014575Y018770D01*
X014734Y018894D01*
X014898Y019010D01*
X015068Y019118D01*
X015243Y019217D01*
X015423Y019307D01*
X015607Y019389D01*
X015795Y019461D01*
X015986Y019524D01*
X016180Y019578D01*
X016376Y019622D01*
X016574Y019657D01*
X016774Y019681D01*
X016975Y019696D01*
X017176Y019701D01*
X017377Y019696D01*
X017578Y019681D01*
X017778Y019657D01*
X017976Y019622D01*
X018172Y019578D01*
X018366Y019524D01*
X018557Y019461D01*
X018745Y019389D01*
X018929Y019307D01*
X019109Y019217D01*
X019284Y019118D01*
X019454Y019010D01*
X019618Y018894D01*
X019777Y018770D01*
X019929Y018639D01*
X020075Y018500D01*
X020214Y018354D01*
X020345Y018202D01*
X020469Y018043D01*
X020585Y017879D01*
X020693Y017709D01*
X020792Y017534D01*
X020882Y017354D01*
X020964Y017170D01*
X021036Y016982D01*
X021099Y016791D01*
X021153Y016597D01*
X021197Y016401D01*
X021232Y016203D01*
X021256Y016003D01*
X021271Y015802D01*
X021276Y015601D01*
X021271Y015400D01*
X021256Y015199D01*
X021232Y014999D01*
X021197Y014801D01*
X021153Y014605D01*
X021099Y014411D01*
X021036Y014220D01*
X020964Y014032D01*
X020882Y013848D01*
X020792Y013668D01*
X020693Y013493D01*
X020585Y013323D01*
X020469Y013159D01*
X020345Y013000D01*
X020214Y012848D01*
X020075Y012702D01*
X019929Y012563D01*
X019777Y012432D01*
X019618Y012308D01*
X019454Y012192D01*
X019284Y012084D01*
X019109Y011985D01*
X018929Y011895D01*
X018745Y011813D01*
X018557Y011741D01*
X018366Y011678D01*
X018172Y011624D01*
X017976Y011580D01*
X017778Y011545D01*
X017578Y011521D01*
X017377Y011506D01*
X017176Y011501D01*
X016975Y011506D01*
X016774Y011521D01*
X016574Y011545D01*
X016376Y011580D01*
X016180Y011624D01*
X015986Y011678D01*
X015795Y011741D01*
X015607Y011813D01*
X015423Y011895D01*
X015243Y011985D01*
X015068Y012084D01*
X014898Y012192D01*
X014734Y012308D01*
X014575Y012432D01*
X014423Y012563D01*
X014277Y012702D01*
X014138Y012848D01*
X014007Y013000D01*
X013883Y013159D01*
X013767Y013323D01*
X013659Y013493D01*
X013560Y013668D01*
X013470Y013848D01*
X013388Y014032D01*
X013316Y014220D01*
X013253Y014411D01*
X013199Y014605D01*
X013155Y014801D01*
X013120Y014999D01*
X013096Y015199D01*
X013081Y015400D01*
X013076Y015601D01*
X013476Y015601D02*
X013480Y015783D01*
X013494Y015964D01*
X013516Y016144D01*
X013547Y016323D01*
X013587Y016500D01*
X013635Y016675D01*
X013692Y016847D01*
X013758Y017017D01*
X013831Y017183D01*
X013913Y017345D01*
X014002Y017503D01*
X014100Y017657D01*
X014204Y017805D01*
X014316Y017948D01*
X014434Y018086D01*
X014560Y018217D01*
X014691Y018343D01*
X014829Y018461D01*
X014972Y018573D01*
X015120Y018677D01*
X015274Y018775D01*
X015432Y018864D01*
X015594Y018946D01*
X015760Y019019D01*
X015930Y019085D01*
X016102Y019142D01*
X016277Y019190D01*
X016454Y019230D01*
X016633Y019261D01*
X016813Y019283D01*
X016994Y019297D01*
X017176Y019301D01*
X017358Y019297D01*
X017539Y019283D01*
X017719Y019261D01*
X017898Y019230D01*
X018075Y019190D01*
X018250Y019142D01*
X018422Y019085D01*
X018592Y019019D01*
X018758Y018946D01*
X018920Y018864D01*
X019078Y018775D01*
X019232Y018677D01*
X019380Y018573D01*
X019523Y018461D01*
X019661Y018343D01*
X019792Y018217D01*
X019918Y018086D01*
X020036Y017948D01*
X020148Y017805D01*
X020252Y017657D01*
X020350Y017503D01*
X020439Y017345D01*
X020521Y017183D01*
X020594Y017017D01*
X020660Y016847D01*
X020717Y016675D01*
X020765Y016500D01*
X020805Y016323D01*
X020836Y016144D01*
X020858Y015964D01*
X020872Y015783D01*
X020876Y015601D01*
X020872Y015419D01*
X020858Y015238D01*
X020836Y015058D01*
X020805Y014879D01*
X020765Y014702D01*
X020717Y014527D01*
X020660Y014355D01*
X020594Y014185D01*
X020521Y014019D01*
X020439Y013857D01*
X020350Y013699D01*
X020252Y013545D01*
X020148Y013397D01*
X020036Y013254D01*
X019918Y013116D01*
X019792Y012985D01*
X019661Y012859D01*
X019523Y012741D01*
X019380Y012629D01*
X019232Y012525D01*
X019078Y012427D01*
X018920Y012338D01*
X018758Y012256D01*
X018592Y012183D01*
X018422Y012117D01*
X018250Y012060D01*
X018075Y012012D01*
X017898Y011972D01*
X017719Y011941D01*
X017539Y011919D01*
X017358Y011905D01*
X017176Y011901D01*
X016994Y011905D01*
X016813Y011919D01*
X016633Y011941D01*
X016454Y011972D01*
X016277Y012012D01*
X016102Y012060D01*
X015930Y012117D01*
X015760Y012183D01*
X015594Y012256D01*
X015432Y012338D01*
X015274Y012427D01*
X015120Y012525D01*
X014972Y012629D01*
X014829Y012741D01*
X014691Y012859D01*
X014560Y012985D01*
X014434Y013116D01*
X014316Y013254D01*
X014204Y013397D01*
X014100Y013545D01*
X014002Y013699D01*
X013913Y013857D01*
X013831Y014019D01*
X013758Y014185D01*
X013692Y014355D01*
X013635Y014527D01*
X013587Y014702D01*
X013547Y014879D01*
X013516Y015058D01*
X013494Y015238D01*
X013480Y015419D01*
X013476Y015601D01*
X016376Y015601D02*
X016378Y015657D01*
X016384Y015714D01*
X016394Y015769D01*
X016408Y015824D01*
X016425Y015878D01*
X016447Y015930D01*
X016472Y015980D01*
X016500Y016029D01*
X016532Y016076D01*
X016567Y016120D01*
X016605Y016162D01*
X016646Y016201D01*
X016690Y016236D01*
X016736Y016269D01*
X016784Y016298D01*
X016834Y016324D01*
X016886Y016347D01*
X016940Y016365D01*
X016994Y016380D01*
X017049Y016391D01*
X017105Y016398D01*
X017162Y016401D01*
X017218Y016400D01*
X017275Y016395D01*
X017330Y016386D01*
X017385Y016373D01*
X017439Y016356D01*
X017492Y016336D01*
X017543Y016312D01*
X017592Y016284D01*
X017639Y016253D01*
X017684Y016219D01*
X017727Y016181D01*
X017766Y016141D01*
X017803Y016098D01*
X017836Y016053D01*
X017866Y016005D01*
X017893Y015955D01*
X017916Y015904D01*
X017936Y015851D01*
X017952Y015797D01*
X017964Y015741D01*
X017972Y015686D01*
X017976Y015629D01*
X017976Y015573D01*
X017972Y015516D01*
X017964Y015461D01*
X017952Y015405D01*
X017936Y015351D01*
X017916Y015298D01*
X017893Y015247D01*
X017866Y015197D01*
X017836Y015149D01*
X017803Y015104D01*
X017766Y015061D01*
X017727Y015021D01*
X017684Y014983D01*
X017639Y014949D01*
X017592Y014918D01*
X017543Y014890D01*
X017492Y014866D01*
X017439Y014846D01*
X017385Y014829D01*
X017330Y014816D01*
X017275Y014807D01*
X017218Y014802D01*
X017162Y014801D01*
X017105Y014804D01*
X017049Y014811D01*
X016994Y014822D01*
X016940Y014837D01*
X016886Y014855D01*
X016834Y014878D01*
X016784Y014904D01*
X016736Y014933D01*
X016690Y014966D01*
X016646Y015001D01*
X016605Y015040D01*
X016567Y015082D01*
X016532Y015126D01*
X016500Y015173D01*
X016472Y015222D01*
X016447Y015272D01*
X016425Y015324D01*
X016408Y015378D01*
X016394Y015433D01*
X016384Y015488D01*
X016378Y015545D01*
X016376Y015601D01*
X016676Y017101D02*
X016678Y017145D01*
X016684Y017189D01*
X016694Y017232D01*
X016707Y017274D01*
X016724Y017315D01*
X016745Y017354D01*
X016769Y017391D01*
X016796Y017426D01*
X016826Y017458D01*
X016859Y017488D01*
X016895Y017514D01*
X016932Y017538D01*
X016972Y017557D01*
X017013Y017574D01*
X017056Y017586D01*
X017099Y017595D01*
X017143Y017600D01*
X017187Y017601D01*
X017231Y017598D01*
X017275Y017591D01*
X017318Y017580D01*
X017360Y017566D01*
X017400Y017548D01*
X017439Y017526D01*
X017475Y017502D01*
X017509Y017474D01*
X017541Y017443D01*
X017570Y017409D01*
X017596Y017373D01*
X017618Y017335D01*
X017637Y017295D01*
X017652Y017253D01*
X017664Y017211D01*
X017672Y017167D01*
X017676Y017123D01*
X017676Y017079D01*
X017672Y017035D01*
X017664Y016991D01*
X017652Y016949D01*
X017637Y016907D01*
X017618Y016867D01*
X017596Y016829D01*
X017570Y016793D01*
X017541Y016759D01*
X017509Y016728D01*
X017475Y016700D01*
X017439Y016676D01*
X017400Y016654D01*
X017360Y016636D01*
X017318Y016622D01*
X017275Y016611D01*
X017231Y016604D01*
X017187Y016601D01*
X017143Y016602D01*
X017099Y016607D01*
X017056Y016616D01*
X017013Y016628D01*
X016972Y016645D01*
X016932Y016664D01*
X016895Y016688D01*
X016859Y016714D01*
X016826Y016744D01*
X016796Y016776D01*
X016769Y016811D01*
X016745Y016848D01*
X016724Y016887D01*
X016707Y016928D01*
X016694Y016970D01*
X016684Y017013D01*
X016678Y017057D01*
X016676Y017101D01*
X014776Y017101D02*
X014779Y017219D01*
X014788Y017336D01*
X014802Y017453D01*
X014822Y017569D01*
X014848Y017684D01*
X014879Y017798D01*
X014916Y017910D01*
X014959Y018019D01*
X015006Y018127D01*
X015059Y018232D01*
X015117Y018335D01*
X015180Y018434D01*
X015248Y018531D01*
X015321Y018624D01*
X015398Y018713D01*
X015479Y018798D01*
X015564Y018879D01*
X015653Y018956D01*
X015746Y019029D01*
X015843Y019097D01*
X015942Y019160D01*
X016045Y019218D01*
X016150Y019271D01*
X016258Y019318D01*
X016367Y019361D01*
X016479Y019398D01*
X016593Y019429D01*
X016708Y019455D01*
X016824Y019475D01*
X016941Y019489D01*
X017058Y019498D01*
X017176Y019501D01*
X017294Y019498D01*
X017411Y019489D01*
X017528Y019475D01*
X017644Y019455D01*
X017759Y019429D01*
X017873Y019398D01*
X017985Y019361D01*
X018094Y019318D01*
X018202Y019271D01*
X018307Y019218D01*
X018410Y019160D01*
X018509Y019097D01*
X018606Y019029D01*
X018699Y018956D01*
X018788Y018879D01*
X018873Y018798D01*
X018954Y018713D01*
X019031Y018624D01*
X019104Y018531D01*
X019172Y018434D01*
X019235Y018335D01*
X019293Y018232D01*
X019346Y018127D01*
X019393Y018019D01*
X019436Y017910D01*
X019473Y017798D01*
X019504Y017684D01*
X019530Y017569D01*
X019550Y017453D01*
X019564Y017336D01*
X019573Y017219D01*
X019576Y017101D01*
X019573Y016983D01*
X019564Y016866D01*
X019550Y016749D01*
X019530Y016633D01*
X019504Y016518D01*
X019473Y016404D01*
X019436Y016292D01*
X019393Y016183D01*
X019346Y016075D01*
X019293Y015970D01*
X019235Y015867D01*
X019172Y015768D01*
X019104Y015671D01*
X019031Y015578D01*
X018954Y015489D01*
X018873Y015404D01*
X018788Y015323D01*
X018699Y015246D01*
X018606Y015173D01*
X018509Y015105D01*
X018410Y015042D01*
X018307Y014984D01*
X018202Y014931D01*
X018094Y014884D01*
X017985Y014841D01*
X017873Y014804D01*
X017759Y014773D01*
X017644Y014747D01*
X017528Y014727D01*
X017411Y014713D01*
X017294Y014704D01*
X017176Y014701D01*
X017058Y014704D01*
X016941Y014713D01*
X016824Y014727D01*
X016708Y014747D01*
X016593Y014773D01*
X016479Y014804D01*
X016367Y014841D01*
X016258Y014884D01*
X016150Y014931D01*
X016045Y014984D01*
X015942Y015042D01*
X015843Y015105D01*
X015746Y015173D01*
X015653Y015246D01*
X015564Y015323D01*
X015479Y015404D01*
X015398Y015489D01*
X015321Y015578D01*
X015248Y015671D01*
X015180Y015768D01*
X015117Y015867D01*
X015059Y015970D01*
X015006Y016075D01*
X014959Y016183D01*
X014916Y016292D01*
X014879Y016404D01*
X014848Y016518D01*
X014822Y016633D01*
X014802Y016749D01*
X014788Y016866D01*
X014779Y016983D01*
X014776Y017101D01*
D13*
X020656Y007676D02*
X021837Y007676D01*
X021837Y004526D01*
X020656Y004526D01*
X020574Y004336D01*
X020483Y004150D01*
X020383Y003968D01*
X020275Y003792D01*
X020158Y003621D01*
X020033Y003456D01*
X019899Y003297D01*
X019759Y003145D01*
X019611Y003000D01*
X019456Y002862D01*
X019294Y002733D01*
X019127Y002611D01*
X018953Y002497D01*
X018775Y002393D01*
X018591Y002297D01*
X018403Y002210D01*
X018211Y002132D01*
X018015Y002064D01*
X017816Y002005D01*
X017615Y001957D01*
X017411Y001918D01*
X017206Y001889D01*
X017000Y001870D01*
X016793Y001862D01*
X016586Y001863D01*
X016379Y001875D01*
X016173Y001896D01*
X015968Y001928D01*
X015765Y001970D01*
X015564Y002021D01*
X015367Y002082D01*
X015172Y002153D01*
X014981Y002234D01*
X014794Y002323D01*
X014612Y002422D01*
X014435Y002529D01*
X014263Y002645D01*
X014097Y002769D01*
X013937Y002901D01*
X013784Y003041D01*
X013638Y003188D01*
X013500Y003342D01*
X013369Y003502D01*
X013246Y003669D01*
X013131Y003842D01*
X013025Y004020D01*
X012928Y004203D01*
X012840Y004390D01*
X012761Y004582D01*
X012691Y004777D01*
X012631Y004975D01*
X012581Y005176D01*
X012541Y005379D01*
X012511Y005584D01*
X012490Y005790D01*
X012480Y005997D01*
X012480Y006205D01*
X012490Y006412D01*
X012511Y006618D01*
X012541Y006823D01*
X012581Y007026D01*
X012631Y007227D01*
X012691Y007425D01*
X012761Y007620D01*
X012840Y007812D01*
X012928Y007999D01*
X013025Y008182D01*
X013131Y008360D01*
X013246Y008533D01*
X013369Y008700D01*
X013500Y008860D01*
X013638Y009014D01*
X013784Y009161D01*
X013937Y009301D01*
X014097Y009433D01*
X014263Y009557D01*
X014435Y009673D01*
X014612Y009780D01*
X014794Y009879D01*
X014981Y009968D01*
X015172Y010049D01*
X015367Y010120D01*
X015564Y010181D01*
X015765Y010232D01*
X015968Y010274D01*
X016173Y010306D01*
X016379Y010327D01*
X016586Y010339D01*
X016793Y010340D01*
X017000Y010332D01*
X017206Y010313D01*
X017411Y010284D01*
X017615Y010245D01*
X017816Y010197D01*
X018015Y010138D01*
X018211Y010070D01*
X018403Y009992D01*
X018591Y009905D01*
X018775Y009809D01*
X018953Y009705D01*
X019127Y009591D01*
X019294Y009469D01*
X019456Y009340D01*
X019611Y009202D01*
X019759Y009057D01*
X019899Y008905D01*
X020033Y008746D01*
X020158Y008581D01*
X020275Y008410D01*
X020383Y008234D01*
X020483Y008052D01*
X020574Y007866D01*
X020656Y007676D01*
M02*
