%
M48
M72
T01C0.0320
T02C0.0354
T03C0.0394
T04C0.0400
T05C0.0512
%
T01
X10676Y8601
X11676Y8601
X12676Y8601
X13676Y8601
X14676Y8601
X15676Y8601
X16676Y8601
X17676Y8601
X18676Y8601
X19676Y8601
X20676Y8601
X21676Y8601
X22676Y8601
X23676Y8601
X23676Y11601
X22676Y11601
X21676Y11601
X20676Y11601
X19676Y11601
X18676Y11601
X17676Y11601
X16676Y11601
X15676Y11601
X14676Y11601
X13676Y11601
X12676Y11601
X11676Y11601
X10676Y11601
T02
X15676Y13101
X18676Y13101
T03
X8676Y1601
X10676Y2601
X8676Y3601
X16176Y3601
X18176Y2601
X16176Y1601
X23176Y1601
X25176Y2601
X23176Y3601
X22995Y17101
X23782Y17101
X24570Y17101
X25357Y17101
X11357Y17101
X10570Y17101
X9782Y17101
X8995Y17101
T04
X15426Y15601
X15896Y17101
X18456Y17101
X18676Y15601
X18076Y14101
X16276Y14101
X8176Y11101
X8176Y10101
X8176Y9101
X26176Y9101
X26176Y10101
X26176Y11101
T05
X21050Y6101
X13176Y6101
M30
