G75*
G70*
%OFA0B0*%
%FSLAX24Y24*%
%IPPOS*%
%LPD*%
%AMOC8*
5,1,8,0,0,1.08239X$1,22.5*
%
%ADD10C,0.0480*%
%ADD11OC8,0.0750*%
%ADD12C,0.0591*%
%ADD13C,0.0740*%
%ADD14C,0.0768*%
%ADD15OC8,0.1000*%
%ADD16C,0.0120*%
D10*
X010676Y008361D02*
X010676Y008841D01*
X011676Y008841D02*
X011676Y008361D01*
X012676Y008361D02*
X012676Y008841D01*
X013676Y008841D02*
X013676Y008361D01*
X014676Y008361D02*
X014676Y008841D01*
X015676Y008841D02*
X015676Y008361D01*
X016676Y008361D02*
X016676Y008841D01*
X017676Y008841D02*
X017676Y008361D01*
X018676Y008361D02*
X018676Y008841D01*
X019676Y008841D02*
X019676Y008361D01*
X020676Y008361D02*
X020676Y008841D01*
X021676Y008841D02*
X021676Y008361D01*
X022676Y008361D02*
X022676Y008841D01*
X023676Y008841D02*
X023676Y008361D01*
X023676Y011361D02*
X023676Y011841D01*
X022676Y011841D02*
X022676Y011361D01*
X021676Y011361D02*
X021676Y011841D01*
X020676Y011841D02*
X020676Y011361D01*
X019676Y011361D02*
X019676Y011841D01*
X018676Y011841D02*
X018676Y011361D01*
X017676Y011361D02*
X017676Y011841D01*
X016676Y011841D02*
X016676Y011361D01*
X015676Y011361D02*
X015676Y011841D01*
X014676Y011841D02*
X014676Y011361D01*
X013676Y011361D02*
X013676Y011841D01*
X012676Y011841D02*
X012676Y011361D01*
X011676Y011361D02*
X011676Y011841D01*
X010676Y011841D02*
X010676Y011361D01*
D11*
X016276Y014101D03*
X018076Y014101D03*
D12*
X022995Y017101D03*
X023782Y017101D03*
X024570Y017101D03*
X025357Y017101D03*
X011357Y017101D03*
X010570Y017101D03*
X009782Y017101D03*
X008995Y017101D03*
D13*
X008676Y001601D03*
X010676Y002601D03*
X008676Y003601D03*
X008176Y009101D03*
X008176Y010101D03*
X008176Y011101D03*
X015676Y013101D03*
X018676Y013101D03*
X026176Y011101D03*
X026176Y010101D03*
X026176Y009101D03*
X023176Y003601D03*
X025176Y002601D03*
X023176Y001601D03*
X018176Y002601D03*
X016176Y003601D03*
X016176Y001601D03*
D14*
X013176Y006101D03*
X021050Y006101D03*
D15*
X018676Y015601D03*
X018456Y017101D03*
X015896Y017101D03*
X015426Y015601D03*
D16*
X015456Y015701D01*
X015456Y016661D01*
X015896Y017101D01*
X015426Y015601D02*
X015456Y015581D01*
X015456Y014861D01*
X016176Y014141D01*
X016276Y014101D01*
X017976Y014021D02*
X017976Y012821D01*
X016776Y011621D01*
X016676Y011601D01*
X016656Y011501D01*
X015216Y010061D01*
X015216Y008141D01*
X013176Y006101D01*
X012456Y005381D01*
X016176Y001661D01*
X016176Y001601D01*
X016416Y001061D02*
X010776Y001061D01*
X010776Y002501D01*
X010676Y002601D01*
X008676Y001601D02*
X012456Y005381D01*
X016176Y003601D02*
X016176Y010061D01*
X017616Y011501D01*
X017676Y011601D01*
X017736Y011621D01*
X018576Y012461D01*
X018576Y013061D01*
X018676Y013101D01*
X017976Y014021D02*
X018076Y014101D01*
X018096Y014141D01*
X018576Y014621D01*
X018576Y015581D01*
X018676Y015601D01*
X018576Y015701D01*
X018576Y016901D01*
X018456Y017021D01*
X018456Y017101D01*
X022536Y017261D02*
X022896Y017621D01*
X025296Y017621D01*
X025296Y017141D01*
X025357Y017101D01*
X023782Y017101D02*
X023736Y017021D01*
X023256Y016541D01*
X023256Y010901D01*
X020376Y010901D01*
X019676Y011601D01*
X020676Y011601D02*
X020736Y011621D01*
X022536Y013421D01*
X022536Y017261D01*
X026176Y011101D02*
X026136Y011021D01*
X023976Y011021D01*
X023976Y010781D01*
X022056Y008861D01*
X022056Y007061D01*
X021096Y006101D01*
X021050Y006101D01*
X023256Y007181D02*
X026176Y010101D01*
X023256Y007181D02*
X023256Y003701D01*
X023176Y003601D01*
X018216Y002621D02*
X018176Y002601D01*
X018216Y002621D02*
X018216Y007061D01*
X019656Y008501D01*
X019676Y008601D01*
X018676Y008601D02*
X016776Y006701D01*
X016776Y001421D01*
X016416Y001061D01*
X013676Y011601D02*
X011856Y013421D01*
X011856Y016541D01*
X011376Y017021D01*
X011357Y017101D01*
X009816Y017021D02*
X009782Y017101D01*
X009816Y017021D02*
X009816Y014381D01*
X012576Y011621D01*
X012676Y011601D01*
X011676Y011601D02*
X011616Y011621D01*
X009096Y014141D01*
X009096Y017021D01*
X008995Y017101D01*
M02*
