G75*
G70*
%OFA0B0*%
%FSLAX24Y24*%
%IPPOS*%
%LPD*%
%AMOC8*
5,1,8,0,0,1.08239X$1,22.5*
%
%ADD10C,0.0560*%
%ADD11OC8,0.0830*%
%ADD12C,0.0671*%
%ADD13C,0.0820*%
%ADD14C,0.0848*%
%ADD15OC8,0.1080*%
D10*
X010676Y008361D02*
X010676Y008841D01*
X011676Y008841D02*
X011676Y008361D01*
X012676Y008361D02*
X012676Y008841D01*
X013676Y008841D02*
X013676Y008361D01*
X014676Y008361D02*
X014676Y008841D01*
X015676Y008841D02*
X015676Y008361D01*
X016676Y008361D02*
X016676Y008841D01*
X017676Y008841D02*
X017676Y008361D01*
X018676Y008361D02*
X018676Y008841D01*
X019676Y008841D02*
X019676Y008361D01*
X020676Y008361D02*
X020676Y008841D01*
X021676Y008841D02*
X021676Y008361D01*
X022676Y008361D02*
X022676Y008841D01*
X023676Y008841D02*
X023676Y008361D01*
X023676Y011361D02*
X023676Y011841D01*
X022676Y011841D02*
X022676Y011361D01*
X021676Y011361D02*
X021676Y011841D01*
X020676Y011841D02*
X020676Y011361D01*
X019676Y011361D02*
X019676Y011841D01*
X018676Y011841D02*
X018676Y011361D01*
X017676Y011361D02*
X017676Y011841D01*
X016676Y011841D02*
X016676Y011361D01*
X015676Y011361D02*
X015676Y011841D01*
X014676Y011841D02*
X014676Y011361D01*
X013676Y011361D02*
X013676Y011841D01*
X012676Y011841D02*
X012676Y011361D01*
X011676Y011361D02*
X011676Y011841D01*
X010676Y011841D02*
X010676Y011361D01*
D11*
X016276Y014101D03*
X018076Y014101D03*
D12*
X022995Y017101D03*
X023782Y017101D03*
X024570Y017101D03*
X025357Y017101D03*
X011357Y017101D03*
X010570Y017101D03*
X009782Y017101D03*
X008995Y017101D03*
D13*
X008676Y001601D03*
X010676Y002601D03*
X008676Y003601D03*
X008176Y009101D03*
X008176Y010101D03*
X008176Y011101D03*
X015676Y013101D03*
X018676Y013101D03*
X026176Y011101D03*
X026176Y010101D03*
X026176Y009101D03*
X023176Y003601D03*
X025176Y002601D03*
X023176Y001601D03*
X018176Y002601D03*
X016176Y003601D03*
X016176Y001601D03*
D14*
X013176Y006101D03*
X021050Y006101D03*
D15*
X018676Y015601D03*
X018456Y017101D03*
X015896Y017101D03*
X015426Y015601D03*
M02*
