G75*
G70*
%OFA0B0*%
%FSLAX24Y24*%
%IPPOS*%
%LPD*%
%AMOC8*
5,1,8,0,0,1.08239X$1,22.5*
%
%ADD10C,0.0000*%
D10*
X000232Y002056D02*
X000232Y017052D01*
X010202Y017052D01*
X010202Y002056D01*
X000232Y002056D01*
X000582Y003056D02*
X000584Y003106D01*
X000590Y003156D01*
X000600Y003206D01*
X000613Y003254D01*
X000630Y003302D01*
X000651Y003348D01*
X000675Y003392D01*
X000703Y003434D01*
X000734Y003474D01*
X000768Y003511D01*
X000805Y003546D01*
X000844Y003577D01*
X000885Y003606D01*
X000929Y003631D01*
X000975Y003653D01*
X001022Y003671D01*
X001070Y003685D01*
X001119Y003696D01*
X001169Y003703D01*
X001219Y003706D01*
X001270Y003705D01*
X001320Y003700D01*
X001370Y003691D01*
X001418Y003679D01*
X001466Y003662D01*
X001512Y003642D01*
X001557Y003619D01*
X001600Y003592D01*
X001640Y003562D01*
X001678Y003529D01*
X001713Y003493D01*
X001746Y003454D01*
X001775Y003413D01*
X001801Y003370D01*
X001824Y003325D01*
X001843Y003278D01*
X001858Y003230D01*
X001870Y003181D01*
X001878Y003131D01*
X001882Y003081D01*
X001882Y003031D01*
X001878Y002981D01*
X001870Y002931D01*
X001858Y002882D01*
X001843Y002834D01*
X001824Y002787D01*
X001801Y002742D01*
X001775Y002699D01*
X001746Y002658D01*
X001713Y002619D01*
X001678Y002583D01*
X001640Y002550D01*
X001600Y002520D01*
X001557Y002493D01*
X001512Y002470D01*
X001466Y002450D01*
X001418Y002433D01*
X001370Y002421D01*
X001320Y002412D01*
X001270Y002407D01*
X001219Y002406D01*
X001169Y002409D01*
X001119Y002416D01*
X001070Y002427D01*
X001022Y002441D01*
X000975Y002459D01*
X000929Y002481D01*
X000885Y002506D01*
X000844Y002535D01*
X000805Y002566D01*
X000768Y002601D01*
X000734Y002638D01*
X000703Y002678D01*
X000675Y002720D01*
X000651Y002764D01*
X000630Y002810D01*
X000613Y002858D01*
X000600Y002906D01*
X000590Y002956D01*
X000584Y003006D01*
X000582Y003056D01*
X000582Y016056D02*
X000584Y016106D01*
X000590Y016156D01*
X000600Y016206D01*
X000613Y016254D01*
X000630Y016302D01*
X000651Y016348D01*
X000675Y016392D01*
X000703Y016434D01*
X000734Y016474D01*
X000768Y016511D01*
X000805Y016546D01*
X000844Y016577D01*
X000885Y016606D01*
X000929Y016631D01*
X000975Y016653D01*
X001022Y016671D01*
X001070Y016685D01*
X001119Y016696D01*
X001169Y016703D01*
X001219Y016706D01*
X001270Y016705D01*
X001320Y016700D01*
X001370Y016691D01*
X001418Y016679D01*
X001466Y016662D01*
X001512Y016642D01*
X001557Y016619D01*
X001600Y016592D01*
X001640Y016562D01*
X001678Y016529D01*
X001713Y016493D01*
X001746Y016454D01*
X001775Y016413D01*
X001801Y016370D01*
X001824Y016325D01*
X001843Y016278D01*
X001858Y016230D01*
X001870Y016181D01*
X001878Y016131D01*
X001882Y016081D01*
X001882Y016031D01*
X001878Y015981D01*
X001870Y015931D01*
X001858Y015882D01*
X001843Y015834D01*
X001824Y015787D01*
X001801Y015742D01*
X001775Y015699D01*
X001746Y015658D01*
X001713Y015619D01*
X001678Y015583D01*
X001640Y015550D01*
X001600Y015520D01*
X001557Y015493D01*
X001512Y015470D01*
X001466Y015450D01*
X001418Y015433D01*
X001370Y015421D01*
X001320Y015412D01*
X001270Y015407D01*
X001219Y015406D01*
X001169Y015409D01*
X001119Y015416D01*
X001070Y015427D01*
X001022Y015441D01*
X000975Y015459D01*
X000929Y015481D01*
X000885Y015506D01*
X000844Y015535D01*
X000805Y015566D01*
X000768Y015601D01*
X000734Y015638D01*
X000703Y015678D01*
X000675Y015720D01*
X000651Y015764D01*
X000630Y015810D01*
X000613Y015858D01*
X000600Y015906D01*
X000590Y015956D01*
X000584Y016006D01*
X000582Y016056D01*
X008582Y016056D02*
X008584Y016106D01*
X008590Y016156D01*
X008600Y016206D01*
X008613Y016254D01*
X008630Y016302D01*
X008651Y016348D01*
X008675Y016392D01*
X008703Y016434D01*
X008734Y016474D01*
X008768Y016511D01*
X008805Y016546D01*
X008844Y016577D01*
X008885Y016606D01*
X008929Y016631D01*
X008975Y016653D01*
X009022Y016671D01*
X009070Y016685D01*
X009119Y016696D01*
X009169Y016703D01*
X009219Y016706D01*
X009270Y016705D01*
X009320Y016700D01*
X009370Y016691D01*
X009418Y016679D01*
X009466Y016662D01*
X009512Y016642D01*
X009557Y016619D01*
X009600Y016592D01*
X009640Y016562D01*
X009678Y016529D01*
X009713Y016493D01*
X009746Y016454D01*
X009775Y016413D01*
X009801Y016370D01*
X009824Y016325D01*
X009843Y016278D01*
X009858Y016230D01*
X009870Y016181D01*
X009878Y016131D01*
X009882Y016081D01*
X009882Y016031D01*
X009878Y015981D01*
X009870Y015931D01*
X009858Y015882D01*
X009843Y015834D01*
X009824Y015787D01*
X009801Y015742D01*
X009775Y015699D01*
X009746Y015658D01*
X009713Y015619D01*
X009678Y015583D01*
X009640Y015550D01*
X009600Y015520D01*
X009557Y015493D01*
X009512Y015470D01*
X009466Y015450D01*
X009418Y015433D01*
X009370Y015421D01*
X009320Y015412D01*
X009270Y015407D01*
X009219Y015406D01*
X009169Y015409D01*
X009119Y015416D01*
X009070Y015427D01*
X009022Y015441D01*
X008975Y015459D01*
X008929Y015481D01*
X008885Y015506D01*
X008844Y015535D01*
X008805Y015566D01*
X008768Y015601D01*
X008734Y015638D01*
X008703Y015678D01*
X008675Y015720D01*
X008651Y015764D01*
X008630Y015810D01*
X008613Y015858D01*
X008600Y015906D01*
X008590Y015956D01*
X008584Y016006D01*
X008582Y016056D01*
X008582Y003056D02*
X008584Y003106D01*
X008590Y003156D01*
X008600Y003206D01*
X008613Y003254D01*
X008630Y003302D01*
X008651Y003348D01*
X008675Y003392D01*
X008703Y003434D01*
X008734Y003474D01*
X008768Y003511D01*
X008805Y003546D01*
X008844Y003577D01*
X008885Y003606D01*
X008929Y003631D01*
X008975Y003653D01*
X009022Y003671D01*
X009070Y003685D01*
X009119Y003696D01*
X009169Y003703D01*
X009219Y003706D01*
X009270Y003705D01*
X009320Y003700D01*
X009370Y003691D01*
X009418Y003679D01*
X009466Y003662D01*
X009512Y003642D01*
X009557Y003619D01*
X009600Y003592D01*
X009640Y003562D01*
X009678Y003529D01*
X009713Y003493D01*
X009746Y003454D01*
X009775Y003413D01*
X009801Y003370D01*
X009824Y003325D01*
X009843Y003278D01*
X009858Y003230D01*
X009870Y003181D01*
X009878Y003131D01*
X009882Y003081D01*
X009882Y003031D01*
X009878Y002981D01*
X009870Y002931D01*
X009858Y002882D01*
X009843Y002834D01*
X009824Y002787D01*
X009801Y002742D01*
X009775Y002699D01*
X009746Y002658D01*
X009713Y002619D01*
X009678Y002583D01*
X009640Y002550D01*
X009600Y002520D01*
X009557Y002493D01*
X009512Y002470D01*
X009466Y002450D01*
X009418Y002433D01*
X009370Y002421D01*
X009320Y002412D01*
X009270Y002407D01*
X009219Y002406D01*
X009169Y002409D01*
X009119Y002416D01*
X009070Y002427D01*
X009022Y002441D01*
X008975Y002459D01*
X008929Y002481D01*
X008885Y002506D01*
X008844Y002535D01*
X008805Y002566D01*
X008768Y002601D01*
X008734Y002638D01*
X008703Y002678D01*
X008675Y002720D01*
X008651Y002764D01*
X008630Y002810D01*
X008613Y002858D01*
X008600Y002906D01*
X008590Y002956D01*
X008584Y003006D01*
X008582Y003056D01*
M02*
