G75*
G70*
%OFA0B0*%
%FSLAX24Y24*%
%IPPOS*%
%LPD*%
%AMOC8*
5,1,8,0,0,1.08239X$1,22.5*
%
%ADD10C,0.0520*%
%ADD11C,0.0740*%
%ADD12C,0.0768*%
%ADD13C,0.0120*%
D10*
X003232Y012796D02*
X003232Y013316D01*
X004232Y013316D02*
X004232Y012796D01*
X005232Y012796D02*
X005232Y013316D01*
X006232Y013316D02*
X006232Y012796D01*
X006232Y015796D02*
X006232Y016316D01*
X005232Y016316D02*
X005232Y015796D01*
X004232Y015796D02*
X004232Y016316D01*
X003232Y016316D02*
X003232Y015796D01*
D11*
X004732Y004556D03*
X005732Y004556D03*
X005732Y009556D03*
X004732Y009556D03*
X007732Y013056D03*
X007732Y016056D03*
X005732Y014556D03*
X004732Y014556D03*
X001232Y013556D03*
X001232Y012556D03*
X001232Y011556D03*
D12*
X005232Y010930D03*
X005232Y003056D03*
D13*
X005732Y004556D02*
X005752Y004576D01*
X006352Y004576D01*
X006352Y010936D01*
X004232Y013056D01*
X005152Y010936D02*
X005232Y010930D01*
X005152Y010936D02*
X002872Y010936D01*
X001312Y012496D01*
X001232Y012556D01*
X001232Y013556D02*
X001312Y013576D01*
X003112Y015376D01*
X005632Y015376D01*
X006232Y015976D01*
X006232Y016056D01*
M02*
