G75*
G70*
%OFA0B0*%
%FSLAX24Y24*%
%IPPOS*%
%LPD*%
%AMOC8*
5,1,8,0,0,1.08239X$1,22.5*
%
%ADD10C,0.0000*%
%ADD11C,0.0080*%
%ADD12C,0.0060*%
%ADD13C,0.0050*%
D10*
X000232Y002056D02*
X000232Y017052D01*
X010202Y017052D01*
X010202Y002056D01*
X000232Y002056D01*
X000582Y003056D02*
X000584Y003106D01*
X000590Y003156D01*
X000600Y003206D01*
X000613Y003254D01*
X000630Y003302D01*
X000651Y003348D01*
X000675Y003392D01*
X000703Y003434D01*
X000734Y003474D01*
X000768Y003511D01*
X000805Y003546D01*
X000844Y003577D01*
X000885Y003606D01*
X000929Y003631D01*
X000975Y003653D01*
X001022Y003671D01*
X001070Y003685D01*
X001119Y003696D01*
X001169Y003703D01*
X001219Y003706D01*
X001270Y003705D01*
X001320Y003700D01*
X001370Y003691D01*
X001418Y003679D01*
X001466Y003662D01*
X001512Y003642D01*
X001557Y003619D01*
X001600Y003592D01*
X001640Y003562D01*
X001678Y003529D01*
X001713Y003493D01*
X001746Y003454D01*
X001775Y003413D01*
X001801Y003370D01*
X001824Y003325D01*
X001843Y003278D01*
X001858Y003230D01*
X001870Y003181D01*
X001878Y003131D01*
X001882Y003081D01*
X001882Y003031D01*
X001878Y002981D01*
X001870Y002931D01*
X001858Y002882D01*
X001843Y002834D01*
X001824Y002787D01*
X001801Y002742D01*
X001775Y002699D01*
X001746Y002658D01*
X001713Y002619D01*
X001678Y002583D01*
X001640Y002550D01*
X001600Y002520D01*
X001557Y002493D01*
X001512Y002470D01*
X001466Y002450D01*
X001418Y002433D01*
X001370Y002421D01*
X001320Y002412D01*
X001270Y002407D01*
X001219Y002406D01*
X001169Y002409D01*
X001119Y002416D01*
X001070Y002427D01*
X001022Y002441D01*
X000975Y002459D01*
X000929Y002481D01*
X000885Y002506D01*
X000844Y002535D01*
X000805Y002566D01*
X000768Y002601D01*
X000734Y002638D01*
X000703Y002678D01*
X000675Y002720D01*
X000651Y002764D01*
X000630Y002810D01*
X000613Y002858D01*
X000600Y002906D01*
X000590Y002956D01*
X000584Y003006D01*
X000582Y003056D01*
X000582Y016056D02*
X000584Y016106D01*
X000590Y016156D01*
X000600Y016206D01*
X000613Y016254D01*
X000630Y016302D01*
X000651Y016348D01*
X000675Y016392D01*
X000703Y016434D01*
X000734Y016474D01*
X000768Y016511D01*
X000805Y016546D01*
X000844Y016577D01*
X000885Y016606D01*
X000929Y016631D01*
X000975Y016653D01*
X001022Y016671D01*
X001070Y016685D01*
X001119Y016696D01*
X001169Y016703D01*
X001219Y016706D01*
X001270Y016705D01*
X001320Y016700D01*
X001370Y016691D01*
X001418Y016679D01*
X001466Y016662D01*
X001512Y016642D01*
X001557Y016619D01*
X001600Y016592D01*
X001640Y016562D01*
X001678Y016529D01*
X001713Y016493D01*
X001746Y016454D01*
X001775Y016413D01*
X001801Y016370D01*
X001824Y016325D01*
X001843Y016278D01*
X001858Y016230D01*
X001870Y016181D01*
X001878Y016131D01*
X001882Y016081D01*
X001882Y016031D01*
X001878Y015981D01*
X001870Y015931D01*
X001858Y015882D01*
X001843Y015834D01*
X001824Y015787D01*
X001801Y015742D01*
X001775Y015699D01*
X001746Y015658D01*
X001713Y015619D01*
X001678Y015583D01*
X001640Y015550D01*
X001600Y015520D01*
X001557Y015493D01*
X001512Y015470D01*
X001466Y015450D01*
X001418Y015433D01*
X001370Y015421D01*
X001320Y015412D01*
X001270Y015407D01*
X001219Y015406D01*
X001169Y015409D01*
X001119Y015416D01*
X001070Y015427D01*
X001022Y015441D01*
X000975Y015459D01*
X000929Y015481D01*
X000885Y015506D01*
X000844Y015535D01*
X000805Y015566D01*
X000768Y015601D01*
X000734Y015638D01*
X000703Y015678D01*
X000675Y015720D01*
X000651Y015764D01*
X000630Y015810D01*
X000613Y015858D01*
X000600Y015906D01*
X000590Y015956D01*
X000584Y016006D01*
X000582Y016056D01*
X008582Y016056D02*
X008584Y016106D01*
X008590Y016156D01*
X008600Y016206D01*
X008613Y016254D01*
X008630Y016302D01*
X008651Y016348D01*
X008675Y016392D01*
X008703Y016434D01*
X008734Y016474D01*
X008768Y016511D01*
X008805Y016546D01*
X008844Y016577D01*
X008885Y016606D01*
X008929Y016631D01*
X008975Y016653D01*
X009022Y016671D01*
X009070Y016685D01*
X009119Y016696D01*
X009169Y016703D01*
X009219Y016706D01*
X009270Y016705D01*
X009320Y016700D01*
X009370Y016691D01*
X009418Y016679D01*
X009466Y016662D01*
X009512Y016642D01*
X009557Y016619D01*
X009600Y016592D01*
X009640Y016562D01*
X009678Y016529D01*
X009713Y016493D01*
X009746Y016454D01*
X009775Y016413D01*
X009801Y016370D01*
X009824Y016325D01*
X009843Y016278D01*
X009858Y016230D01*
X009870Y016181D01*
X009878Y016131D01*
X009882Y016081D01*
X009882Y016031D01*
X009878Y015981D01*
X009870Y015931D01*
X009858Y015882D01*
X009843Y015834D01*
X009824Y015787D01*
X009801Y015742D01*
X009775Y015699D01*
X009746Y015658D01*
X009713Y015619D01*
X009678Y015583D01*
X009640Y015550D01*
X009600Y015520D01*
X009557Y015493D01*
X009512Y015470D01*
X009466Y015450D01*
X009418Y015433D01*
X009370Y015421D01*
X009320Y015412D01*
X009270Y015407D01*
X009219Y015406D01*
X009169Y015409D01*
X009119Y015416D01*
X009070Y015427D01*
X009022Y015441D01*
X008975Y015459D01*
X008929Y015481D01*
X008885Y015506D01*
X008844Y015535D01*
X008805Y015566D01*
X008768Y015601D01*
X008734Y015638D01*
X008703Y015678D01*
X008675Y015720D01*
X008651Y015764D01*
X008630Y015810D01*
X008613Y015858D01*
X008600Y015906D01*
X008590Y015956D01*
X008584Y016006D01*
X008582Y016056D01*
X008582Y003056D02*
X008584Y003106D01*
X008590Y003156D01*
X008600Y003206D01*
X008613Y003254D01*
X008630Y003302D01*
X008651Y003348D01*
X008675Y003392D01*
X008703Y003434D01*
X008734Y003474D01*
X008768Y003511D01*
X008805Y003546D01*
X008844Y003577D01*
X008885Y003606D01*
X008929Y003631D01*
X008975Y003653D01*
X009022Y003671D01*
X009070Y003685D01*
X009119Y003696D01*
X009169Y003703D01*
X009219Y003706D01*
X009270Y003705D01*
X009320Y003700D01*
X009370Y003691D01*
X009418Y003679D01*
X009466Y003662D01*
X009512Y003642D01*
X009557Y003619D01*
X009600Y003592D01*
X009640Y003562D01*
X009678Y003529D01*
X009713Y003493D01*
X009746Y003454D01*
X009775Y003413D01*
X009801Y003370D01*
X009824Y003325D01*
X009843Y003278D01*
X009858Y003230D01*
X009870Y003181D01*
X009878Y003131D01*
X009882Y003081D01*
X009882Y003031D01*
X009878Y002981D01*
X009870Y002931D01*
X009858Y002882D01*
X009843Y002834D01*
X009824Y002787D01*
X009801Y002742D01*
X009775Y002699D01*
X009746Y002658D01*
X009713Y002619D01*
X009678Y002583D01*
X009640Y002550D01*
X009600Y002520D01*
X009557Y002493D01*
X009512Y002470D01*
X009466Y002450D01*
X009418Y002433D01*
X009370Y002421D01*
X009320Y002412D01*
X009270Y002407D01*
X009219Y002406D01*
X009169Y002409D01*
X009119Y002416D01*
X009070Y002427D01*
X009022Y002441D01*
X008975Y002459D01*
X008929Y002481D01*
X008885Y002506D01*
X008844Y002535D01*
X008805Y002566D01*
X008768Y002601D01*
X008734Y002638D01*
X008703Y002678D01*
X008675Y002720D01*
X008651Y002764D01*
X008630Y002810D01*
X008613Y002858D01*
X008600Y002906D01*
X008590Y002956D01*
X008584Y003006D01*
X008582Y003056D01*
D11*
X009742Y005396D02*
X009672Y005466D01*
X009742Y005536D01*
X009672Y005606D01*
X009742Y005676D01*
X009952Y005676D01*
X009952Y005856D02*
X009742Y005856D01*
X009672Y005926D01*
X009742Y005997D01*
X009672Y006067D01*
X009742Y006137D01*
X009952Y006137D01*
X009952Y006317D02*
X009742Y006317D01*
X009672Y006387D01*
X009742Y006457D01*
X009672Y006527D01*
X009742Y006597D01*
X009952Y006597D01*
X009742Y006777D02*
X009742Y006847D01*
X009672Y006847D01*
X009672Y006777D01*
X009742Y006777D01*
X009882Y007007D02*
X009882Y007147D01*
X010022Y007077D02*
X010092Y007147D01*
X010022Y007077D02*
X009672Y007077D01*
X009742Y007314D02*
X009672Y007384D01*
X009672Y007594D01*
X009882Y007594D01*
X009952Y007524D01*
X009952Y007384D01*
X009812Y007384D02*
X009812Y007594D01*
X009812Y007384D02*
X009742Y007314D01*
X009672Y007775D02*
X009952Y007775D01*
X009952Y007985D01*
X009882Y008055D01*
X009672Y008055D01*
X009742Y008235D02*
X009672Y008305D01*
X009672Y008515D01*
X009602Y008515D02*
X009532Y008445D01*
X009532Y008375D01*
X009602Y008515D02*
X009952Y008515D01*
X009952Y008305D01*
X009882Y008235D01*
X009742Y008235D01*
X009672Y008695D02*
X009672Y008835D01*
X009672Y008765D02*
X010092Y008765D01*
X010092Y008695D01*
X009882Y009002D02*
X009952Y009072D01*
X009952Y009212D01*
X009882Y009282D01*
X009812Y009282D01*
X009812Y009002D01*
X009742Y009002D02*
X009882Y009002D01*
X009742Y009002D02*
X009672Y009072D01*
X009672Y009212D01*
X009742Y009533D02*
X009672Y009603D01*
X009742Y009533D02*
X010022Y009533D01*
X009952Y009603D02*
X009952Y009462D01*
X009952Y009769D02*
X009672Y009769D01*
X009812Y009769D02*
X009952Y009909D01*
X009952Y009980D01*
X009882Y010153D02*
X009742Y010153D01*
X009672Y010223D01*
X009672Y010363D01*
X009742Y010433D01*
X009882Y010433D01*
X009952Y010363D01*
X009952Y010223D01*
X009882Y010153D01*
X009952Y010613D02*
X009672Y010613D01*
X009672Y010894D02*
X009882Y010894D01*
X009952Y010824D01*
X009952Y010613D01*
X009952Y011074D02*
X009952Y011144D01*
X009672Y011144D01*
X009672Y011074D02*
X009672Y011214D01*
X009742Y011381D02*
X009672Y011451D01*
X009672Y011661D01*
X009672Y011841D02*
X009672Y012051D01*
X009742Y012121D01*
X009812Y012051D01*
X009812Y011911D01*
X009882Y011841D01*
X009952Y011911D01*
X009952Y012121D01*
X009742Y012301D02*
X009742Y012371D01*
X009672Y012371D01*
X009672Y012301D01*
X009742Y012301D01*
X009742Y012531D02*
X009672Y012601D01*
X009672Y012812D01*
X009742Y012992D02*
X009672Y013062D01*
X009672Y013202D01*
X009742Y013272D01*
X009882Y013272D01*
X009952Y013202D01*
X009952Y013062D01*
X009882Y012992D01*
X009742Y012992D01*
X009952Y012812D02*
X009952Y012601D01*
X009882Y012531D01*
X009742Y012531D01*
X009952Y011661D02*
X009952Y011451D01*
X009882Y011381D01*
X009742Y011381D01*
X010092Y011144D02*
X010162Y011144D01*
X009952Y013452D02*
X009672Y013452D01*
X009672Y013592D02*
X009882Y013592D01*
X009952Y013662D01*
X009882Y013732D01*
X009672Y013732D01*
X009882Y013592D02*
X009952Y013522D01*
X009952Y013452D01*
X008032Y013556D02*
X007732Y013556D01*
X007732Y013456D01*
X007732Y013556D02*
X007432Y013556D01*
X007432Y015556D01*
X007732Y015556D01*
X007732Y015656D01*
X007732Y015556D02*
X008032Y015556D01*
X008032Y013556D01*
X006807Y011717D02*
X003657Y011717D01*
X003657Y010536D01*
X002088Y010267D02*
X000376Y010267D01*
X000376Y014845D01*
X002088Y014845D01*
X002088Y010267D01*
X003657Y010536D02*
X003467Y010454D01*
X003281Y010363D01*
X003099Y010263D01*
X002923Y010155D01*
X002752Y010038D01*
X002587Y009913D01*
X002428Y009779D01*
X002276Y009639D01*
X002131Y009491D01*
X001993Y009336D01*
X001864Y009174D01*
X001742Y009007D01*
X001628Y008833D01*
X001524Y008655D01*
X001428Y008471D01*
X001341Y008283D01*
X001263Y008091D01*
X001195Y007895D01*
X001136Y007696D01*
X001088Y007495D01*
X001049Y007291D01*
X001020Y007086D01*
X001001Y006880D01*
X000993Y006673D01*
X000994Y006466D01*
X001006Y006259D01*
X001027Y006053D01*
X001059Y005848D01*
X001101Y005645D01*
X001152Y005444D01*
X001213Y005247D01*
X001284Y005052D01*
X001365Y004861D01*
X001454Y004674D01*
X001553Y004492D01*
X001660Y004315D01*
X001776Y004143D01*
X001900Y003977D01*
X002032Y003817D01*
X002172Y003664D01*
X002319Y003518D01*
X002473Y003380D01*
X002633Y003249D01*
X002800Y003126D01*
X002973Y003011D01*
X003151Y002905D01*
X003334Y002808D01*
X003521Y002720D01*
X003713Y002641D01*
X003908Y002571D01*
X004106Y002511D01*
X004307Y002461D01*
X004510Y002421D01*
X004715Y002391D01*
X004921Y002370D01*
X005128Y002360D01*
X005336Y002360D01*
X005543Y002370D01*
X005749Y002391D01*
X005954Y002421D01*
X006157Y002461D01*
X006358Y002511D01*
X006556Y002571D01*
X006751Y002641D01*
X006943Y002720D01*
X007130Y002808D01*
X007313Y002905D01*
X007491Y003011D01*
X007664Y003126D01*
X007831Y003249D01*
X007991Y003380D01*
X008145Y003518D01*
X008292Y003664D01*
X008432Y003817D01*
X008564Y003977D01*
X008688Y004143D01*
X008804Y004315D01*
X008911Y004492D01*
X009010Y004674D01*
X009099Y004861D01*
X009180Y005052D01*
X009251Y005247D01*
X009312Y005444D01*
X009363Y005645D01*
X009405Y005848D01*
X009437Y006053D01*
X009458Y006259D01*
X009470Y006466D01*
X009471Y006673D01*
X009463Y006880D01*
X009444Y007086D01*
X009415Y007291D01*
X009376Y007495D01*
X009328Y007696D01*
X009269Y007895D01*
X009201Y008091D01*
X009123Y008283D01*
X009036Y008471D01*
X008940Y008655D01*
X008836Y008833D01*
X008722Y009007D01*
X008600Y009174D01*
X008471Y009336D01*
X008333Y009491D01*
X008188Y009639D01*
X008036Y009779D01*
X007877Y009913D01*
X007712Y010038D01*
X007541Y010155D01*
X007365Y010263D01*
X007183Y010363D01*
X006997Y010454D01*
X006807Y010536D01*
X006807Y011717D01*
X009742Y005396D02*
X009952Y005396D01*
D12*
X006732Y013456D02*
X002732Y013456D01*
X002732Y015656D01*
X006732Y015656D01*
X006732Y014806D01*
X006702Y014804D01*
X006672Y014799D01*
X006643Y014790D01*
X006616Y014777D01*
X006590Y014762D01*
X006566Y014743D01*
X006545Y014722D01*
X006526Y014698D01*
X006511Y014672D01*
X006498Y014645D01*
X006489Y014616D01*
X006484Y014586D01*
X006482Y014556D01*
X006484Y014526D01*
X006489Y014496D01*
X006498Y014467D01*
X006511Y014440D01*
X006526Y014414D01*
X006545Y014390D01*
X006566Y014369D01*
X006590Y014350D01*
X006616Y014335D01*
X006643Y014322D01*
X006672Y014313D01*
X006702Y014308D01*
X006732Y014306D01*
X006732Y013456D01*
D13*
X007557Y013916D02*
X007827Y013916D01*
X007692Y013781D01*
X007692Y013961D01*
X007602Y014076D02*
X007602Y014121D01*
X007557Y014121D01*
X007557Y014076D01*
X007602Y014076D01*
X007602Y014223D02*
X007557Y014223D01*
X007602Y014223D02*
X007782Y014403D01*
X007827Y014403D01*
X007827Y014223D01*
X007827Y014518D02*
X007557Y014518D01*
X007647Y014518D02*
X007827Y014698D01*
X007692Y014563D02*
X007557Y014698D01*
M02*
