%
M48
M72
T01C0.0320
T02C0.0354
T03C0.0400
T04C0.0512
T05C0.1300
%
T01
X4732Y4556
X5732Y4556
X5732Y9556
X4732Y9556
X5232Y13056
X6232Y13056
X5732Y14556
X6232Y16056
X5232Y16056
X4732Y14556
X4232Y16056
X3232Y16056
X3232Y13056
X4232Y13056
T02
X7732Y13056
X7732Y16056
T03
X1232Y13556
X1232Y12556
X1232Y11556
T04
X5232Y10930
X5232Y3056
T05
X1232Y3056
X1232Y16056
X9232Y16056
X9232Y3056
M30
