G75*
G70*
%OFA0B0*%
%FSLAX24Y24*%
%IPPOS*%
%LPD*%
%AMOC8*
5,1,8,0,0,1.08239X$1,22.5*
%
%ADD10C,0.0050*%
%ADD11C,0.0520*%
%ADD12C,0.0740*%
%ADD13C,0.0768*%
%ADD14C,0.0120*%
D10*
X007347Y002581D02*
X007257Y002761D01*
X007437Y002761D02*
X007347Y002581D01*
X007551Y002581D02*
X007732Y002761D01*
X007732Y002806D01*
X007687Y002851D01*
X007596Y002851D01*
X007551Y002806D01*
X007551Y002581D02*
X007732Y002581D01*
X007846Y002581D02*
X007891Y002581D01*
X007891Y002626D01*
X007846Y002626D01*
X007846Y002581D01*
X007993Y002626D02*
X008174Y002806D01*
X008174Y002626D01*
X008129Y002581D01*
X008038Y002581D01*
X007993Y002626D01*
X007993Y002806D01*
X008038Y002851D01*
X008129Y002851D01*
X008174Y002806D01*
D11*
X006232Y012796D02*
X006232Y013316D01*
X005232Y013316D02*
X005232Y012796D01*
X004232Y012796D02*
X004232Y013316D01*
X003232Y013316D02*
X003232Y012796D01*
X003232Y015796D02*
X003232Y016316D01*
X004232Y016316D02*
X004232Y015796D01*
X005232Y015796D02*
X005232Y016316D01*
X006232Y016316D02*
X006232Y015796D01*
D12*
X005732Y014556D03*
X004732Y014556D03*
X007732Y013056D03*
X007732Y016056D03*
X005732Y009556D03*
X004732Y009556D03*
X004732Y004556D03*
X005732Y004556D03*
X001232Y011556D03*
X001232Y012556D03*
X001232Y013556D03*
D13*
X005232Y010930D03*
X005232Y003056D03*
D14*
X004792Y004456D02*
X004732Y004556D01*
X004792Y004576D01*
X004792Y009496D01*
X004732Y009556D01*
X003232Y011056D01*
X003232Y013056D01*
X003232Y013096D01*
X004672Y014536D01*
X004732Y014556D01*
X005632Y014656D02*
X005732Y014556D01*
X005632Y014656D02*
X005632Y015616D01*
X005272Y015976D01*
X005232Y016056D01*
X006232Y016056D02*
X006232Y016096D01*
X007672Y016096D01*
X007732Y016056D01*
X007672Y013096D02*
X006232Y013096D01*
X006232Y013056D01*
X005872Y012376D02*
X005872Y009736D01*
X005752Y009616D01*
X005732Y009556D01*
X005872Y012376D02*
X005272Y012976D01*
X005232Y013056D01*
X007672Y013096D02*
X007732Y013056D01*
X004792Y004456D02*
X005152Y004096D01*
X005152Y003136D01*
X005232Y003056D01*
M02*
