G75*
G70*
%OFA0B0*%
%FSLAX24Y24*%
%IPPOS*%
%LPD*%
%AMOC8*
5,1,8,0,0,1.08239X$1,22.5*
%
%ADD10C,0.0768*%
%ADD11C,0.0594*%
%ADD12C,0.0520*%
%ADD13C,0.0740*%
%ADD14C,0.0100*%
D10*
X003062Y007812D03*
X010936Y007812D03*
D11*
X007881Y002312D03*
X008669Y002312D03*
X009456Y002312D03*
X010243Y002312D03*
D12*
X012302Y006812D02*
X012822Y006812D01*
X012822Y007812D02*
X012302Y007812D01*
X012302Y008812D02*
X012822Y008812D01*
X012822Y009812D02*
X012302Y009812D01*
X015302Y009812D02*
X015822Y009812D01*
X015822Y008812D02*
X015302Y008812D01*
X015302Y007812D02*
X015822Y007812D01*
X015822Y006812D02*
X015302Y006812D01*
D13*
X014562Y004812D03*
X011562Y004812D03*
X010062Y013812D03*
X009062Y013812D03*
X008062Y013812D03*
D14*
X009062Y013812D02*
X009122Y013752D01*
X009122Y007872D01*
X010922Y007872D01*
X010936Y007812D01*
X012482Y007752D02*
X012562Y007812D01*
X012482Y007752D02*
X007922Y003192D01*
X007922Y002352D01*
X007881Y002312D01*
X010243Y002312D02*
X010322Y002352D01*
X011882Y003912D01*
X013322Y003912D01*
X013322Y007992D01*
X012602Y008712D01*
X012562Y008812D01*
M02*
