G75*
G70*
%OFA0B0*%
%FSLAX24Y24*%
%IPPOS*%
%LPD*%
%AMOC8*
5,1,8,0,0,1.08239X$1,22.5*
%
%ADD10C,0.0000*%
%ADD11C,0.0060*%
%ADD12C,0.0040*%
%ADD13C,0.0080*%
%ADD14C,0.0050*%
D10*
X000232Y000232D02*
X000232Y011228D01*
X007752Y011228D01*
X007752Y000232D01*
X000232Y000232D01*
X000582Y001232D02*
X000584Y001282D01*
X000590Y001332D01*
X000600Y001382D01*
X000613Y001430D01*
X000630Y001478D01*
X000651Y001524D01*
X000675Y001568D01*
X000703Y001610D01*
X000734Y001650D01*
X000768Y001687D01*
X000805Y001722D01*
X000844Y001753D01*
X000885Y001782D01*
X000929Y001807D01*
X000975Y001829D01*
X001022Y001847D01*
X001070Y001861D01*
X001119Y001872D01*
X001169Y001879D01*
X001219Y001882D01*
X001270Y001881D01*
X001320Y001876D01*
X001370Y001867D01*
X001418Y001855D01*
X001466Y001838D01*
X001512Y001818D01*
X001557Y001795D01*
X001600Y001768D01*
X001640Y001738D01*
X001678Y001705D01*
X001713Y001669D01*
X001746Y001630D01*
X001775Y001589D01*
X001801Y001546D01*
X001824Y001501D01*
X001843Y001454D01*
X001858Y001406D01*
X001870Y001357D01*
X001878Y001307D01*
X001882Y001257D01*
X001882Y001207D01*
X001878Y001157D01*
X001870Y001107D01*
X001858Y001058D01*
X001843Y001010D01*
X001824Y000963D01*
X001801Y000918D01*
X001775Y000875D01*
X001746Y000834D01*
X001713Y000795D01*
X001678Y000759D01*
X001640Y000726D01*
X001600Y000696D01*
X001557Y000669D01*
X001512Y000646D01*
X001466Y000626D01*
X001418Y000609D01*
X001370Y000597D01*
X001320Y000588D01*
X001270Y000583D01*
X001219Y000582D01*
X001169Y000585D01*
X001119Y000592D01*
X001070Y000603D01*
X001022Y000617D01*
X000975Y000635D01*
X000929Y000657D01*
X000885Y000682D01*
X000844Y000711D01*
X000805Y000742D01*
X000768Y000777D01*
X000734Y000814D01*
X000703Y000854D01*
X000675Y000896D01*
X000651Y000940D01*
X000630Y000986D01*
X000613Y001034D01*
X000600Y001082D01*
X000590Y001132D01*
X000584Y001182D01*
X000582Y001232D01*
X006082Y001232D02*
X006084Y001282D01*
X006090Y001332D01*
X006100Y001382D01*
X006113Y001430D01*
X006130Y001478D01*
X006151Y001524D01*
X006175Y001568D01*
X006203Y001610D01*
X006234Y001650D01*
X006268Y001687D01*
X006305Y001722D01*
X006344Y001753D01*
X006385Y001782D01*
X006429Y001807D01*
X006475Y001829D01*
X006522Y001847D01*
X006570Y001861D01*
X006619Y001872D01*
X006669Y001879D01*
X006719Y001882D01*
X006770Y001881D01*
X006820Y001876D01*
X006870Y001867D01*
X006918Y001855D01*
X006966Y001838D01*
X007012Y001818D01*
X007057Y001795D01*
X007100Y001768D01*
X007140Y001738D01*
X007178Y001705D01*
X007213Y001669D01*
X007246Y001630D01*
X007275Y001589D01*
X007301Y001546D01*
X007324Y001501D01*
X007343Y001454D01*
X007358Y001406D01*
X007370Y001357D01*
X007378Y001307D01*
X007382Y001257D01*
X007382Y001207D01*
X007378Y001157D01*
X007370Y001107D01*
X007358Y001058D01*
X007343Y001010D01*
X007324Y000963D01*
X007301Y000918D01*
X007275Y000875D01*
X007246Y000834D01*
X007213Y000795D01*
X007178Y000759D01*
X007140Y000726D01*
X007100Y000696D01*
X007057Y000669D01*
X007012Y000646D01*
X006966Y000626D01*
X006918Y000609D01*
X006870Y000597D01*
X006820Y000588D01*
X006770Y000583D01*
X006719Y000582D01*
X006669Y000585D01*
X006619Y000592D01*
X006570Y000603D01*
X006522Y000617D01*
X006475Y000635D01*
X006429Y000657D01*
X006385Y000682D01*
X006344Y000711D01*
X006305Y000742D01*
X006268Y000777D01*
X006234Y000814D01*
X006203Y000854D01*
X006175Y000896D01*
X006151Y000940D01*
X006130Y000986D01*
X006113Y001034D01*
X006100Y001082D01*
X006090Y001132D01*
X006084Y001182D01*
X006082Y001232D01*
X006082Y010232D02*
X006084Y010282D01*
X006090Y010332D01*
X006100Y010382D01*
X006113Y010430D01*
X006130Y010478D01*
X006151Y010524D01*
X006175Y010568D01*
X006203Y010610D01*
X006234Y010650D01*
X006268Y010687D01*
X006305Y010722D01*
X006344Y010753D01*
X006385Y010782D01*
X006429Y010807D01*
X006475Y010829D01*
X006522Y010847D01*
X006570Y010861D01*
X006619Y010872D01*
X006669Y010879D01*
X006719Y010882D01*
X006770Y010881D01*
X006820Y010876D01*
X006870Y010867D01*
X006918Y010855D01*
X006966Y010838D01*
X007012Y010818D01*
X007057Y010795D01*
X007100Y010768D01*
X007140Y010738D01*
X007178Y010705D01*
X007213Y010669D01*
X007246Y010630D01*
X007275Y010589D01*
X007301Y010546D01*
X007324Y010501D01*
X007343Y010454D01*
X007358Y010406D01*
X007370Y010357D01*
X007378Y010307D01*
X007382Y010257D01*
X007382Y010207D01*
X007378Y010157D01*
X007370Y010107D01*
X007358Y010058D01*
X007343Y010010D01*
X007324Y009963D01*
X007301Y009918D01*
X007275Y009875D01*
X007246Y009834D01*
X007213Y009795D01*
X007178Y009759D01*
X007140Y009726D01*
X007100Y009696D01*
X007057Y009669D01*
X007012Y009646D01*
X006966Y009626D01*
X006918Y009609D01*
X006870Y009597D01*
X006820Y009588D01*
X006770Y009583D01*
X006719Y009582D01*
X006669Y009585D01*
X006619Y009592D01*
X006570Y009603D01*
X006522Y009617D01*
X006475Y009635D01*
X006429Y009657D01*
X006385Y009682D01*
X006344Y009711D01*
X006305Y009742D01*
X006268Y009777D01*
X006234Y009814D01*
X006203Y009854D01*
X006175Y009896D01*
X006151Y009940D01*
X006130Y009986D01*
X006113Y010034D01*
X006100Y010082D01*
X006090Y010132D01*
X006084Y010182D01*
X006082Y010232D01*
X000582Y010232D02*
X000584Y010282D01*
X000590Y010332D01*
X000600Y010382D01*
X000613Y010430D01*
X000630Y010478D01*
X000651Y010524D01*
X000675Y010568D01*
X000703Y010610D01*
X000734Y010650D01*
X000768Y010687D01*
X000805Y010722D01*
X000844Y010753D01*
X000885Y010782D01*
X000929Y010807D01*
X000975Y010829D01*
X001022Y010847D01*
X001070Y010861D01*
X001119Y010872D01*
X001169Y010879D01*
X001219Y010882D01*
X001270Y010881D01*
X001320Y010876D01*
X001370Y010867D01*
X001418Y010855D01*
X001466Y010838D01*
X001512Y010818D01*
X001557Y010795D01*
X001600Y010768D01*
X001640Y010738D01*
X001678Y010705D01*
X001713Y010669D01*
X001746Y010630D01*
X001775Y010589D01*
X001801Y010546D01*
X001824Y010501D01*
X001843Y010454D01*
X001858Y010406D01*
X001870Y010357D01*
X001878Y010307D01*
X001882Y010257D01*
X001882Y010207D01*
X001878Y010157D01*
X001870Y010107D01*
X001858Y010058D01*
X001843Y010010D01*
X001824Y009963D01*
X001801Y009918D01*
X001775Y009875D01*
X001746Y009834D01*
X001713Y009795D01*
X001678Y009759D01*
X001640Y009726D01*
X001600Y009696D01*
X001557Y009669D01*
X001512Y009646D01*
X001466Y009626D01*
X001418Y009609D01*
X001370Y009597D01*
X001320Y009588D01*
X001270Y009583D01*
X001219Y009582D01*
X001169Y009585D01*
X001119Y009592D01*
X001070Y009603D01*
X001022Y009617D01*
X000975Y009635D01*
X000929Y009657D01*
X000885Y009682D01*
X000844Y009711D01*
X000805Y009742D01*
X000768Y009777D01*
X000734Y009814D01*
X000703Y009854D01*
X000675Y009896D01*
X000651Y009940D01*
X000630Y009986D01*
X000613Y010034D01*
X000600Y010082D01*
X000590Y010132D01*
X000584Y010182D01*
X000582Y010232D01*
D11*
X000589Y008120D02*
X000645Y008120D01*
X000702Y008063D01*
X000702Y007950D01*
X000645Y007893D01*
X000589Y008120D02*
X000362Y007893D01*
X000362Y008120D01*
X000362Y007766D02*
X000362Y007709D01*
X000419Y007709D01*
X000419Y007766D01*
X000362Y007766D01*
X000419Y007568D02*
X000362Y007511D01*
X000362Y007397D01*
X000419Y007341D01*
X000645Y007568D01*
X000419Y007568D01*
X000419Y007341D02*
X000645Y007341D01*
X000702Y007397D01*
X000702Y007511D01*
X000645Y007568D01*
X000589Y007199D02*
X000362Y007086D01*
X000589Y006972D01*
X000589Y006463D02*
X000589Y006293D01*
X000532Y006236D01*
X000419Y006236D01*
X000362Y006293D01*
X000362Y006463D01*
X000362Y006104D02*
X000362Y005990D01*
X000362Y006047D02*
X000589Y006047D01*
X000589Y005990D01*
X000702Y006047D02*
X000759Y006047D01*
X000702Y005858D02*
X000645Y005802D01*
X000362Y005802D01*
X000532Y005858D02*
X000532Y005745D01*
X000532Y005613D02*
X000532Y005499D01*
X000532Y005358D02*
X000362Y005358D01*
X000362Y005188D01*
X000419Y005131D01*
X000475Y005188D01*
X000475Y005358D01*
X000532Y005358D02*
X000589Y005301D01*
X000589Y005188D01*
X000589Y004994D02*
X000589Y004938D01*
X000475Y004824D01*
X000362Y004824D02*
X000589Y004824D01*
X000702Y004683D02*
X000702Y004456D01*
X000702Y004569D02*
X000362Y004569D01*
X000362Y004314D02*
X000532Y004314D01*
X000589Y004258D01*
X000589Y004088D01*
X000362Y004088D01*
X000362Y003946D02*
X000362Y003776D01*
X000419Y003719D01*
X000475Y003776D01*
X000475Y003946D01*
X000532Y003946D02*
X000362Y003946D01*
X000532Y003946D02*
X000589Y003889D01*
X000589Y003776D01*
X000532Y003578D02*
X000419Y003578D01*
X000362Y003521D01*
X000362Y003351D01*
X000702Y003351D01*
X000589Y003351D02*
X000589Y003521D01*
X000532Y003578D01*
X000589Y003214D02*
X000589Y003157D01*
X000475Y003044D01*
X000362Y003044D02*
X000589Y003044D01*
X000702Y002903D02*
X000419Y002903D01*
X000362Y002846D01*
X000362Y002732D01*
X000419Y002676D01*
X000702Y002676D01*
X002182Y002032D02*
X002182Y006032D01*
X003032Y006032D01*
X003034Y006002D01*
X003039Y005972D01*
X003048Y005943D01*
X003061Y005916D01*
X003076Y005890D01*
X003095Y005866D01*
X003116Y005845D01*
X003140Y005826D01*
X003166Y005811D01*
X003193Y005798D01*
X003222Y005789D01*
X003252Y005784D01*
X003282Y005782D01*
X003312Y005784D01*
X003342Y005789D01*
X003371Y005798D01*
X003398Y005811D01*
X003424Y005826D01*
X003448Y005845D01*
X003469Y005866D01*
X003488Y005890D01*
X003503Y005916D01*
X003516Y005943D01*
X003525Y005972D01*
X003530Y006002D01*
X003532Y006032D01*
X004382Y006032D01*
X004382Y002032D01*
X002182Y002032D01*
X000645Y005556D02*
X000362Y005556D01*
X000645Y005556D02*
X000702Y005613D01*
D12*
X003636Y008252D02*
X003736Y008252D01*
X003770Y008285D01*
X003770Y008352D01*
X003736Y008385D01*
X003636Y008385D01*
X003857Y008385D02*
X003957Y008385D01*
X003991Y008352D01*
X003991Y008285D01*
X003957Y008252D01*
X003857Y008252D01*
X004078Y008319D02*
X004078Y008452D01*
X004078Y008319D02*
X004145Y008252D01*
X004212Y008319D01*
X004212Y008452D01*
X004178Y009752D02*
X004112Y009752D01*
X004078Y009785D01*
X004078Y009852D01*
X004145Y009852D01*
X004078Y009919D02*
X004112Y009952D01*
X004178Y009952D01*
X004212Y009919D01*
X004212Y009785D01*
X004178Y009752D01*
X003991Y009752D02*
X003991Y009952D01*
X003857Y009752D01*
X003857Y009952D01*
X003770Y009952D02*
X003670Y009952D01*
X003636Y009919D01*
X003636Y009785D01*
X003670Y009752D01*
X003770Y009752D01*
X003770Y009952D01*
D13*
X004232Y007532D02*
X002232Y007532D01*
X002232Y007232D01*
X002132Y007232D01*
X002232Y007232D02*
X002232Y006932D01*
X004232Y006932D01*
X004232Y007232D01*
X004332Y007232D01*
X004232Y007232D02*
X004232Y007532D01*
D14*
X004007Y007192D02*
X003827Y007192D01*
X003872Y007057D02*
X003872Y007327D01*
X004007Y007192D01*
X003712Y007102D02*
X003667Y007102D01*
X003667Y007057D01*
X003712Y007057D01*
X003712Y007102D01*
X003565Y007102D02*
X003565Y007057D01*
X003565Y007102D02*
X003385Y007282D01*
X003385Y007327D01*
X003565Y007327D01*
X003270Y007327D02*
X003270Y007057D01*
X003270Y007147D02*
X003090Y007327D01*
X003225Y007192D02*
X003090Y007057D01*
M02*
