%
M48
M72
T01C0.0320
T02C0.0354
T03C0.0400
T04C0.0470
T05C0.1300
%
T01
X1782Y2532
X1782Y3532
X1782Y4532
X1782Y5532
X2732Y5732
X3732Y5732
X4782Y5532
X4782Y4532
X4782Y3532
X4782Y2532
X3732Y2232
X2732Y2232
X2732Y9232
X3732Y9232
T02
X4732Y7232
X1732Y7232
T03
X6732Y6232
X6732Y5232
X6732Y4232
T04
X5232Y8732
X5232Y10232
T05
X1232Y1232
X6732Y1232
X6732Y10232
X1232Y10232
M30
