G75*
G70*
%OFA0B0*%
%FSLAX24Y24*%
%IPPOS*%
%LPD*%
%AMOC8*
5,1,8,0,0,1.08239X$1,22.5*
%
%ADD10C,0.0480*%
%ADD11C,0.0740*%
%ADD12OC8,0.1250*%
%ADD13C,0.0120*%
D10*
X001542Y002532D02*
X002022Y002532D01*
X002022Y003532D02*
X001542Y003532D01*
X001542Y004532D02*
X002022Y004532D01*
X002022Y005532D02*
X001542Y005532D01*
X004542Y005532D02*
X005022Y005532D01*
X005022Y004532D02*
X004542Y004532D01*
X004542Y003532D02*
X005022Y003532D01*
X005022Y002532D02*
X004542Y002532D01*
D11*
X003732Y002232D03*
X002732Y002232D03*
X002732Y005732D03*
X003732Y005732D03*
X004732Y007232D03*
X003732Y009232D03*
X002732Y009232D03*
X001732Y007232D03*
X006732Y006232D03*
X006732Y005232D03*
X006732Y004232D03*
D12*
X005232Y008732D03*
X005232Y010232D03*
D13*
X005232Y008732D02*
X005272Y008712D01*
X005272Y006712D01*
X006712Y005272D01*
X006732Y005232D01*
X004782Y005532D02*
X004792Y005592D01*
X004792Y007192D01*
X004732Y007232D01*
X003752Y005752D02*
X003732Y005732D01*
X003752Y005672D01*
X003752Y002232D01*
X003732Y002232D01*
X002732Y002232D02*
X002712Y002232D01*
X002712Y002632D01*
X001832Y003512D01*
X001782Y003532D01*
X001782Y004532D02*
X001752Y004552D01*
X001112Y005192D01*
X001112Y007592D01*
X002712Y009192D01*
X002732Y009232D01*
X003732Y009232D02*
X003752Y009192D01*
X003752Y005752D01*
X001782Y005532D02*
X001752Y005592D01*
X001752Y007192D01*
X001732Y007232D01*
M02*
