G75*
G70*
%OFA0B0*%
%FSLAX24Y24*%
%IPPOS*%
%LPD*%
%AMOC8*
5,1,8,0,0,1.08239X$1,22.5*
%
%ADD10C,0.0000*%
%ADD11C,0.0060*%
%ADD12C,0.0080*%
%ADD13C,0.0010*%
D10*
X000232Y000232D02*
X000232Y011228D01*
X007752Y011228D01*
X007752Y000232D01*
X000232Y000232D01*
X000582Y001232D02*
X000584Y001282D01*
X000590Y001332D01*
X000600Y001382D01*
X000613Y001430D01*
X000630Y001478D01*
X000651Y001524D01*
X000675Y001568D01*
X000703Y001610D01*
X000734Y001650D01*
X000768Y001687D01*
X000805Y001722D01*
X000844Y001753D01*
X000885Y001782D01*
X000929Y001807D01*
X000975Y001829D01*
X001022Y001847D01*
X001070Y001861D01*
X001119Y001872D01*
X001169Y001879D01*
X001219Y001882D01*
X001270Y001881D01*
X001320Y001876D01*
X001370Y001867D01*
X001418Y001855D01*
X001466Y001838D01*
X001512Y001818D01*
X001557Y001795D01*
X001600Y001768D01*
X001640Y001738D01*
X001678Y001705D01*
X001713Y001669D01*
X001746Y001630D01*
X001775Y001589D01*
X001801Y001546D01*
X001824Y001501D01*
X001843Y001454D01*
X001858Y001406D01*
X001870Y001357D01*
X001878Y001307D01*
X001882Y001257D01*
X001882Y001207D01*
X001878Y001157D01*
X001870Y001107D01*
X001858Y001058D01*
X001843Y001010D01*
X001824Y000963D01*
X001801Y000918D01*
X001775Y000875D01*
X001746Y000834D01*
X001713Y000795D01*
X001678Y000759D01*
X001640Y000726D01*
X001600Y000696D01*
X001557Y000669D01*
X001512Y000646D01*
X001466Y000626D01*
X001418Y000609D01*
X001370Y000597D01*
X001320Y000588D01*
X001270Y000583D01*
X001219Y000582D01*
X001169Y000585D01*
X001119Y000592D01*
X001070Y000603D01*
X001022Y000617D01*
X000975Y000635D01*
X000929Y000657D01*
X000885Y000682D01*
X000844Y000711D01*
X000805Y000742D01*
X000768Y000777D01*
X000734Y000814D01*
X000703Y000854D01*
X000675Y000896D01*
X000651Y000940D01*
X000630Y000986D01*
X000613Y001034D01*
X000600Y001082D01*
X000590Y001132D01*
X000584Y001182D01*
X000582Y001232D01*
X006082Y001232D02*
X006084Y001282D01*
X006090Y001332D01*
X006100Y001382D01*
X006113Y001430D01*
X006130Y001478D01*
X006151Y001524D01*
X006175Y001568D01*
X006203Y001610D01*
X006234Y001650D01*
X006268Y001687D01*
X006305Y001722D01*
X006344Y001753D01*
X006385Y001782D01*
X006429Y001807D01*
X006475Y001829D01*
X006522Y001847D01*
X006570Y001861D01*
X006619Y001872D01*
X006669Y001879D01*
X006719Y001882D01*
X006770Y001881D01*
X006820Y001876D01*
X006870Y001867D01*
X006918Y001855D01*
X006966Y001838D01*
X007012Y001818D01*
X007057Y001795D01*
X007100Y001768D01*
X007140Y001738D01*
X007178Y001705D01*
X007213Y001669D01*
X007246Y001630D01*
X007275Y001589D01*
X007301Y001546D01*
X007324Y001501D01*
X007343Y001454D01*
X007358Y001406D01*
X007370Y001357D01*
X007378Y001307D01*
X007382Y001257D01*
X007382Y001207D01*
X007378Y001157D01*
X007370Y001107D01*
X007358Y001058D01*
X007343Y001010D01*
X007324Y000963D01*
X007301Y000918D01*
X007275Y000875D01*
X007246Y000834D01*
X007213Y000795D01*
X007178Y000759D01*
X007140Y000726D01*
X007100Y000696D01*
X007057Y000669D01*
X007012Y000646D01*
X006966Y000626D01*
X006918Y000609D01*
X006870Y000597D01*
X006820Y000588D01*
X006770Y000583D01*
X006719Y000582D01*
X006669Y000585D01*
X006619Y000592D01*
X006570Y000603D01*
X006522Y000617D01*
X006475Y000635D01*
X006429Y000657D01*
X006385Y000682D01*
X006344Y000711D01*
X006305Y000742D01*
X006268Y000777D01*
X006234Y000814D01*
X006203Y000854D01*
X006175Y000896D01*
X006151Y000940D01*
X006130Y000986D01*
X006113Y001034D01*
X006100Y001082D01*
X006090Y001132D01*
X006084Y001182D01*
X006082Y001232D01*
X006082Y010232D02*
X006084Y010282D01*
X006090Y010332D01*
X006100Y010382D01*
X006113Y010430D01*
X006130Y010478D01*
X006151Y010524D01*
X006175Y010568D01*
X006203Y010610D01*
X006234Y010650D01*
X006268Y010687D01*
X006305Y010722D01*
X006344Y010753D01*
X006385Y010782D01*
X006429Y010807D01*
X006475Y010829D01*
X006522Y010847D01*
X006570Y010861D01*
X006619Y010872D01*
X006669Y010879D01*
X006719Y010882D01*
X006770Y010881D01*
X006820Y010876D01*
X006870Y010867D01*
X006918Y010855D01*
X006966Y010838D01*
X007012Y010818D01*
X007057Y010795D01*
X007100Y010768D01*
X007140Y010738D01*
X007178Y010705D01*
X007213Y010669D01*
X007246Y010630D01*
X007275Y010589D01*
X007301Y010546D01*
X007324Y010501D01*
X007343Y010454D01*
X007358Y010406D01*
X007370Y010357D01*
X007378Y010307D01*
X007382Y010257D01*
X007382Y010207D01*
X007378Y010157D01*
X007370Y010107D01*
X007358Y010058D01*
X007343Y010010D01*
X007324Y009963D01*
X007301Y009918D01*
X007275Y009875D01*
X007246Y009834D01*
X007213Y009795D01*
X007178Y009759D01*
X007140Y009726D01*
X007100Y009696D01*
X007057Y009669D01*
X007012Y009646D01*
X006966Y009626D01*
X006918Y009609D01*
X006870Y009597D01*
X006820Y009588D01*
X006770Y009583D01*
X006719Y009582D01*
X006669Y009585D01*
X006619Y009592D01*
X006570Y009603D01*
X006522Y009617D01*
X006475Y009635D01*
X006429Y009657D01*
X006385Y009682D01*
X006344Y009711D01*
X006305Y009742D01*
X006268Y009777D01*
X006234Y009814D01*
X006203Y009854D01*
X006175Y009896D01*
X006151Y009940D01*
X006130Y009986D01*
X006113Y010034D01*
X006100Y010082D01*
X006090Y010132D01*
X006084Y010182D01*
X006082Y010232D01*
X000582Y010232D02*
X000584Y010282D01*
X000590Y010332D01*
X000600Y010382D01*
X000613Y010430D01*
X000630Y010478D01*
X000651Y010524D01*
X000675Y010568D01*
X000703Y010610D01*
X000734Y010650D01*
X000768Y010687D01*
X000805Y010722D01*
X000844Y010753D01*
X000885Y010782D01*
X000929Y010807D01*
X000975Y010829D01*
X001022Y010847D01*
X001070Y010861D01*
X001119Y010872D01*
X001169Y010879D01*
X001219Y010882D01*
X001270Y010881D01*
X001320Y010876D01*
X001370Y010867D01*
X001418Y010855D01*
X001466Y010838D01*
X001512Y010818D01*
X001557Y010795D01*
X001600Y010768D01*
X001640Y010738D01*
X001678Y010705D01*
X001713Y010669D01*
X001746Y010630D01*
X001775Y010589D01*
X001801Y010546D01*
X001824Y010501D01*
X001843Y010454D01*
X001858Y010406D01*
X001870Y010357D01*
X001878Y010307D01*
X001882Y010257D01*
X001882Y010207D01*
X001878Y010157D01*
X001870Y010107D01*
X001858Y010058D01*
X001843Y010010D01*
X001824Y009963D01*
X001801Y009918D01*
X001775Y009875D01*
X001746Y009834D01*
X001713Y009795D01*
X001678Y009759D01*
X001640Y009726D01*
X001600Y009696D01*
X001557Y009669D01*
X001512Y009646D01*
X001466Y009626D01*
X001418Y009609D01*
X001370Y009597D01*
X001320Y009588D01*
X001270Y009583D01*
X001219Y009582D01*
X001169Y009585D01*
X001119Y009592D01*
X001070Y009603D01*
X001022Y009617D01*
X000975Y009635D01*
X000929Y009657D01*
X000885Y009682D01*
X000844Y009711D01*
X000805Y009742D01*
X000768Y009777D01*
X000734Y009814D01*
X000703Y009854D01*
X000675Y009896D01*
X000651Y009940D01*
X000630Y009986D01*
X000613Y010034D01*
X000600Y010082D01*
X000590Y010132D01*
X000584Y010182D01*
X000582Y010232D01*
D11*
X000532Y008934D02*
X000475Y008877D01*
X000532Y008820D01*
X000702Y008820D01*
X000702Y008707D02*
X000475Y008707D01*
X000475Y008764D01*
X000532Y008820D01*
X000532Y008934D02*
X000702Y008934D01*
X000645Y008566D02*
X000532Y008566D01*
X000475Y008509D01*
X000475Y008395D01*
X000532Y008339D01*
X000645Y008339D01*
X000702Y008395D01*
X000702Y008509D01*
X000645Y008566D01*
X000702Y008197D02*
X000702Y008027D01*
X000645Y007970D01*
X000532Y007970D01*
X000475Y008027D01*
X000475Y008197D01*
X000645Y007843D02*
X000702Y007843D01*
X000702Y007786D01*
X000645Y007786D01*
X000645Y007843D01*
X000645Y007645D02*
X000588Y007588D01*
X000588Y007475D01*
X000532Y007418D01*
X000475Y007475D01*
X000475Y007645D01*
X000645Y007645D02*
X000702Y007588D01*
X000702Y007418D01*
X000702Y007276D02*
X000702Y007106D01*
X000645Y007050D01*
X000532Y007050D01*
X000475Y007106D01*
X000475Y007276D01*
X000475Y006861D02*
X000702Y006861D01*
X000702Y006804D02*
X000702Y006918D01*
X000702Y006663D02*
X000532Y006663D01*
X000475Y006606D01*
X000475Y006436D01*
X000702Y006436D01*
X000645Y006294D02*
X000532Y006294D01*
X000475Y006238D01*
X000475Y006124D01*
X000532Y006068D01*
X000645Y006068D01*
X000702Y006124D01*
X000702Y006238D01*
X000645Y006294D01*
X000475Y005931D02*
X000475Y005874D01*
X000588Y005761D01*
X000475Y005761D02*
X000702Y005761D01*
X000702Y005629D02*
X000645Y005572D01*
X000418Y005572D01*
X000475Y005515D02*
X000475Y005629D01*
X000532Y005374D02*
X000475Y005317D01*
X000475Y005204D01*
X000532Y005147D01*
X000645Y005147D01*
X000702Y005204D01*
X000702Y005317D01*
X000588Y005374D02*
X000588Y005147D01*
X000702Y005015D02*
X000702Y004901D01*
X000702Y004958D02*
X000362Y004958D01*
X000362Y004901D01*
X000475Y004760D02*
X000475Y004590D01*
X000532Y004533D01*
X000645Y004533D01*
X000702Y004590D01*
X000702Y004760D01*
X000759Y004760D02*
X000475Y004760D01*
X000532Y004392D02*
X000702Y004392D01*
X000532Y004392D02*
X000475Y004335D01*
X000475Y004165D01*
X000702Y004165D01*
X000702Y004023D02*
X000702Y003853D01*
X000645Y003796D01*
X000588Y003853D01*
X000588Y004023D01*
X000532Y004023D02*
X000702Y004023D01*
X000532Y004023D02*
X000475Y003966D01*
X000475Y003853D01*
X000532Y003664D02*
X000532Y003551D01*
X000418Y003608D02*
X000362Y003664D01*
X000418Y003608D02*
X000702Y003608D01*
X000702Y003423D02*
X000702Y003367D01*
X000645Y003367D01*
X000645Y003423D01*
X000702Y003423D01*
X000645Y003225D02*
X000475Y003225D01*
X000475Y002998D02*
X000645Y002998D01*
X000702Y003055D01*
X000645Y003112D01*
X000702Y003169D01*
X000645Y003225D01*
X000645Y002857D02*
X000475Y002857D01*
X000475Y002630D02*
X000645Y002630D01*
X000702Y002687D01*
X000645Y002744D01*
X000702Y002800D01*
X000645Y002857D01*
X000645Y002489D02*
X000475Y002489D01*
X000475Y002262D02*
X000645Y002262D01*
X000702Y002319D01*
X000645Y002375D01*
X000702Y002432D01*
X000645Y002489D01*
X000815Y004646D02*
X000815Y004703D01*
X000759Y004760D01*
X000588Y005374D02*
X000532Y005374D01*
X000475Y006804D02*
X000475Y006861D01*
X000362Y006861D02*
X000305Y006861D01*
X002232Y005732D02*
X002234Y005795D01*
X002240Y005857D01*
X002250Y005919D01*
X002263Y005981D01*
X002281Y006041D01*
X002302Y006100D01*
X002327Y006158D01*
X002356Y006214D01*
X002388Y006268D01*
X002423Y006320D01*
X002461Y006369D01*
X002503Y006417D01*
X002547Y006461D01*
X002595Y006503D01*
X002644Y006541D01*
X002696Y006576D01*
X002750Y006608D01*
X002806Y006637D01*
X002864Y006662D01*
X002923Y006683D01*
X002983Y006701D01*
X003045Y006714D01*
X003107Y006724D01*
X003169Y006730D01*
X003232Y006732D01*
X003295Y006730D01*
X003357Y006724D01*
X003419Y006714D01*
X003481Y006701D01*
X003541Y006683D01*
X003600Y006662D01*
X003658Y006637D01*
X003714Y006608D01*
X003768Y006576D01*
X003820Y006541D01*
X003869Y006503D01*
X003917Y006461D01*
X003961Y006417D01*
X004003Y006369D01*
X004041Y006320D01*
X004076Y006268D01*
X004108Y006214D01*
X004137Y006158D01*
X004162Y006100D01*
X004183Y006041D01*
X004201Y005981D01*
X004214Y005919D01*
X004224Y005857D01*
X004230Y005795D01*
X004232Y005732D01*
X004230Y005669D01*
X004224Y005607D01*
X004214Y005545D01*
X004201Y005483D01*
X004183Y005423D01*
X004162Y005364D01*
X004137Y005306D01*
X004108Y005250D01*
X004076Y005196D01*
X004041Y005144D01*
X004003Y005095D01*
X003961Y005047D01*
X003917Y005003D01*
X003869Y004961D01*
X003820Y004923D01*
X003768Y004888D01*
X003714Y004856D01*
X003658Y004827D01*
X003600Y004802D01*
X003541Y004781D01*
X003481Y004763D01*
X003419Y004750D01*
X003357Y004740D01*
X003295Y004734D01*
X003232Y004732D01*
X003169Y004734D01*
X003107Y004740D01*
X003045Y004750D01*
X002983Y004763D01*
X002923Y004781D01*
X002864Y004802D01*
X002806Y004827D01*
X002750Y004856D01*
X002696Y004888D01*
X002644Y004923D01*
X002595Y004961D01*
X002547Y005003D01*
X002503Y005047D01*
X002461Y005095D01*
X002423Y005144D01*
X002388Y005196D01*
X002356Y005250D01*
X002327Y005306D01*
X002302Y005364D01*
X002281Y005423D01*
X002263Y005483D01*
X002250Y005545D01*
X002240Y005607D01*
X002234Y005669D01*
X002232Y005732D01*
X004632Y008132D02*
X004632Y008332D01*
X004632Y008132D02*
X004832Y008132D01*
X004632Y009132D02*
X004632Y009332D01*
X004832Y009332D01*
X004832Y009632D02*
X004632Y009632D01*
X004632Y009832D01*
X004632Y010632D02*
X004632Y010832D01*
X004832Y010832D01*
X005632Y010832D02*
X005832Y010832D01*
X005832Y010632D01*
X005832Y009832D02*
X005832Y009632D01*
X005632Y009632D01*
X005632Y009332D02*
X005832Y009332D01*
X005832Y009132D01*
X005832Y008332D02*
X005832Y008132D01*
X005632Y008132D01*
X002232Y009232D02*
X002234Y009295D01*
X002240Y009357D01*
X002250Y009419D01*
X002263Y009481D01*
X002281Y009541D01*
X002302Y009600D01*
X002327Y009658D01*
X002356Y009714D01*
X002388Y009768D01*
X002423Y009820D01*
X002461Y009869D01*
X002503Y009917D01*
X002547Y009961D01*
X002595Y010003D01*
X002644Y010041D01*
X002696Y010076D01*
X002750Y010108D01*
X002806Y010137D01*
X002864Y010162D01*
X002923Y010183D01*
X002983Y010201D01*
X003045Y010214D01*
X003107Y010224D01*
X003169Y010230D01*
X003232Y010232D01*
X003295Y010230D01*
X003357Y010224D01*
X003419Y010214D01*
X003481Y010201D01*
X003541Y010183D01*
X003600Y010162D01*
X003658Y010137D01*
X003714Y010108D01*
X003768Y010076D01*
X003820Y010041D01*
X003869Y010003D01*
X003917Y009961D01*
X003961Y009917D01*
X004003Y009869D01*
X004041Y009820D01*
X004076Y009768D01*
X004108Y009714D01*
X004137Y009658D01*
X004162Y009600D01*
X004183Y009541D01*
X004201Y009481D01*
X004214Y009419D01*
X004224Y009357D01*
X004230Y009295D01*
X004232Y009232D01*
X004230Y009169D01*
X004224Y009107D01*
X004214Y009045D01*
X004201Y008983D01*
X004183Y008923D01*
X004162Y008864D01*
X004137Y008806D01*
X004108Y008750D01*
X004076Y008696D01*
X004041Y008644D01*
X004003Y008595D01*
X003961Y008547D01*
X003917Y008503D01*
X003869Y008461D01*
X003820Y008423D01*
X003768Y008388D01*
X003714Y008356D01*
X003658Y008327D01*
X003600Y008302D01*
X003541Y008281D01*
X003481Y008263D01*
X003419Y008250D01*
X003357Y008240D01*
X003295Y008234D01*
X003232Y008232D01*
X003169Y008234D01*
X003107Y008240D01*
X003045Y008250D01*
X002983Y008263D01*
X002923Y008281D01*
X002864Y008302D01*
X002806Y008327D01*
X002750Y008356D01*
X002696Y008388D01*
X002644Y008423D01*
X002595Y008461D01*
X002547Y008503D01*
X002503Y008547D01*
X002461Y008595D01*
X002423Y008644D01*
X002388Y008696D01*
X002356Y008750D01*
X002327Y008806D01*
X002302Y008864D01*
X002281Y008923D01*
X002263Y008983D01*
X002250Y009045D01*
X002240Y009107D01*
X002234Y009169D01*
X002232Y009232D01*
X002232Y002232D02*
X002234Y002295D01*
X002240Y002357D01*
X002250Y002419D01*
X002263Y002481D01*
X002281Y002541D01*
X002302Y002600D01*
X002327Y002658D01*
X002356Y002714D01*
X002388Y002768D01*
X002423Y002820D01*
X002461Y002869D01*
X002503Y002917D01*
X002547Y002961D01*
X002595Y003003D01*
X002644Y003041D01*
X002696Y003076D01*
X002750Y003108D01*
X002806Y003137D01*
X002864Y003162D01*
X002923Y003183D01*
X002983Y003201D01*
X003045Y003214D01*
X003107Y003224D01*
X003169Y003230D01*
X003232Y003232D01*
X003295Y003230D01*
X003357Y003224D01*
X003419Y003214D01*
X003481Y003201D01*
X003541Y003183D01*
X003600Y003162D01*
X003658Y003137D01*
X003714Y003108D01*
X003768Y003076D01*
X003820Y003041D01*
X003869Y003003D01*
X003917Y002961D01*
X003961Y002917D01*
X004003Y002869D01*
X004041Y002820D01*
X004076Y002768D01*
X004108Y002714D01*
X004137Y002658D01*
X004162Y002600D01*
X004183Y002541D01*
X004201Y002481D01*
X004214Y002419D01*
X004224Y002357D01*
X004230Y002295D01*
X004232Y002232D01*
X004230Y002169D01*
X004224Y002107D01*
X004214Y002045D01*
X004201Y001983D01*
X004183Y001923D01*
X004162Y001864D01*
X004137Y001806D01*
X004108Y001750D01*
X004076Y001696D01*
X004041Y001644D01*
X004003Y001595D01*
X003961Y001547D01*
X003917Y001503D01*
X003869Y001461D01*
X003820Y001423D01*
X003768Y001388D01*
X003714Y001356D01*
X003658Y001327D01*
X003600Y001302D01*
X003541Y001281D01*
X003481Y001263D01*
X003419Y001250D01*
X003357Y001240D01*
X003295Y001234D01*
X003232Y001232D01*
X003169Y001234D01*
X003107Y001240D01*
X003045Y001250D01*
X002983Y001263D01*
X002923Y001281D01*
X002864Y001302D01*
X002806Y001327D01*
X002750Y001356D01*
X002696Y001388D01*
X002644Y001423D01*
X002595Y001461D01*
X002547Y001503D01*
X002503Y001547D01*
X002461Y001595D01*
X002423Y001644D01*
X002388Y001696D01*
X002356Y001750D01*
X002327Y001806D01*
X002302Y001864D01*
X002281Y001923D01*
X002263Y001983D01*
X002250Y002045D01*
X002240Y002107D01*
X002234Y002169D01*
X002232Y002232D01*
D12*
X002842Y001692D02*
X002772Y001622D01*
X002772Y001342D01*
X002842Y001272D01*
X002982Y001272D01*
X003052Y001342D01*
X003052Y001482D01*
X002912Y001482D01*
X003052Y001622D02*
X002982Y001692D01*
X002842Y001692D01*
X004232Y001482D02*
X004232Y002982D01*
X004232Y004982D02*
X004232Y006482D01*
X003052Y005192D02*
X003052Y005122D01*
X002912Y004982D01*
X002912Y004772D01*
X002912Y004982D02*
X002772Y005122D01*
X002772Y005192D01*
X002772Y008272D02*
X002772Y008692D01*
X002982Y008692D01*
X003052Y008622D01*
X003052Y008482D01*
X002982Y008412D01*
X002772Y008412D01*
X002912Y008412D02*
X003052Y008272D01*
X004232Y008482D02*
X004232Y009982D01*
X005876Y007521D02*
X005876Y002942D01*
X007588Y002942D01*
X007588Y007521D01*
X005876Y007521D01*
D13*
X004264Y010012D02*
X004192Y009958D01*
X004193Y009959D02*
X004150Y010012D01*
X004105Y010063D01*
X004056Y010111D01*
X004005Y010156D01*
X003951Y010199D01*
X003895Y010238D01*
X003837Y010274D01*
X003777Y010307D01*
X003716Y010336D01*
X003652Y010361D01*
X003588Y010383D01*
X003522Y010402D01*
X003455Y010416D01*
X003388Y010427D01*
X003320Y010434D01*
X003252Y010437D01*
X003183Y010436D01*
X003115Y010431D01*
X003047Y010423D01*
X002980Y010410D01*
X002914Y010394D01*
X002849Y010374D01*
X002784Y010351D01*
X002722Y010324D01*
X002661Y010293D01*
X002602Y010259D01*
X002544Y010222D01*
X002489Y010181D01*
X002437Y010137D01*
X002387Y010091D01*
X002340Y010042D01*
X002295Y009990D01*
X002254Y009936D01*
X002215Y009879D01*
X002180Y009820D01*
X002149Y009760D01*
X002121Y009698D01*
X002096Y009634D01*
X002075Y009569D01*
X002058Y009503D01*
X002044Y009436D01*
X002035Y009368D01*
X002029Y009300D01*
X002027Y009232D01*
X002029Y009164D01*
X002035Y009096D01*
X002044Y009028D01*
X002058Y008961D01*
X002075Y008895D01*
X002096Y008830D01*
X002121Y008766D01*
X002149Y008704D01*
X002180Y008644D01*
X002215Y008585D01*
X002254Y008528D01*
X002295Y008474D01*
X002340Y008422D01*
X002387Y008373D01*
X002437Y008327D01*
X002489Y008283D01*
X002544Y008242D01*
X002602Y008205D01*
X002661Y008171D01*
X002722Y008140D01*
X002784Y008113D01*
X002849Y008090D01*
X002914Y008070D01*
X002980Y008054D01*
X003047Y008041D01*
X003115Y008033D01*
X003183Y008028D01*
X003252Y008027D01*
X003320Y008030D01*
X003388Y008037D01*
X003455Y008048D01*
X003522Y008062D01*
X003588Y008081D01*
X003652Y008103D01*
X003716Y008128D01*
X003777Y008157D01*
X003837Y008190D01*
X003895Y008226D01*
X003951Y008265D01*
X004005Y008308D01*
X004056Y008353D01*
X004105Y008401D01*
X004150Y008452D01*
X004193Y008505D01*
X004264Y008452D01*
X004265Y008451D01*
X004221Y008396D01*
X004173Y008343D01*
X004123Y008292D01*
X004070Y008245D01*
X004015Y008201D01*
X003957Y008159D01*
X003897Y008121D01*
X003836Y008086D01*
X003772Y008055D01*
X003707Y008027D01*
X003640Y008003D01*
X003572Y007982D01*
X003503Y007966D01*
X003433Y007953D01*
X003363Y007944D01*
X003292Y007938D01*
X003221Y007937D01*
X003150Y007940D01*
X003079Y007946D01*
X003009Y007956D01*
X002940Y007970D01*
X002871Y007988D01*
X002803Y008010D01*
X002737Y008035D01*
X002672Y008064D01*
X002609Y008097D01*
X002548Y008133D01*
X002489Y008172D01*
X002432Y008214D01*
X002377Y008259D01*
X002325Y008308D01*
X002276Y008359D01*
X002229Y008412D01*
X002186Y008469D01*
X002146Y008527D01*
X002109Y008588D01*
X002075Y008650D01*
X002045Y008714D01*
X002018Y008780D01*
X001995Y008847D01*
X001976Y008916D01*
X001961Y008985D01*
X001949Y009055D01*
X001941Y009126D01*
X001937Y009197D01*
X001937Y009267D01*
X001941Y009338D01*
X001949Y009409D01*
X001961Y009479D01*
X001976Y009548D01*
X001995Y009617D01*
X002018Y009684D01*
X002045Y009750D01*
X002075Y009814D01*
X002109Y009876D01*
X002146Y009937D01*
X002186Y009995D01*
X002229Y010052D01*
X002276Y010105D01*
X002325Y010156D01*
X002377Y010205D01*
X002432Y010250D01*
X002489Y010292D01*
X002548Y010331D01*
X002609Y010367D01*
X002672Y010400D01*
X002737Y010429D01*
X002803Y010454D01*
X002871Y010476D01*
X002940Y010494D01*
X003009Y010508D01*
X003079Y010518D01*
X003150Y010524D01*
X003221Y010527D01*
X003292Y010526D01*
X003363Y010520D01*
X003433Y010511D01*
X003503Y010498D01*
X003572Y010482D01*
X003640Y010461D01*
X003707Y010437D01*
X003772Y010409D01*
X003836Y010378D01*
X003897Y010343D01*
X003957Y010305D01*
X004015Y010263D01*
X004070Y010219D01*
X004123Y010172D01*
X004173Y010121D01*
X004221Y010068D01*
X004265Y010013D01*
X004258Y010008D01*
X004213Y010063D01*
X004166Y010116D01*
X004115Y010167D01*
X004062Y010214D01*
X004006Y010259D01*
X003948Y010300D01*
X003888Y010338D01*
X003826Y010373D01*
X003762Y010404D01*
X003696Y010431D01*
X003629Y010455D01*
X003560Y010475D01*
X003491Y010492D01*
X003421Y010504D01*
X003350Y010513D01*
X003279Y010517D01*
X003208Y010518D01*
X003137Y010514D01*
X003066Y010507D01*
X002995Y010496D01*
X002926Y010481D01*
X002857Y010462D01*
X002789Y010439D01*
X002723Y010413D01*
X002658Y010383D01*
X002596Y010349D01*
X002535Y010313D01*
X002476Y010272D01*
X002419Y010229D01*
X002365Y010182D01*
X002314Y010133D01*
X002266Y010080D01*
X002220Y010026D01*
X002178Y009968D01*
X002139Y009909D01*
X002103Y009847D01*
X002070Y009784D01*
X002042Y009719D01*
X002016Y009652D01*
X001995Y009584D01*
X001977Y009515D01*
X001964Y009445D01*
X001954Y009374D01*
X001948Y009303D01*
X001946Y009232D01*
X001948Y009161D01*
X001954Y009090D01*
X001964Y009019D01*
X001977Y008949D01*
X001995Y008880D01*
X002016Y008812D01*
X002042Y008745D01*
X002070Y008680D01*
X002103Y008617D01*
X002139Y008555D01*
X002178Y008496D01*
X002220Y008438D01*
X002266Y008384D01*
X002314Y008331D01*
X002365Y008282D01*
X002419Y008235D01*
X002476Y008192D01*
X002535Y008151D01*
X002596Y008115D01*
X002658Y008081D01*
X002723Y008051D01*
X002789Y008025D01*
X002857Y008002D01*
X002926Y007983D01*
X002995Y007968D01*
X003066Y007957D01*
X003137Y007950D01*
X003208Y007946D01*
X003279Y007947D01*
X003350Y007951D01*
X003421Y007960D01*
X003491Y007972D01*
X003560Y007989D01*
X003629Y008009D01*
X003696Y008033D01*
X003762Y008060D01*
X003826Y008091D01*
X003888Y008126D01*
X003948Y008164D01*
X004006Y008205D01*
X004062Y008250D01*
X004115Y008297D01*
X004166Y008348D01*
X004213Y008401D01*
X004258Y008456D01*
X004251Y008462D01*
X004206Y008407D01*
X004159Y008354D01*
X004109Y008304D01*
X004056Y008257D01*
X004001Y008213D01*
X003943Y008171D01*
X003884Y008134D01*
X003822Y008099D01*
X003758Y008068D01*
X003693Y008041D01*
X003626Y008017D01*
X003558Y007997D01*
X003489Y007981D01*
X003420Y007969D01*
X003349Y007960D01*
X003279Y007956D01*
X003208Y007955D01*
X003137Y007959D01*
X003067Y007966D01*
X002997Y007977D01*
X002928Y007992D01*
X002860Y008011D01*
X002792Y008033D01*
X002727Y008059D01*
X002662Y008089D01*
X002600Y008122D01*
X002540Y008159D01*
X002481Y008199D01*
X002425Y008242D01*
X002371Y008288D01*
X002321Y008338D01*
X002272Y008389D01*
X002227Y008444D01*
X002185Y008501D01*
X002146Y008560D01*
X002111Y008621D01*
X002078Y008684D01*
X002050Y008749D01*
X002025Y008815D01*
X002004Y008883D01*
X001986Y008951D01*
X001973Y009021D01*
X001963Y009091D01*
X001957Y009161D01*
X001955Y009232D01*
X001957Y009303D01*
X001963Y009373D01*
X001973Y009443D01*
X001986Y009513D01*
X002004Y009581D01*
X002025Y009649D01*
X002050Y009715D01*
X002078Y009780D01*
X002111Y009843D01*
X002146Y009904D01*
X002185Y009963D01*
X002227Y010020D01*
X002272Y010075D01*
X002321Y010126D01*
X002371Y010176D01*
X002425Y010222D01*
X002481Y010265D01*
X002540Y010305D01*
X002600Y010342D01*
X002662Y010375D01*
X002727Y010405D01*
X002792Y010431D01*
X002860Y010453D01*
X002928Y010472D01*
X002997Y010487D01*
X003067Y010498D01*
X003137Y010505D01*
X003208Y010509D01*
X003279Y010508D01*
X003349Y010504D01*
X003420Y010495D01*
X003489Y010483D01*
X003558Y010467D01*
X003626Y010447D01*
X003693Y010423D01*
X003758Y010396D01*
X003822Y010365D01*
X003884Y010330D01*
X003943Y010293D01*
X004001Y010251D01*
X004056Y010207D01*
X004109Y010160D01*
X004159Y010110D01*
X004206Y010057D01*
X004251Y010002D01*
X004243Y009997D01*
X004199Y010052D01*
X004151Y010105D01*
X004101Y010155D01*
X004048Y010203D01*
X003992Y010247D01*
X003934Y010288D01*
X003874Y010325D01*
X003812Y010360D01*
X003748Y010390D01*
X003682Y010417D01*
X003615Y010441D01*
X003547Y010460D01*
X003477Y010476D01*
X003407Y010488D01*
X003337Y010496D01*
X003266Y010500D01*
X003195Y010499D01*
X003124Y010495D01*
X003053Y010487D01*
X002983Y010475D01*
X002914Y010459D01*
X002846Y010440D01*
X002778Y010416D01*
X002713Y010389D01*
X002649Y010358D01*
X002587Y010324D01*
X002527Y010286D01*
X002469Y010244D01*
X002413Y010200D01*
X002360Y010153D01*
X002310Y010102D01*
X002263Y010049D01*
X002218Y009994D01*
X002177Y009936D01*
X002140Y009876D01*
X002105Y009813D01*
X002074Y009749D01*
X002047Y009684D01*
X002024Y009617D01*
X002004Y009548D01*
X001988Y009479D01*
X001976Y009409D01*
X001968Y009338D01*
X001964Y009268D01*
X001964Y009196D01*
X001968Y009126D01*
X001976Y009055D01*
X001988Y008985D01*
X002004Y008916D01*
X002024Y008847D01*
X002047Y008780D01*
X002074Y008715D01*
X002105Y008651D01*
X002140Y008588D01*
X002177Y008528D01*
X002218Y008470D01*
X002263Y008415D01*
X002310Y008362D01*
X002360Y008311D01*
X002413Y008264D01*
X002469Y008220D01*
X002527Y008178D01*
X002587Y008140D01*
X002649Y008106D01*
X002713Y008075D01*
X002778Y008048D01*
X002846Y008024D01*
X002914Y008005D01*
X002983Y007989D01*
X003053Y007977D01*
X003124Y007969D01*
X003195Y007965D01*
X003266Y007964D01*
X003337Y007968D01*
X003407Y007976D01*
X003477Y007988D01*
X003547Y008004D01*
X003615Y008023D01*
X003682Y008047D01*
X003748Y008074D01*
X003812Y008104D01*
X003874Y008139D01*
X003934Y008176D01*
X003992Y008217D01*
X004048Y008261D01*
X004101Y008309D01*
X004151Y008359D01*
X004199Y008412D01*
X004243Y008467D01*
X004236Y008473D01*
X004192Y008418D01*
X004145Y008365D01*
X004095Y008315D01*
X004042Y008268D01*
X003987Y008224D01*
X003929Y008184D01*
X003870Y008146D01*
X003808Y008112D01*
X003744Y008082D01*
X003679Y008055D01*
X003612Y008032D01*
X003544Y008012D01*
X003476Y007997D01*
X003406Y007985D01*
X003336Y007977D01*
X003265Y007973D01*
X003195Y007974D01*
X003124Y007978D01*
X003054Y007986D01*
X002985Y007998D01*
X002916Y008013D01*
X002848Y008033D01*
X002782Y008056D01*
X002717Y008083D01*
X002653Y008114D01*
X002591Y008148D01*
X002532Y008186D01*
X002474Y008227D01*
X002419Y008271D01*
X002366Y008318D01*
X002317Y008368D01*
X002270Y008420D01*
X002226Y008476D01*
X002185Y008533D01*
X002147Y008593D01*
X002113Y008655D01*
X002083Y008718D01*
X002056Y008783D01*
X002032Y008850D01*
X002013Y008918D01*
X001997Y008987D01*
X001985Y009056D01*
X001977Y009126D01*
X001973Y009197D01*
X001973Y009267D01*
X001977Y009338D01*
X001985Y009408D01*
X001997Y009477D01*
X002013Y009546D01*
X002032Y009614D01*
X002056Y009681D01*
X002083Y009746D01*
X002113Y009809D01*
X002147Y009871D01*
X002185Y009931D01*
X002226Y009988D01*
X002270Y010044D01*
X002317Y010096D01*
X002366Y010146D01*
X002419Y010193D01*
X002474Y010237D01*
X002532Y010278D01*
X002591Y010316D01*
X002653Y010350D01*
X002717Y010381D01*
X002782Y010408D01*
X002848Y010431D01*
X002916Y010451D01*
X002985Y010466D01*
X003054Y010478D01*
X003124Y010486D01*
X003195Y010490D01*
X003265Y010491D01*
X003336Y010487D01*
X003406Y010479D01*
X003476Y010467D01*
X003544Y010452D01*
X003612Y010432D01*
X003679Y010409D01*
X003744Y010382D01*
X003808Y010352D01*
X003870Y010318D01*
X003929Y010280D01*
X003987Y010240D01*
X004042Y010196D01*
X004095Y010149D01*
X004145Y010099D01*
X004192Y010046D01*
X004236Y009991D01*
X004229Y009986D01*
X004185Y010041D01*
X004138Y010093D01*
X004089Y010142D01*
X004036Y010189D01*
X003982Y010232D01*
X003924Y010273D01*
X003865Y010310D01*
X003804Y010344D01*
X003740Y010374D01*
X003676Y010401D01*
X003609Y010424D01*
X003542Y010443D01*
X003474Y010458D01*
X003405Y010470D01*
X003335Y010478D01*
X003265Y010482D01*
X003195Y010481D01*
X003125Y010477D01*
X003056Y010469D01*
X002987Y010458D01*
X002918Y010442D01*
X002851Y010423D01*
X002785Y010399D01*
X002720Y010372D01*
X002657Y010342D01*
X002596Y010308D01*
X002537Y010271D01*
X002479Y010230D01*
X002425Y010186D01*
X002373Y010140D01*
X002323Y010090D01*
X002276Y010038D01*
X002233Y009983D01*
X002192Y009926D01*
X002155Y009867D01*
X002121Y009805D01*
X002091Y009742D01*
X002064Y009677D01*
X002041Y009611D01*
X002022Y009544D01*
X002006Y009476D01*
X001994Y009407D01*
X001986Y009337D01*
X001982Y009267D01*
X001982Y009197D01*
X001986Y009127D01*
X001994Y009057D01*
X002006Y008988D01*
X002022Y008920D01*
X002041Y008853D01*
X002064Y008787D01*
X002091Y008722D01*
X002121Y008659D01*
X002155Y008597D01*
X002192Y008538D01*
X002233Y008481D01*
X002276Y008426D01*
X002323Y008374D01*
X002373Y008324D01*
X002425Y008278D01*
X002479Y008234D01*
X002537Y008193D01*
X002596Y008156D01*
X002657Y008122D01*
X002720Y008092D01*
X002785Y008065D01*
X002851Y008041D01*
X002918Y008022D01*
X002987Y008006D01*
X003056Y007995D01*
X003125Y007987D01*
X003195Y007983D01*
X003265Y007982D01*
X003335Y007986D01*
X003405Y007994D01*
X003474Y008006D01*
X003542Y008021D01*
X003609Y008040D01*
X003676Y008063D01*
X003740Y008090D01*
X003804Y008120D01*
X003865Y008154D01*
X003924Y008191D01*
X003982Y008232D01*
X004036Y008275D01*
X004089Y008322D01*
X004138Y008371D01*
X004185Y008423D01*
X004229Y008478D01*
X004222Y008483D01*
X004178Y008429D01*
X004132Y008377D01*
X004083Y008328D01*
X004031Y008282D01*
X003976Y008239D01*
X003919Y008199D01*
X003860Y008162D01*
X003799Y008128D01*
X003737Y008098D01*
X003672Y008072D01*
X003607Y008049D01*
X003540Y008030D01*
X003472Y008014D01*
X003403Y008003D01*
X003334Y007995D01*
X003265Y007991D01*
X003195Y007992D01*
X003126Y007996D01*
X003057Y008003D01*
X002988Y008015D01*
X002921Y008031D01*
X002854Y008050D01*
X002788Y008073D01*
X002724Y008100D01*
X002661Y008130D01*
X002600Y008164D01*
X002542Y008201D01*
X002485Y008241D01*
X002431Y008284D01*
X002379Y008331D01*
X002330Y008380D01*
X002283Y008432D01*
X002240Y008486D01*
X002200Y008543D01*
X002163Y008602D01*
X002129Y008663D01*
X002099Y008726D01*
X002072Y008790D01*
X002049Y008855D01*
X002030Y008922D01*
X002015Y008990D01*
X002003Y009059D01*
X001995Y009128D01*
X001991Y009197D01*
X001991Y009267D01*
X001995Y009336D01*
X002003Y009405D01*
X002015Y009474D01*
X002030Y009542D01*
X002049Y009609D01*
X002072Y009674D01*
X002099Y009738D01*
X002129Y009801D01*
X002163Y009862D01*
X002200Y009921D01*
X002240Y009978D01*
X002283Y010032D01*
X002330Y010084D01*
X002379Y010133D01*
X002431Y010180D01*
X002485Y010223D01*
X002542Y010263D01*
X002600Y010300D01*
X002661Y010334D01*
X002724Y010364D01*
X002788Y010391D01*
X002854Y010414D01*
X002921Y010433D01*
X002988Y010449D01*
X003057Y010461D01*
X003126Y010468D01*
X003195Y010472D01*
X003265Y010473D01*
X003334Y010469D01*
X003403Y010461D01*
X003472Y010450D01*
X003540Y010434D01*
X003607Y010415D01*
X003672Y010392D01*
X003737Y010366D01*
X003799Y010336D01*
X003860Y010302D01*
X003919Y010265D01*
X003976Y010225D01*
X004031Y010182D01*
X004083Y010136D01*
X004132Y010087D01*
X004178Y010035D01*
X004222Y009981D01*
X004215Y009975D01*
X004171Y010029D01*
X004125Y010080D01*
X004076Y010129D01*
X004025Y010175D01*
X003971Y010218D01*
X003914Y010258D01*
X003856Y010294D01*
X003795Y010328D01*
X003733Y010358D01*
X003669Y010384D01*
X003604Y010406D01*
X003538Y010425D01*
X003470Y010441D01*
X003402Y010452D01*
X003334Y010460D01*
X003265Y010464D01*
X003196Y010463D01*
X003127Y010459D01*
X003058Y010452D01*
X002990Y010440D01*
X002923Y010425D01*
X002856Y010405D01*
X002791Y010382D01*
X002728Y010356D01*
X002665Y010326D01*
X002605Y010293D01*
X002547Y010256D01*
X002490Y010216D01*
X002436Y010173D01*
X002385Y010127D01*
X002336Y010078D01*
X002290Y010026D01*
X002247Y009972D01*
X002207Y009916D01*
X002171Y009857D01*
X002137Y009797D01*
X002107Y009735D01*
X002081Y009671D01*
X002058Y009606D01*
X002039Y009539D01*
X002024Y009472D01*
X002012Y009404D01*
X002004Y009335D01*
X002000Y009267D01*
X002000Y009197D01*
X002004Y009129D01*
X002012Y009060D01*
X002024Y008992D01*
X002039Y008925D01*
X002058Y008858D01*
X002081Y008793D01*
X002107Y008729D01*
X002137Y008667D01*
X002171Y008607D01*
X002207Y008548D01*
X002247Y008492D01*
X002290Y008438D01*
X002336Y008386D01*
X002385Y008337D01*
X002436Y008291D01*
X002490Y008248D01*
X002547Y008208D01*
X002605Y008171D01*
X002665Y008138D01*
X002728Y008108D01*
X002791Y008082D01*
X002856Y008059D01*
X002923Y008039D01*
X002990Y008024D01*
X003058Y008012D01*
X003127Y008005D01*
X003196Y008001D01*
X003265Y008000D01*
X003334Y008004D01*
X003402Y008012D01*
X003470Y008023D01*
X003538Y008039D01*
X003604Y008058D01*
X003669Y008080D01*
X003733Y008106D01*
X003795Y008136D01*
X003856Y008170D01*
X003914Y008206D01*
X003971Y008246D01*
X004025Y008289D01*
X004076Y008335D01*
X004125Y008384D01*
X004171Y008435D01*
X004215Y008489D01*
X004207Y008494D01*
X004164Y008440D01*
X004118Y008389D01*
X004068Y008340D01*
X004017Y008294D01*
X003962Y008251D01*
X003905Y008211D01*
X003847Y008175D01*
X003786Y008141D01*
X003723Y008112D01*
X003659Y008086D01*
X003593Y008064D01*
X003526Y008045D01*
X003459Y008030D01*
X003390Y008019D01*
X003321Y008012D01*
X003252Y008009D01*
X003183Y008010D01*
X003113Y008015D01*
X003045Y008023D01*
X002977Y008036D01*
X002909Y008052D01*
X002843Y008073D01*
X002778Y008096D01*
X002714Y008124D01*
X002652Y008155D01*
X002592Y008190D01*
X002534Y008228D01*
X002478Y008269D01*
X002425Y008313D01*
X002374Y008360D01*
X002326Y008410D01*
X002281Y008463D01*
X002239Y008518D01*
X002200Y008575D01*
X002165Y008635D01*
X002133Y008696D01*
X002104Y008759D01*
X002079Y008824D01*
X002058Y008890D01*
X002040Y008957D01*
X002027Y009025D01*
X002017Y009094D01*
X002011Y009163D01*
X002009Y009232D01*
X002011Y009301D01*
X002017Y009370D01*
X002027Y009439D01*
X002040Y009507D01*
X002058Y009574D01*
X002079Y009640D01*
X002104Y009705D01*
X002133Y009768D01*
X002165Y009829D01*
X002200Y009889D01*
X002239Y009946D01*
X002281Y010001D01*
X002326Y010054D01*
X002374Y010104D01*
X002425Y010151D01*
X002478Y010195D01*
X002534Y010236D01*
X002592Y010274D01*
X002652Y010309D01*
X002714Y010340D01*
X002778Y010368D01*
X002843Y010391D01*
X002909Y010412D01*
X002977Y010428D01*
X003045Y010441D01*
X003113Y010449D01*
X003183Y010454D01*
X003252Y010455D01*
X003321Y010452D01*
X003390Y010445D01*
X003459Y010434D01*
X003526Y010419D01*
X003593Y010400D01*
X003659Y010378D01*
X003723Y010352D01*
X003786Y010323D01*
X003847Y010289D01*
X003905Y010253D01*
X003962Y010213D01*
X004017Y010170D01*
X004068Y010124D01*
X004118Y010075D01*
X004164Y010024D01*
X004207Y009970D01*
X004200Y009964D01*
X004157Y010018D01*
X004111Y010069D01*
X004062Y010118D01*
X004011Y010163D01*
X003957Y010206D01*
X003900Y010245D01*
X003842Y010282D01*
X003782Y010315D01*
X003719Y010344D01*
X003656Y010370D01*
X003590Y010392D01*
X003524Y010410D01*
X003457Y010425D01*
X003389Y010436D01*
X003320Y010443D01*
X003252Y010446D01*
X003183Y010445D01*
X003114Y010440D01*
X003046Y010432D01*
X002978Y010419D01*
X002912Y010403D01*
X002846Y010383D01*
X002781Y010359D01*
X002718Y010332D01*
X002657Y010301D01*
X002597Y010267D01*
X002539Y010229D01*
X002484Y010188D01*
X002431Y010144D01*
X002381Y010097D01*
X002333Y010048D01*
X002288Y009996D01*
X002246Y009941D01*
X002208Y009884D01*
X002173Y009825D01*
X002141Y009764D01*
X002112Y009701D01*
X002088Y009637D01*
X002066Y009571D01*
X002049Y009505D01*
X002036Y009437D01*
X002026Y009369D01*
X002020Y009301D01*
X002018Y009232D01*
X002020Y009163D01*
X002026Y009095D01*
X002036Y009027D01*
X002049Y008959D01*
X002066Y008893D01*
X002088Y008827D01*
X002112Y008763D01*
X002141Y008700D01*
X002173Y008639D01*
X002208Y008580D01*
X002246Y008523D01*
X002288Y008468D01*
X002333Y008416D01*
X002381Y008367D01*
X002431Y008320D01*
X002484Y008276D01*
X002539Y008235D01*
X002597Y008197D01*
X002657Y008163D01*
X002718Y008132D01*
X002781Y008105D01*
X002846Y008081D01*
X002912Y008061D01*
X002978Y008045D01*
X003046Y008032D01*
X003114Y008024D01*
X003183Y008019D01*
X003252Y008018D01*
X003320Y008021D01*
X003389Y008028D01*
X003457Y008039D01*
X003524Y008054D01*
X003590Y008072D01*
X003656Y008094D01*
X003719Y008120D01*
X003782Y008149D01*
X003842Y008182D01*
X003900Y008219D01*
X003957Y008258D01*
X004011Y008301D01*
X004062Y008346D01*
X004111Y008395D01*
X004157Y008446D01*
X004200Y008500D01*
X004264Y006512D02*
X004192Y006458D01*
X004193Y006459D02*
X004150Y006512D01*
X004105Y006563D01*
X004056Y006611D01*
X004005Y006656D01*
X003951Y006699D01*
X003895Y006738D01*
X003837Y006774D01*
X003777Y006807D01*
X003716Y006836D01*
X003652Y006861D01*
X003588Y006883D01*
X003522Y006902D01*
X003455Y006916D01*
X003388Y006927D01*
X003320Y006934D01*
X003252Y006937D01*
X003183Y006936D01*
X003115Y006931D01*
X003047Y006923D01*
X002980Y006910D01*
X002914Y006894D01*
X002849Y006874D01*
X002784Y006851D01*
X002722Y006824D01*
X002661Y006793D01*
X002602Y006759D01*
X002544Y006722D01*
X002489Y006681D01*
X002437Y006637D01*
X002387Y006591D01*
X002340Y006542D01*
X002295Y006490D01*
X002254Y006436D01*
X002215Y006379D01*
X002180Y006320D01*
X002149Y006260D01*
X002121Y006198D01*
X002096Y006134D01*
X002075Y006069D01*
X002058Y006003D01*
X002044Y005936D01*
X002035Y005868D01*
X002029Y005800D01*
X002027Y005732D01*
X002029Y005664D01*
X002035Y005596D01*
X002044Y005528D01*
X002058Y005461D01*
X002075Y005395D01*
X002096Y005330D01*
X002121Y005266D01*
X002149Y005204D01*
X002180Y005144D01*
X002215Y005085D01*
X002254Y005028D01*
X002295Y004974D01*
X002340Y004922D01*
X002387Y004873D01*
X002437Y004827D01*
X002489Y004783D01*
X002544Y004742D01*
X002602Y004705D01*
X002661Y004671D01*
X002722Y004640D01*
X002784Y004613D01*
X002849Y004590D01*
X002914Y004570D01*
X002980Y004554D01*
X003047Y004541D01*
X003115Y004533D01*
X003183Y004528D01*
X003252Y004527D01*
X003320Y004530D01*
X003388Y004537D01*
X003455Y004548D01*
X003522Y004562D01*
X003588Y004581D01*
X003652Y004603D01*
X003716Y004628D01*
X003777Y004657D01*
X003837Y004690D01*
X003895Y004726D01*
X003951Y004765D01*
X004005Y004808D01*
X004056Y004853D01*
X004105Y004901D01*
X004150Y004952D01*
X004193Y005005D01*
X004264Y004952D01*
X004265Y004951D01*
X004221Y004896D01*
X004173Y004843D01*
X004123Y004792D01*
X004070Y004745D01*
X004015Y004701D01*
X003957Y004659D01*
X003897Y004621D01*
X003836Y004586D01*
X003772Y004555D01*
X003707Y004527D01*
X003640Y004503D01*
X003572Y004482D01*
X003503Y004466D01*
X003433Y004453D01*
X003363Y004444D01*
X003292Y004438D01*
X003221Y004437D01*
X003150Y004440D01*
X003079Y004446D01*
X003009Y004456D01*
X002940Y004470D01*
X002871Y004488D01*
X002803Y004510D01*
X002737Y004535D01*
X002672Y004564D01*
X002609Y004597D01*
X002548Y004633D01*
X002489Y004672D01*
X002432Y004714D01*
X002377Y004759D01*
X002325Y004808D01*
X002276Y004859D01*
X002229Y004912D01*
X002186Y004969D01*
X002146Y005027D01*
X002109Y005088D01*
X002075Y005150D01*
X002045Y005214D01*
X002018Y005280D01*
X001995Y005347D01*
X001976Y005416D01*
X001961Y005485D01*
X001949Y005555D01*
X001941Y005626D01*
X001937Y005697D01*
X001937Y005767D01*
X001941Y005838D01*
X001949Y005909D01*
X001961Y005979D01*
X001976Y006048D01*
X001995Y006117D01*
X002018Y006184D01*
X002045Y006250D01*
X002075Y006314D01*
X002109Y006376D01*
X002146Y006437D01*
X002186Y006495D01*
X002229Y006552D01*
X002276Y006605D01*
X002325Y006656D01*
X002377Y006705D01*
X002432Y006750D01*
X002489Y006792D01*
X002548Y006831D01*
X002609Y006867D01*
X002672Y006900D01*
X002737Y006929D01*
X002803Y006954D01*
X002871Y006976D01*
X002940Y006994D01*
X003009Y007008D01*
X003079Y007018D01*
X003150Y007024D01*
X003221Y007027D01*
X003292Y007026D01*
X003363Y007020D01*
X003433Y007011D01*
X003503Y006998D01*
X003572Y006982D01*
X003640Y006961D01*
X003707Y006937D01*
X003772Y006909D01*
X003836Y006878D01*
X003897Y006843D01*
X003957Y006805D01*
X004015Y006763D01*
X004070Y006719D01*
X004123Y006672D01*
X004173Y006621D01*
X004221Y006568D01*
X004265Y006513D01*
X004258Y006508D01*
X004213Y006563D01*
X004166Y006616D01*
X004115Y006667D01*
X004062Y006714D01*
X004006Y006759D01*
X003948Y006800D01*
X003888Y006838D01*
X003826Y006873D01*
X003762Y006904D01*
X003696Y006931D01*
X003629Y006955D01*
X003560Y006975D01*
X003491Y006992D01*
X003421Y007004D01*
X003350Y007013D01*
X003279Y007017D01*
X003208Y007018D01*
X003137Y007014D01*
X003066Y007007D01*
X002995Y006996D01*
X002926Y006981D01*
X002857Y006962D01*
X002789Y006939D01*
X002723Y006913D01*
X002658Y006883D01*
X002596Y006849D01*
X002535Y006813D01*
X002476Y006772D01*
X002419Y006729D01*
X002365Y006682D01*
X002314Y006633D01*
X002266Y006580D01*
X002220Y006526D01*
X002178Y006468D01*
X002139Y006409D01*
X002103Y006347D01*
X002070Y006284D01*
X002042Y006219D01*
X002016Y006152D01*
X001995Y006084D01*
X001977Y006015D01*
X001964Y005945D01*
X001954Y005874D01*
X001948Y005803D01*
X001946Y005732D01*
X001948Y005661D01*
X001954Y005590D01*
X001964Y005519D01*
X001977Y005449D01*
X001995Y005380D01*
X002016Y005312D01*
X002042Y005245D01*
X002070Y005180D01*
X002103Y005117D01*
X002139Y005055D01*
X002178Y004996D01*
X002220Y004938D01*
X002266Y004884D01*
X002314Y004831D01*
X002365Y004782D01*
X002419Y004735D01*
X002476Y004692D01*
X002535Y004651D01*
X002596Y004615D01*
X002658Y004581D01*
X002723Y004551D01*
X002789Y004525D01*
X002857Y004502D01*
X002926Y004483D01*
X002995Y004468D01*
X003066Y004457D01*
X003137Y004450D01*
X003208Y004446D01*
X003279Y004447D01*
X003350Y004451D01*
X003421Y004460D01*
X003491Y004472D01*
X003560Y004489D01*
X003629Y004509D01*
X003696Y004533D01*
X003762Y004560D01*
X003826Y004591D01*
X003888Y004626D01*
X003948Y004664D01*
X004006Y004705D01*
X004062Y004750D01*
X004115Y004797D01*
X004166Y004848D01*
X004213Y004901D01*
X004258Y004956D01*
X004251Y004962D01*
X004206Y004907D01*
X004159Y004854D01*
X004109Y004804D01*
X004056Y004757D01*
X004001Y004713D01*
X003943Y004671D01*
X003884Y004634D01*
X003822Y004599D01*
X003758Y004568D01*
X003693Y004541D01*
X003626Y004517D01*
X003558Y004497D01*
X003489Y004481D01*
X003420Y004469D01*
X003349Y004460D01*
X003279Y004456D01*
X003208Y004455D01*
X003137Y004459D01*
X003067Y004466D01*
X002997Y004477D01*
X002928Y004492D01*
X002860Y004511D01*
X002792Y004533D01*
X002727Y004559D01*
X002662Y004589D01*
X002600Y004622D01*
X002540Y004659D01*
X002481Y004699D01*
X002425Y004742D01*
X002371Y004788D01*
X002321Y004838D01*
X002272Y004889D01*
X002227Y004944D01*
X002185Y005001D01*
X002146Y005060D01*
X002111Y005121D01*
X002078Y005184D01*
X002050Y005249D01*
X002025Y005315D01*
X002004Y005383D01*
X001986Y005451D01*
X001973Y005521D01*
X001963Y005591D01*
X001957Y005661D01*
X001955Y005732D01*
X001957Y005803D01*
X001963Y005873D01*
X001973Y005943D01*
X001986Y006013D01*
X002004Y006081D01*
X002025Y006149D01*
X002050Y006215D01*
X002078Y006280D01*
X002111Y006343D01*
X002146Y006404D01*
X002185Y006463D01*
X002227Y006520D01*
X002272Y006575D01*
X002321Y006626D01*
X002371Y006676D01*
X002425Y006722D01*
X002481Y006765D01*
X002540Y006805D01*
X002600Y006842D01*
X002662Y006875D01*
X002727Y006905D01*
X002792Y006931D01*
X002860Y006953D01*
X002928Y006972D01*
X002997Y006987D01*
X003067Y006998D01*
X003137Y007005D01*
X003208Y007009D01*
X003279Y007008D01*
X003349Y007004D01*
X003420Y006995D01*
X003489Y006983D01*
X003558Y006967D01*
X003626Y006947D01*
X003693Y006923D01*
X003758Y006896D01*
X003822Y006865D01*
X003884Y006830D01*
X003943Y006793D01*
X004001Y006751D01*
X004056Y006707D01*
X004109Y006660D01*
X004159Y006610D01*
X004206Y006557D01*
X004251Y006502D01*
X004243Y006497D01*
X004199Y006552D01*
X004151Y006605D01*
X004101Y006655D01*
X004048Y006703D01*
X003992Y006747D01*
X003934Y006788D01*
X003874Y006825D01*
X003812Y006860D01*
X003748Y006890D01*
X003682Y006917D01*
X003615Y006941D01*
X003547Y006960D01*
X003477Y006976D01*
X003407Y006988D01*
X003337Y006996D01*
X003266Y007000D01*
X003195Y006999D01*
X003124Y006995D01*
X003053Y006987D01*
X002983Y006975D01*
X002914Y006959D01*
X002846Y006940D01*
X002778Y006916D01*
X002713Y006889D01*
X002649Y006858D01*
X002587Y006824D01*
X002527Y006786D01*
X002469Y006744D01*
X002413Y006700D01*
X002360Y006653D01*
X002310Y006602D01*
X002263Y006549D01*
X002218Y006494D01*
X002177Y006436D01*
X002140Y006376D01*
X002105Y006313D01*
X002074Y006249D01*
X002047Y006184D01*
X002024Y006117D01*
X002004Y006048D01*
X001988Y005979D01*
X001976Y005909D01*
X001968Y005838D01*
X001964Y005768D01*
X001964Y005696D01*
X001968Y005626D01*
X001976Y005555D01*
X001988Y005485D01*
X002004Y005416D01*
X002024Y005347D01*
X002047Y005280D01*
X002074Y005215D01*
X002105Y005151D01*
X002140Y005088D01*
X002177Y005028D01*
X002218Y004970D01*
X002263Y004915D01*
X002310Y004862D01*
X002360Y004811D01*
X002413Y004764D01*
X002469Y004720D01*
X002527Y004678D01*
X002587Y004640D01*
X002649Y004606D01*
X002713Y004575D01*
X002778Y004548D01*
X002846Y004524D01*
X002914Y004505D01*
X002983Y004489D01*
X003053Y004477D01*
X003124Y004469D01*
X003195Y004465D01*
X003266Y004464D01*
X003337Y004468D01*
X003407Y004476D01*
X003477Y004488D01*
X003547Y004504D01*
X003615Y004523D01*
X003682Y004547D01*
X003748Y004574D01*
X003812Y004604D01*
X003874Y004639D01*
X003934Y004676D01*
X003992Y004717D01*
X004048Y004761D01*
X004101Y004809D01*
X004151Y004859D01*
X004199Y004912D01*
X004243Y004967D01*
X004236Y004973D01*
X004192Y004918D01*
X004145Y004865D01*
X004095Y004815D01*
X004042Y004768D01*
X003987Y004724D01*
X003929Y004684D01*
X003870Y004646D01*
X003808Y004612D01*
X003744Y004582D01*
X003679Y004555D01*
X003612Y004532D01*
X003544Y004512D01*
X003476Y004497D01*
X003406Y004485D01*
X003336Y004477D01*
X003265Y004473D01*
X003195Y004474D01*
X003124Y004478D01*
X003054Y004486D01*
X002985Y004498D01*
X002916Y004513D01*
X002848Y004533D01*
X002782Y004556D01*
X002717Y004583D01*
X002653Y004614D01*
X002591Y004648D01*
X002532Y004686D01*
X002474Y004727D01*
X002419Y004771D01*
X002366Y004818D01*
X002317Y004868D01*
X002270Y004920D01*
X002226Y004976D01*
X002185Y005033D01*
X002147Y005093D01*
X002113Y005155D01*
X002083Y005218D01*
X002056Y005283D01*
X002032Y005350D01*
X002013Y005418D01*
X001997Y005487D01*
X001985Y005556D01*
X001977Y005626D01*
X001973Y005697D01*
X001973Y005767D01*
X001977Y005838D01*
X001985Y005908D01*
X001997Y005977D01*
X002013Y006046D01*
X002032Y006114D01*
X002056Y006181D01*
X002083Y006246D01*
X002113Y006309D01*
X002147Y006371D01*
X002185Y006431D01*
X002226Y006488D01*
X002270Y006544D01*
X002317Y006596D01*
X002366Y006646D01*
X002419Y006693D01*
X002474Y006737D01*
X002532Y006778D01*
X002591Y006816D01*
X002653Y006850D01*
X002717Y006881D01*
X002782Y006908D01*
X002848Y006931D01*
X002916Y006951D01*
X002985Y006966D01*
X003054Y006978D01*
X003124Y006986D01*
X003195Y006990D01*
X003265Y006991D01*
X003336Y006987D01*
X003406Y006979D01*
X003476Y006967D01*
X003544Y006952D01*
X003612Y006932D01*
X003679Y006909D01*
X003744Y006882D01*
X003808Y006852D01*
X003870Y006818D01*
X003929Y006780D01*
X003987Y006740D01*
X004042Y006696D01*
X004095Y006649D01*
X004145Y006599D01*
X004192Y006546D01*
X004236Y006491D01*
X004229Y006486D01*
X004185Y006541D01*
X004138Y006593D01*
X004089Y006642D01*
X004036Y006689D01*
X003982Y006732D01*
X003924Y006773D01*
X003865Y006810D01*
X003804Y006844D01*
X003740Y006874D01*
X003676Y006901D01*
X003609Y006924D01*
X003542Y006943D01*
X003474Y006958D01*
X003405Y006970D01*
X003335Y006978D01*
X003265Y006982D01*
X003195Y006981D01*
X003125Y006977D01*
X003056Y006969D01*
X002987Y006958D01*
X002918Y006942D01*
X002851Y006923D01*
X002785Y006899D01*
X002720Y006872D01*
X002657Y006842D01*
X002596Y006808D01*
X002537Y006771D01*
X002479Y006730D01*
X002425Y006686D01*
X002373Y006640D01*
X002323Y006590D01*
X002276Y006538D01*
X002233Y006483D01*
X002192Y006426D01*
X002155Y006367D01*
X002121Y006305D01*
X002091Y006242D01*
X002064Y006177D01*
X002041Y006111D01*
X002022Y006044D01*
X002006Y005976D01*
X001994Y005907D01*
X001986Y005837D01*
X001982Y005767D01*
X001982Y005697D01*
X001986Y005627D01*
X001994Y005557D01*
X002006Y005488D01*
X002022Y005420D01*
X002041Y005353D01*
X002064Y005287D01*
X002091Y005222D01*
X002121Y005159D01*
X002155Y005097D01*
X002192Y005038D01*
X002233Y004981D01*
X002276Y004926D01*
X002323Y004874D01*
X002373Y004824D01*
X002425Y004778D01*
X002479Y004734D01*
X002537Y004693D01*
X002596Y004656D01*
X002657Y004622D01*
X002720Y004592D01*
X002785Y004565D01*
X002851Y004541D01*
X002918Y004522D01*
X002987Y004506D01*
X003056Y004495D01*
X003125Y004487D01*
X003195Y004483D01*
X003265Y004482D01*
X003335Y004486D01*
X003405Y004494D01*
X003474Y004506D01*
X003542Y004521D01*
X003609Y004540D01*
X003676Y004563D01*
X003740Y004590D01*
X003804Y004620D01*
X003865Y004654D01*
X003924Y004691D01*
X003982Y004732D01*
X004036Y004775D01*
X004089Y004822D01*
X004138Y004871D01*
X004185Y004923D01*
X004229Y004978D01*
X004222Y004983D01*
X004178Y004929D01*
X004132Y004877D01*
X004083Y004828D01*
X004031Y004782D01*
X003976Y004739D01*
X003919Y004699D01*
X003860Y004662D01*
X003799Y004628D01*
X003737Y004598D01*
X003672Y004572D01*
X003607Y004549D01*
X003540Y004530D01*
X003472Y004514D01*
X003403Y004503D01*
X003334Y004495D01*
X003265Y004491D01*
X003195Y004492D01*
X003126Y004496D01*
X003057Y004503D01*
X002988Y004515D01*
X002921Y004531D01*
X002854Y004550D01*
X002788Y004573D01*
X002724Y004600D01*
X002661Y004630D01*
X002600Y004664D01*
X002542Y004701D01*
X002485Y004741D01*
X002431Y004784D01*
X002379Y004831D01*
X002330Y004880D01*
X002283Y004932D01*
X002240Y004986D01*
X002200Y005043D01*
X002163Y005102D01*
X002129Y005163D01*
X002099Y005226D01*
X002072Y005290D01*
X002049Y005355D01*
X002030Y005422D01*
X002015Y005490D01*
X002003Y005559D01*
X001995Y005628D01*
X001991Y005697D01*
X001991Y005767D01*
X001995Y005836D01*
X002003Y005905D01*
X002015Y005974D01*
X002030Y006042D01*
X002049Y006109D01*
X002072Y006174D01*
X002099Y006238D01*
X002129Y006301D01*
X002163Y006362D01*
X002200Y006421D01*
X002240Y006478D01*
X002283Y006532D01*
X002330Y006584D01*
X002379Y006633D01*
X002431Y006680D01*
X002485Y006723D01*
X002542Y006763D01*
X002600Y006800D01*
X002661Y006834D01*
X002724Y006864D01*
X002788Y006891D01*
X002854Y006914D01*
X002921Y006933D01*
X002988Y006949D01*
X003057Y006961D01*
X003126Y006968D01*
X003195Y006972D01*
X003265Y006973D01*
X003334Y006969D01*
X003403Y006961D01*
X003472Y006950D01*
X003540Y006934D01*
X003607Y006915D01*
X003672Y006892D01*
X003737Y006866D01*
X003799Y006836D01*
X003860Y006802D01*
X003919Y006765D01*
X003976Y006725D01*
X004031Y006682D01*
X004083Y006636D01*
X004132Y006587D01*
X004178Y006535D01*
X004222Y006481D01*
X004215Y006475D01*
X004171Y006529D01*
X004125Y006580D01*
X004076Y006629D01*
X004025Y006675D01*
X003971Y006718D01*
X003914Y006758D01*
X003856Y006794D01*
X003795Y006828D01*
X003733Y006858D01*
X003669Y006884D01*
X003604Y006906D01*
X003538Y006925D01*
X003470Y006941D01*
X003402Y006952D01*
X003334Y006960D01*
X003265Y006964D01*
X003196Y006963D01*
X003127Y006959D01*
X003058Y006952D01*
X002990Y006940D01*
X002923Y006925D01*
X002856Y006905D01*
X002791Y006882D01*
X002728Y006856D01*
X002665Y006826D01*
X002605Y006793D01*
X002547Y006756D01*
X002490Y006716D01*
X002436Y006673D01*
X002385Y006627D01*
X002336Y006578D01*
X002290Y006526D01*
X002247Y006472D01*
X002207Y006416D01*
X002171Y006357D01*
X002137Y006297D01*
X002107Y006235D01*
X002081Y006171D01*
X002058Y006106D01*
X002039Y006039D01*
X002024Y005972D01*
X002012Y005904D01*
X002004Y005835D01*
X002000Y005767D01*
X002000Y005697D01*
X002004Y005629D01*
X002012Y005560D01*
X002024Y005492D01*
X002039Y005425D01*
X002058Y005358D01*
X002081Y005293D01*
X002107Y005229D01*
X002137Y005167D01*
X002171Y005107D01*
X002207Y005048D01*
X002247Y004992D01*
X002290Y004938D01*
X002336Y004886D01*
X002385Y004837D01*
X002436Y004791D01*
X002490Y004748D01*
X002547Y004708D01*
X002605Y004671D01*
X002665Y004638D01*
X002728Y004608D01*
X002791Y004582D01*
X002856Y004559D01*
X002923Y004539D01*
X002990Y004524D01*
X003058Y004512D01*
X003127Y004505D01*
X003196Y004501D01*
X003265Y004500D01*
X003334Y004504D01*
X003402Y004512D01*
X003470Y004523D01*
X003538Y004539D01*
X003604Y004558D01*
X003669Y004580D01*
X003733Y004606D01*
X003795Y004636D01*
X003856Y004670D01*
X003914Y004706D01*
X003971Y004746D01*
X004025Y004789D01*
X004076Y004835D01*
X004125Y004884D01*
X004171Y004935D01*
X004215Y004989D01*
X004207Y004994D01*
X004164Y004940D01*
X004118Y004889D01*
X004068Y004840D01*
X004017Y004794D01*
X003962Y004751D01*
X003905Y004711D01*
X003847Y004675D01*
X003786Y004641D01*
X003723Y004612D01*
X003659Y004586D01*
X003593Y004564D01*
X003526Y004545D01*
X003459Y004530D01*
X003390Y004519D01*
X003321Y004512D01*
X003252Y004509D01*
X003183Y004510D01*
X003113Y004515D01*
X003045Y004523D01*
X002977Y004536D01*
X002909Y004552D01*
X002843Y004573D01*
X002778Y004596D01*
X002714Y004624D01*
X002652Y004655D01*
X002592Y004690D01*
X002534Y004728D01*
X002478Y004769D01*
X002425Y004813D01*
X002374Y004860D01*
X002326Y004910D01*
X002281Y004963D01*
X002239Y005018D01*
X002200Y005075D01*
X002165Y005135D01*
X002133Y005196D01*
X002104Y005259D01*
X002079Y005324D01*
X002058Y005390D01*
X002040Y005457D01*
X002027Y005525D01*
X002017Y005594D01*
X002011Y005663D01*
X002009Y005732D01*
X002011Y005801D01*
X002017Y005870D01*
X002027Y005939D01*
X002040Y006007D01*
X002058Y006074D01*
X002079Y006140D01*
X002104Y006205D01*
X002133Y006268D01*
X002165Y006329D01*
X002200Y006389D01*
X002239Y006446D01*
X002281Y006501D01*
X002326Y006554D01*
X002374Y006604D01*
X002425Y006651D01*
X002478Y006695D01*
X002534Y006736D01*
X002592Y006774D01*
X002652Y006809D01*
X002714Y006840D01*
X002778Y006868D01*
X002843Y006891D01*
X002909Y006912D01*
X002977Y006928D01*
X003045Y006941D01*
X003113Y006949D01*
X003183Y006954D01*
X003252Y006955D01*
X003321Y006952D01*
X003390Y006945D01*
X003459Y006934D01*
X003526Y006919D01*
X003593Y006900D01*
X003659Y006878D01*
X003723Y006852D01*
X003786Y006823D01*
X003847Y006789D01*
X003905Y006753D01*
X003962Y006713D01*
X004017Y006670D01*
X004068Y006624D01*
X004118Y006575D01*
X004164Y006524D01*
X004207Y006470D01*
X004200Y006464D01*
X004157Y006518D01*
X004111Y006569D01*
X004062Y006618D01*
X004011Y006663D01*
X003957Y006706D01*
X003900Y006745D01*
X003842Y006782D01*
X003782Y006815D01*
X003719Y006844D01*
X003656Y006870D01*
X003590Y006892D01*
X003524Y006910D01*
X003457Y006925D01*
X003389Y006936D01*
X003320Y006943D01*
X003252Y006946D01*
X003183Y006945D01*
X003114Y006940D01*
X003046Y006932D01*
X002978Y006919D01*
X002912Y006903D01*
X002846Y006883D01*
X002781Y006859D01*
X002718Y006832D01*
X002657Y006801D01*
X002597Y006767D01*
X002539Y006729D01*
X002484Y006688D01*
X002431Y006644D01*
X002381Y006597D01*
X002333Y006548D01*
X002288Y006496D01*
X002246Y006441D01*
X002208Y006384D01*
X002173Y006325D01*
X002141Y006264D01*
X002112Y006201D01*
X002088Y006137D01*
X002066Y006071D01*
X002049Y006005D01*
X002036Y005937D01*
X002026Y005869D01*
X002020Y005801D01*
X002018Y005732D01*
X002020Y005663D01*
X002026Y005595D01*
X002036Y005527D01*
X002049Y005459D01*
X002066Y005393D01*
X002088Y005327D01*
X002112Y005263D01*
X002141Y005200D01*
X002173Y005139D01*
X002208Y005080D01*
X002246Y005023D01*
X002288Y004968D01*
X002333Y004916D01*
X002381Y004867D01*
X002431Y004820D01*
X002484Y004776D01*
X002539Y004735D01*
X002597Y004697D01*
X002657Y004663D01*
X002718Y004632D01*
X002781Y004605D01*
X002846Y004581D01*
X002912Y004561D01*
X002978Y004545D01*
X003046Y004532D01*
X003114Y004524D01*
X003183Y004519D01*
X003252Y004518D01*
X003320Y004521D01*
X003389Y004528D01*
X003457Y004539D01*
X003524Y004554D01*
X003590Y004572D01*
X003656Y004594D01*
X003719Y004620D01*
X003782Y004649D01*
X003842Y004682D01*
X003900Y004719D01*
X003957Y004758D01*
X004011Y004801D01*
X004062Y004846D01*
X004111Y004895D01*
X004157Y004946D01*
X004200Y005000D01*
X004264Y003012D02*
X004192Y002958D01*
X004193Y002959D02*
X004150Y003012D01*
X004105Y003063D01*
X004056Y003111D01*
X004005Y003156D01*
X003951Y003199D01*
X003895Y003238D01*
X003837Y003274D01*
X003777Y003307D01*
X003716Y003336D01*
X003652Y003361D01*
X003588Y003383D01*
X003522Y003402D01*
X003455Y003416D01*
X003388Y003427D01*
X003320Y003434D01*
X003252Y003437D01*
X003183Y003436D01*
X003115Y003431D01*
X003047Y003423D01*
X002980Y003410D01*
X002914Y003394D01*
X002849Y003374D01*
X002784Y003351D01*
X002722Y003324D01*
X002661Y003293D01*
X002602Y003259D01*
X002544Y003222D01*
X002489Y003181D01*
X002437Y003137D01*
X002387Y003091D01*
X002340Y003042D01*
X002295Y002990D01*
X002254Y002936D01*
X002215Y002879D01*
X002180Y002820D01*
X002149Y002760D01*
X002121Y002698D01*
X002096Y002634D01*
X002075Y002569D01*
X002058Y002503D01*
X002044Y002436D01*
X002035Y002368D01*
X002029Y002300D01*
X002027Y002232D01*
X002029Y002164D01*
X002035Y002096D01*
X002044Y002028D01*
X002058Y001961D01*
X002075Y001895D01*
X002096Y001830D01*
X002121Y001766D01*
X002149Y001704D01*
X002180Y001644D01*
X002215Y001585D01*
X002254Y001528D01*
X002295Y001474D01*
X002340Y001422D01*
X002387Y001373D01*
X002437Y001327D01*
X002489Y001283D01*
X002544Y001242D01*
X002602Y001205D01*
X002661Y001171D01*
X002722Y001140D01*
X002784Y001113D01*
X002849Y001090D01*
X002914Y001070D01*
X002980Y001054D01*
X003047Y001041D01*
X003115Y001033D01*
X003183Y001028D01*
X003252Y001027D01*
X003320Y001030D01*
X003388Y001037D01*
X003455Y001048D01*
X003522Y001062D01*
X003588Y001081D01*
X003652Y001103D01*
X003716Y001128D01*
X003777Y001157D01*
X003837Y001190D01*
X003895Y001226D01*
X003951Y001265D01*
X004005Y001308D01*
X004056Y001353D01*
X004105Y001401D01*
X004150Y001452D01*
X004193Y001505D01*
X004264Y001452D01*
X004265Y001451D01*
X004221Y001396D01*
X004173Y001343D01*
X004123Y001292D01*
X004070Y001245D01*
X004015Y001201D01*
X003957Y001159D01*
X003897Y001121D01*
X003836Y001086D01*
X003772Y001055D01*
X003707Y001027D01*
X003640Y001003D01*
X003572Y000982D01*
X003503Y000966D01*
X003433Y000953D01*
X003363Y000944D01*
X003292Y000938D01*
X003221Y000937D01*
X003150Y000940D01*
X003079Y000946D01*
X003009Y000956D01*
X002940Y000970D01*
X002871Y000988D01*
X002803Y001010D01*
X002737Y001035D01*
X002672Y001064D01*
X002609Y001097D01*
X002548Y001133D01*
X002489Y001172D01*
X002432Y001214D01*
X002377Y001259D01*
X002325Y001308D01*
X002276Y001359D01*
X002229Y001412D01*
X002186Y001469D01*
X002146Y001527D01*
X002109Y001588D01*
X002075Y001650D01*
X002045Y001714D01*
X002018Y001780D01*
X001995Y001847D01*
X001976Y001916D01*
X001961Y001985D01*
X001949Y002055D01*
X001941Y002126D01*
X001937Y002197D01*
X001937Y002267D01*
X001941Y002338D01*
X001949Y002409D01*
X001961Y002479D01*
X001976Y002548D01*
X001995Y002617D01*
X002018Y002684D01*
X002045Y002750D01*
X002075Y002814D01*
X002109Y002876D01*
X002146Y002937D01*
X002186Y002995D01*
X002229Y003052D01*
X002276Y003105D01*
X002325Y003156D01*
X002377Y003205D01*
X002432Y003250D01*
X002489Y003292D01*
X002548Y003331D01*
X002609Y003367D01*
X002672Y003400D01*
X002737Y003429D01*
X002803Y003454D01*
X002871Y003476D01*
X002940Y003494D01*
X003009Y003508D01*
X003079Y003518D01*
X003150Y003524D01*
X003221Y003527D01*
X003292Y003526D01*
X003363Y003520D01*
X003433Y003511D01*
X003503Y003498D01*
X003572Y003482D01*
X003640Y003461D01*
X003707Y003437D01*
X003772Y003409D01*
X003836Y003378D01*
X003897Y003343D01*
X003957Y003305D01*
X004015Y003263D01*
X004070Y003219D01*
X004123Y003172D01*
X004173Y003121D01*
X004221Y003068D01*
X004265Y003013D01*
X004258Y003008D01*
X004213Y003063D01*
X004166Y003116D01*
X004115Y003167D01*
X004062Y003214D01*
X004006Y003259D01*
X003948Y003300D01*
X003888Y003338D01*
X003826Y003373D01*
X003762Y003404D01*
X003696Y003431D01*
X003629Y003455D01*
X003560Y003475D01*
X003491Y003492D01*
X003421Y003504D01*
X003350Y003513D01*
X003279Y003517D01*
X003208Y003518D01*
X003137Y003514D01*
X003066Y003507D01*
X002995Y003496D01*
X002926Y003481D01*
X002857Y003462D01*
X002789Y003439D01*
X002723Y003413D01*
X002658Y003383D01*
X002596Y003349D01*
X002535Y003313D01*
X002476Y003272D01*
X002419Y003229D01*
X002365Y003182D01*
X002314Y003133D01*
X002266Y003080D01*
X002220Y003026D01*
X002178Y002968D01*
X002139Y002909D01*
X002103Y002847D01*
X002070Y002784D01*
X002042Y002719D01*
X002016Y002652D01*
X001995Y002584D01*
X001977Y002515D01*
X001964Y002445D01*
X001954Y002374D01*
X001948Y002303D01*
X001946Y002232D01*
X001948Y002161D01*
X001954Y002090D01*
X001964Y002019D01*
X001977Y001949D01*
X001995Y001880D01*
X002016Y001812D01*
X002042Y001745D01*
X002070Y001680D01*
X002103Y001617D01*
X002139Y001555D01*
X002178Y001496D01*
X002220Y001438D01*
X002266Y001384D01*
X002314Y001331D01*
X002365Y001282D01*
X002419Y001235D01*
X002476Y001192D01*
X002535Y001151D01*
X002596Y001115D01*
X002658Y001081D01*
X002723Y001051D01*
X002789Y001025D01*
X002857Y001002D01*
X002926Y000983D01*
X002995Y000968D01*
X003066Y000957D01*
X003137Y000950D01*
X003208Y000946D01*
X003279Y000947D01*
X003350Y000951D01*
X003421Y000960D01*
X003491Y000972D01*
X003560Y000989D01*
X003629Y001009D01*
X003696Y001033D01*
X003762Y001060D01*
X003826Y001091D01*
X003888Y001126D01*
X003948Y001164D01*
X004006Y001205D01*
X004062Y001250D01*
X004115Y001297D01*
X004166Y001348D01*
X004213Y001401D01*
X004258Y001456D01*
X004251Y001462D01*
X004206Y001407D01*
X004159Y001354D01*
X004109Y001304D01*
X004056Y001257D01*
X004001Y001213D01*
X003943Y001171D01*
X003884Y001134D01*
X003822Y001099D01*
X003758Y001068D01*
X003693Y001041D01*
X003626Y001017D01*
X003558Y000997D01*
X003489Y000981D01*
X003420Y000969D01*
X003349Y000960D01*
X003279Y000956D01*
X003208Y000955D01*
X003137Y000959D01*
X003067Y000966D01*
X002997Y000977D01*
X002928Y000992D01*
X002860Y001011D01*
X002792Y001033D01*
X002727Y001059D01*
X002662Y001089D01*
X002600Y001122D01*
X002540Y001159D01*
X002481Y001199D01*
X002425Y001242D01*
X002371Y001288D01*
X002321Y001338D01*
X002272Y001389D01*
X002227Y001444D01*
X002185Y001501D01*
X002146Y001560D01*
X002111Y001621D01*
X002078Y001684D01*
X002050Y001749D01*
X002025Y001815D01*
X002004Y001883D01*
X001986Y001951D01*
X001973Y002021D01*
X001963Y002091D01*
X001957Y002161D01*
X001955Y002232D01*
X001957Y002303D01*
X001963Y002373D01*
X001973Y002443D01*
X001986Y002513D01*
X002004Y002581D01*
X002025Y002649D01*
X002050Y002715D01*
X002078Y002780D01*
X002111Y002843D01*
X002146Y002904D01*
X002185Y002963D01*
X002227Y003020D01*
X002272Y003075D01*
X002321Y003126D01*
X002371Y003176D01*
X002425Y003222D01*
X002481Y003265D01*
X002540Y003305D01*
X002600Y003342D01*
X002662Y003375D01*
X002727Y003405D01*
X002792Y003431D01*
X002860Y003453D01*
X002928Y003472D01*
X002997Y003487D01*
X003067Y003498D01*
X003137Y003505D01*
X003208Y003509D01*
X003279Y003508D01*
X003349Y003504D01*
X003420Y003495D01*
X003489Y003483D01*
X003558Y003467D01*
X003626Y003447D01*
X003693Y003423D01*
X003758Y003396D01*
X003822Y003365D01*
X003884Y003330D01*
X003943Y003293D01*
X004001Y003251D01*
X004056Y003207D01*
X004109Y003160D01*
X004159Y003110D01*
X004206Y003057D01*
X004251Y003002D01*
X004243Y002997D01*
X004199Y003052D01*
X004151Y003105D01*
X004101Y003155D01*
X004048Y003203D01*
X003992Y003247D01*
X003934Y003288D01*
X003874Y003325D01*
X003812Y003360D01*
X003748Y003390D01*
X003682Y003417D01*
X003615Y003441D01*
X003547Y003460D01*
X003477Y003476D01*
X003407Y003488D01*
X003337Y003496D01*
X003266Y003500D01*
X003195Y003499D01*
X003124Y003495D01*
X003053Y003487D01*
X002983Y003475D01*
X002914Y003459D01*
X002846Y003440D01*
X002778Y003416D01*
X002713Y003389D01*
X002649Y003358D01*
X002587Y003324D01*
X002527Y003286D01*
X002469Y003244D01*
X002413Y003200D01*
X002360Y003153D01*
X002310Y003102D01*
X002263Y003049D01*
X002218Y002994D01*
X002177Y002936D01*
X002140Y002876D01*
X002105Y002813D01*
X002074Y002749D01*
X002047Y002684D01*
X002024Y002617D01*
X002004Y002548D01*
X001988Y002479D01*
X001976Y002409D01*
X001968Y002338D01*
X001964Y002268D01*
X001964Y002196D01*
X001968Y002126D01*
X001976Y002055D01*
X001988Y001985D01*
X002004Y001916D01*
X002024Y001847D01*
X002047Y001780D01*
X002074Y001715D01*
X002105Y001651D01*
X002140Y001588D01*
X002177Y001528D01*
X002218Y001470D01*
X002263Y001415D01*
X002310Y001362D01*
X002360Y001311D01*
X002413Y001264D01*
X002469Y001220D01*
X002527Y001178D01*
X002587Y001140D01*
X002649Y001106D01*
X002713Y001075D01*
X002778Y001048D01*
X002846Y001024D01*
X002914Y001005D01*
X002983Y000989D01*
X003053Y000977D01*
X003124Y000969D01*
X003195Y000965D01*
X003266Y000964D01*
X003337Y000968D01*
X003407Y000976D01*
X003477Y000988D01*
X003547Y001004D01*
X003615Y001023D01*
X003682Y001047D01*
X003748Y001074D01*
X003812Y001104D01*
X003874Y001139D01*
X003934Y001176D01*
X003992Y001217D01*
X004048Y001261D01*
X004101Y001309D01*
X004151Y001359D01*
X004199Y001412D01*
X004243Y001467D01*
X004236Y001473D01*
X004192Y001418D01*
X004145Y001365D01*
X004095Y001315D01*
X004042Y001268D01*
X003987Y001224D01*
X003929Y001184D01*
X003870Y001146D01*
X003808Y001112D01*
X003744Y001082D01*
X003679Y001055D01*
X003612Y001032D01*
X003544Y001012D01*
X003476Y000997D01*
X003406Y000985D01*
X003336Y000977D01*
X003265Y000973D01*
X003195Y000974D01*
X003124Y000978D01*
X003054Y000986D01*
X002985Y000998D01*
X002916Y001013D01*
X002848Y001033D01*
X002782Y001056D01*
X002717Y001083D01*
X002653Y001114D01*
X002591Y001148D01*
X002532Y001186D01*
X002474Y001227D01*
X002419Y001271D01*
X002366Y001318D01*
X002317Y001368D01*
X002270Y001420D01*
X002226Y001476D01*
X002185Y001533D01*
X002147Y001593D01*
X002113Y001655D01*
X002083Y001718D01*
X002056Y001783D01*
X002032Y001850D01*
X002013Y001918D01*
X001997Y001987D01*
X001985Y002056D01*
X001977Y002126D01*
X001973Y002197D01*
X001973Y002267D01*
X001977Y002338D01*
X001985Y002408D01*
X001997Y002477D01*
X002013Y002546D01*
X002032Y002614D01*
X002056Y002681D01*
X002083Y002746D01*
X002113Y002809D01*
X002147Y002871D01*
X002185Y002931D01*
X002226Y002988D01*
X002270Y003044D01*
X002317Y003096D01*
X002366Y003146D01*
X002419Y003193D01*
X002474Y003237D01*
X002532Y003278D01*
X002591Y003316D01*
X002653Y003350D01*
X002717Y003381D01*
X002782Y003408D01*
X002848Y003431D01*
X002916Y003451D01*
X002985Y003466D01*
X003054Y003478D01*
X003124Y003486D01*
X003195Y003490D01*
X003265Y003491D01*
X003336Y003487D01*
X003406Y003479D01*
X003476Y003467D01*
X003544Y003452D01*
X003612Y003432D01*
X003679Y003409D01*
X003744Y003382D01*
X003808Y003352D01*
X003870Y003318D01*
X003929Y003280D01*
X003987Y003240D01*
X004042Y003196D01*
X004095Y003149D01*
X004145Y003099D01*
X004192Y003046D01*
X004236Y002991D01*
X004229Y002986D01*
X004185Y003041D01*
X004138Y003093D01*
X004089Y003142D01*
X004036Y003189D01*
X003982Y003232D01*
X003924Y003273D01*
X003865Y003310D01*
X003804Y003344D01*
X003740Y003374D01*
X003676Y003401D01*
X003609Y003424D01*
X003542Y003443D01*
X003474Y003458D01*
X003405Y003470D01*
X003335Y003478D01*
X003265Y003482D01*
X003195Y003481D01*
X003125Y003477D01*
X003056Y003469D01*
X002987Y003458D01*
X002918Y003442D01*
X002851Y003423D01*
X002785Y003399D01*
X002720Y003372D01*
X002657Y003342D01*
X002596Y003308D01*
X002537Y003271D01*
X002479Y003230D01*
X002425Y003186D01*
X002373Y003140D01*
X002323Y003090D01*
X002276Y003038D01*
X002233Y002983D01*
X002192Y002926D01*
X002155Y002867D01*
X002121Y002805D01*
X002091Y002742D01*
X002064Y002677D01*
X002041Y002611D01*
X002022Y002544D01*
X002006Y002476D01*
X001994Y002407D01*
X001986Y002337D01*
X001982Y002267D01*
X001982Y002197D01*
X001986Y002127D01*
X001994Y002057D01*
X002006Y001988D01*
X002022Y001920D01*
X002041Y001853D01*
X002064Y001787D01*
X002091Y001722D01*
X002121Y001659D01*
X002155Y001597D01*
X002192Y001538D01*
X002233Y001481D01*
X002276Y001426D01*
X002323Y001374D01*
X002373Y001324D01*
X002425Y001278D01*
X002479Y001234D01*
X002537Y001193D01*
X002596Y001156D01*
X002657Y001122D01*
X002720Y001092D01*
X002785Y001065D01*
X002851Y001041D01*
X002918Y001022D01*
X002987Y001006D01*
X003056Y000995D01*
X003125Y000987D01*
X003195Y000983D01*
X003265Y000982D01*
X003335Y000986D01*
X003405Y000994D01*
X003474Y001006D01*
X003542Y001021D01*
X003609Y001040D01*
X003676Y001063D01*
X003740Y001090D01*
X003804Y001120D01*
X003865Y001154D01*
X003924Y001191D01*
X003982Y001232D01*
X004036Y001275D01*
X004089Y001322D01*
X004138Y001371D01*
X004185Y001423D01*
X004229Y001478D01*
X004222Y001483D01*
X004178Y001429D01*
X004132Y001377D01*
X004083Y001328D01*
X004031Y001282D01*
X003976Y001239D01*
X003919Y001199D01*
X003860Y001162D01*
X003799Y001128D01*
X003737Y001098D01*
X003672Y001072D01*
X003607Y001049D01*
X003540Y001030D01*
X003472Y001014D01*
X003403Y001003D01*
X003334Y000995D01*
X003265Y000991D01*
X003195Y000992D01*
X003126Y000996D01*
X003057Y001003D01*
X002988Y001015D01*
X002921Y001031D01*
X002854Y001050D01*
X002788Y001073D01*
X002724Y001100D01*
X002661Y001130D01*
X002600Y001164D01*
X002542Y001201D01*
X002485Y001241D01*
X002431Y001284D01*
X002379Y001331D01*
X002330Y001380D01*
X002283Y001432D01*
X002240Y001486D01*
X002200Y001543D01*
X002163Y001602D01*
X002129Y001663D01*
X002099Y001726D01*
X002072Y001790D01*
X002049Y001855D01*
X002030Y001922D01*
X002015Y001990D01*
X002003Y002059D01*
X001995Y002128D01*
X001991Y002197D01*
X001991Y002267D01*
X001995Y002336D01*
X002003Y002405D01*
X002015Y002474D01*
X002030Y002542D01*
X002049Y002609D01*
X002072Y002674D01*
X002099Y002738D01*
X002129Y002801D01*
X002163Y002862D01*
X002200Y002921D01*
X002240Y002978D01*
X002283Y003032D01*
X002330Y003084D01*
X002379Y003133D01*
X002431Y003180D01*
X002485Y003223D01*
X002542Y003263D01*
X002600Y003300D01*
X002661Y003334D01*
X002724Y003364D01*
X002788Y003391D01*
X002854Y003414D01*
X002921Y003433D01*
X002988Y003449D01*
X003057Y003461D01*
X003126Y003468D01*
X003195Y003472D01*
X003265Y003473D01*
X003334Y003469D01*
X003403Y003461D01*
X003472Y003450D01*
X003540Y003434D01*
X003607Y003415D01*
X003672Y003392D01*
X003737Y003366D01*
X003799Y003336D01*
X003860Y003302D01*
X003919Y003265D01*
X003976Y003225D01*
X004031Y003182D01*
X004083Y003136D01*
X004132Y003087D01*
X004178Y003035D01*
X004222Y002981D01*
X004215Y002975D01*
X004171Y003029D01*
X004125Y003080D01*
X004076Y003129D01*
X004025Y003175D01*
X003971Y003218D01*
X003914Y003258D01*
X003856Y003294D01*
X003795Y003328D01*
X003733Y003358D01*
X003669Y003384D01*
X003604Y003406D01*
X003538Y003425D01*
X003470Y003441D01*
X003402Y003452D01*
X003334Y003460D01*
X003265Y003464D01*
X003196Y003463D01*
X003127Y003459D01*
X003058Y003452D01*
X002990Y003440D01*
X002923Y003425D01*
X002856Y003405D01*
X002791Y003382D01*
X002728Y003356D01*
X002665Y003326D01*
X002605Y003293D01*
X002547Y003256D01*
X002490Y003216D01*
X002436Y003173D01*
X002385Y003127D01*
X002336Y003078D01*
X002290Y003026D01*
X002247Y002972D01*
X002207Y002916D01*
X002171Y002857D01*
X002137Y002797D01*
X002107Y002735D01*
X002081Y002671D01*
X002058Y002606D01*
X002039Y002539D01*
X002024Y002472D01*
X002012Y002404D01*
X002004Y002335D01*
X002000Y002267D01*
X002000Y002197D01*
X002004Y002129D01*
X002012Y002060D01*
X002024Y001992D01*
X002039Y001925D01*
X002058Y001858D01*
X002081Y001793D01*
X002107Y001729D01*
X002137Y001667D01*
X002171Y001607D01*
X002207Y001548D01*
X002247Y001492D01*
X002290Y001438D01*
X002336Y001386D01*
X002385Y001337D01*
X002436Y001291D01*
X002490Y001248D01*
X002547Y001208D01*
X002605Y001171D01*
X002665Y001138D01*
X002728Y001108D01*
X002791Y001082D01*
X002856Y001059D01*
X002923Y001039D01*
X002990Y001024D01*
X003058Y001012D01*
X003127Y001005D01*
X003196Y001001D01*
X003265Y001000D01*
X003334Y001004D01*
X003402Y001012D01*
X003470Y001023D01*
X003538Y001039D01*
X003604Y001058D01*
X003669Y001080D01*
X003733Y001106D01*
X003795Y001136D01*
X003856Y001170D01*
X003914Y001206D01*
X003971Y001246D01*
X004025Y001289D01*
X004076Y001335D01*
X004125Y001384D01*
X004171Y001435D01*
X004215Y001489D01*
X004207Y001494D01*
X004164Y001440D01*
X004118Y001389D01*
X004068Y001340D01*
X004017Y001294D01*
X003962Y001251D01*
X003905Y001211D01*
X003847Y001175D01*
X003786Y001141D01*
X003723Y001112D01*
X003659Y001086D01*
X003593Y001064D01*
X003526Y001045D01*
X003459Y001030D01*
X003390Y001019D01*
X003321Y001012D01*
X003252Y001009D01*
X003183Y001010D01*
X003113Y001015D01*
X003045Y001023D01*
X002977Y001036D01*
X002909Y001052D01*
X002843Y001073D01*
X002778Y001096D01*
X002714Y001124D01*
X002652Y001155D01*
X002592Y001190D01*
X002534Y001228D01*
X002478Y001269D01*
X002425Y001313D01*
X002374Y001360D01*
X002326Y001410D01*
X002281Y001463D01*
X002239Y001518D01*
X002200Y001575D01*
X002165Y001635D01*
X002133Y001696D01*
X002104Y001759D01*
X002079Y001824D01*
X002058Y001890D01*
X002040Y001957D01*
X002027Y002025D01*
X002017Y002094D01*
X002011Y002163D01*
X002009Y002232D01*
X002011Y002301D01*
X002017Y002370D01*
X002027Y002439D01*
X002040Y002507D01*
X002058Y002574D01*
X002079Y002640D01*
X002104Y002705D01*
X002133Y002768D01*
X002165Y002829D01*
X002200Y002889D01*
X002239Y002946D01*
X002281Y003001D01*
X002326Y003054D01*
X002374Y003104D01*
X002425Y003151D01*
X002478Y003195D01*
X002534Y003236D01*
X002592Y003274D01*
X002652Y003309D01*
X002714Y003340D01*
X002778Y003368D01*
X002843Y003391D01*
X002909Y003412D01*
X002977Y003428D01*
X003045Y003441D01*
X003113Y003449D01*
X003183Y003454D01*
X003252Y003455D01*
X003321Y003452D01*
X003390Y003445D01*
X003459Y003434D01*
X003526Y003419D01*
X003593Y003400D01*
X003659Y003378D01*
X003723Y003352D01*
X003786Y003323D01*
X003847Y003289D01*
X003905Y003253D01*
X003962Y003213D01*
X004017Y003170D01*
X004068Y003124D01*
X004118Y003075D01*
X004164Y003024D01*
X004207Y002970D01*
X004200Y002964D01*
X004157Y003018D01*
X004111Y003069D01*
X004062Y003118D01*
X004011Y003163D01*
X003957Y003206D01*
X003900Y003245D01*
X003842Y003282D01*
X003782Y003315D01*
X003719Y003344D01*
X003656Y003370D01*
X003590Y003392D01*
X003524Y003410D01*
X003457Y003425D01*
X003389Y003436D01*
X003320Y003443D01*
X003252Y003446D01*
X003183Y003445D01*
X003114Y003440D01*
X003046Y003432D01*
X002978Y003419D01*
X002912Y003403D01*
X002846Y003383D01*
X002781Y003359D01*
X002718Y003332D01*
X002657Y003301D01*
X002597Y003267D01*
X002539Y003229D01*
X002484Y003188D01*
X002431Y003144D01*
X002381Y003097D01*
X002333Y003048D01*
X002288Y002996D01*
X002246Y002941D01*
X002208Y002884D01*
X002173Y002825D01*
X002141Y002764D01*
X002112Y002701D01*
X002088Y002637D01*
X002066Y002571D01*
X002049Y002505D01*
X002036Y002437D01*
X002026Y002369D01*
X002020Y002301D01*
X002018Y002232D01*
X002020Y002163D01*
X002026Y002095D01*
X002036Y002027D01*
X002049Y001959D01*
X002066Y001893D01*
X002088Y001827D01*
X002112Y001763D01*
X002141Y001700D01*
X002173Y001639D01*
X002208Y001580D01*
X002246Y001523D01*
X002288Y001468D01*
X002333Y001416D01*
X002381Y001367D01*
X002431Y001320D01*
X002484Y001276D01*
X002539Y001235D01*
X002597Y001197D01*
X002657Y001163D01*
X002718Y001132D01*
X002781Y001105D01*
X002846Y001081D01*
X002912Y001061D01*
X002978Y001045D01*
X003046Y001032D01*
X003114Y001024D01*
X003183Y001019D01*
X003252Y001018D01*
X003320Y001021D01*
X003389Y001028D01*
X003457Y001039D01*
X003524Y001054D01*
X003590Y001072D01*
X003656Y001094D01*
X003719Y001120D01*
X003782Y001149D01*
X003842Y001182D01*
X003900Y001219D01*
X003957Y001258D01*
X004011Y001301D01*
X004062Y001346D01*
X004111Y001395D01*
X004157Y001446D01*
X004200Y001500D01*
M02*
